<svg width="1440" height="438" viewBox="0 0 1440 438" fill="none"
  xmlns="http://www.w3.org/2000/svg">
  <path d="M1439.65 513.572C1429.09 513.572 1362.3 518.642 1359.48 519.614C1356.67 520.585 1354.74 530.759 1358.25 530.527C1361.76 530.295 1382.89 419.631 1369.52 409.422C1356.14 399.212 1231.51 409.598 1236.97 389.003C1242.42 368.408 1266.19 242.198 1254.66 228.905C1243.13 215.618 1247.7 207.697 1252.28 204.177C1256.85 200.656 1258 209.943 1248.67 208.401C1247.33 208.176 1224.82 153.129 1213.12 90.4503C1210.44 76.1289 1186.98 35.0236 1189.27 26.9123C1193.43 12.2248 1206.77 12.9571 1210.73 17.9421C1215.48 23.9269 1227.27 23.5749 1225.34 30.9679C1221.64 45.0781 1240.73 93.7737 1252.64 131.95C1260.99 158.699 1275.16 175.365 1270.05 178.653C1260.19 184.99 1265.55 170.64 1271.45 173.372C1277.36 176.104 1296.98 208.317 1314.23 210.957C1355.99 217.35 1333.54 164.479 1344.07 162.29C1348.29 161.41 1354.45 170.654 1347.24 175.759C1340.02 180.864 1346.62 151.024 1336.58 142.751C1326.55 134.478 1302.26 140.815 1297.86 144.863C1293.46 148.912 1298.91 159.473 1292.93 155.249C1286.95 151.024 1293.81 127.261 1301.56 122.508C1313.5 115.178 1324.42 117.474 1331.29 119.586C1350.08 125.36 1349.04 150.616 1346.71 151.989C1343.72 153.749 1343.81 136.322 1326.21 134.562C1308.6 132.802 1297.34 136.766 1298.57 152.608C1302.02 196.988 1282.16 162.367 1291.88 161.938C1299.15 161.614 1296.63 174.083 1298.04 182.533C1299.45 190.982 1302.62 208.936 1324.45 205.592C1346.27 202.247 1367.4 176.196 1375.32 179.364C1383.24 182.533 1383.41 195.91 1377.96 190.63C1365.04 178.125 1400.31 152.284 1400.31 118.459C1400.31 94.168 1411.4 64.7718 1408.76 51.922C1406.12 39.0721 1394.68 8.61981 1400.4 4.92329C1406.12 1.22676 1403.89 13.7175 1406.49 15.4355C1409.09 17.1535 1414.92 10.7321 1413.42 9.32391C1411.92 7.91571 1407.26 16.6747 1410.87 19.5756C1414.48 22.4765 1420.91 13.3725 1419.06 12.3163C1417.21 11.2602 1413.07 21.5119 1417.73 23.4482C1422.39 25.3844 1428.47 16.4494 1426.62 15.527C1424.77 14.6047 1419.32 24.0185 1422.66 25.4267C1426.01 26.8349 1429 20.5825 1431.99 23.3144C1434.98 26.0463 1441.59 24.3705 1439.65 16.893C1437.71 9.40841 1428.47 9.76046 1421.43 5.80341C1414.39 1.84637 1410.16 2.19842 1408.23 5.80341C1406.29 9.40841 1404.62 20.1459 1410.69 23.934C1416.76 27.722 1423.8 28.5951 1430.32 27.37C1436.83 26.1378 1434.55 39.1637 1431.03 45.1485C1428.98 48.6197 1418.25 203.099 1404.44 209.091C1393.88 213.668 1387.46 208.324 1389.31 205.859C1391.17 203.395 1410.79 203.395 1403.04 218.181C1395.3 232.967 1373.12 300.209 1375.23 339.638C1377.34 379.068 1384.03 398.079 1371.01 400.015C1357.98 401.951 1255.04 385.687 1250.96 403.712C1249.2 411.478 1248.62 433.418 1244.57 453.872C1239.01 481.881 1239.65 511.798 1240.89 513.572C1243.07 516.691 1289.19 517.255 1291.76 514.875C1294.32 512.495 1315.74 442.437 1307.29 440.149C1298.84 437.86 1298.32 512.319 1306.06 519.712C1313.81 527.105 1333.52 528.337 1334.05 523.409C1334.31 521.001 1289.24 523.831 1242.88 523.226C1194.32 522.592 1144.37 518.754 1144.74 526.133C1145.44 540.568 1158.2 504.75 1165.59 475.882C1172.99 447.014 1175.01 414.977 1157.76 408.64C1140.51 402.303 1054.69 402.655 1061.38 381.18C1065.32 368.549 1076.93 329.154 1083.02 291.816C1087.28 265.673 1088.54 239.945 1086.37 227.334C1083.47 210.436 1098.13 216.618 1093.65 218.991C1075.32 228.693 1073.4 150.088 1073.26 142.835C1072.84 120.494 1076.13 94.5764 1077.45 73.742C1078.95 49.873 1078.91 34.3195 1081 31.4186C1082.9 28.7782 1086.39 28.5036 1088.72 26.0252C1093.32 21.1387 1098.58 19.8713 1099.75 22.7934C1101.41 26.9757 1092.04 38.3751 1092.04 34.1505C1092.04 29.9259 1101.44 33.0662 1100.2 39.051C1098.97 45.0359 1094.46 49.5562 1095.16 70.6792C1095.87 91.8022 1098.42 147.687 1095.25 161.769C1092.08 175.851 1104.31 201.374 1100.96 204.81C1097.62 208.246 1095.67 203.74 1100.26 201.55C1104.85 199.361 1115.22 219.772 1128.78 228.75C1142.33 237.727 1161.52 227.165 1159.23 214.844C1156.94 202.522 1149.2 178.583 1153.07 174.71C1156.94 170.837 1161.78 185.624 1154.56 187.736C1147.34 189.848 1148.81 162.233 1130.62 162.304C1112.43 162.374 1109.85 169.781 1108.7 178.85C1107.55 187.919 1086.17 163.092 1108.7 148.834C1130.16 135.259 1153.04 136.928 1164.39 153.495C1174.85 168.767 1187.06 181.709 1180.87 197.593C1175.59 211.147 1168.9 223.117 1163.97 213.612C1152.82 192.094 1167.54 178.597 1159.44 174.231C1152.57 170.535 1151.83 160.98 1136.87 158.516C1121.9 156.051 1106.77 164.078 1105.53 170.837C1095.97 223.201 1147.1 220.646 1145.32 216.076C1144.58 214.189 1128.46 217.885 1132.39 224.828C1136.32 231.77 1162.92 231.214 1175.42 215.372C1187.91 199.53 1192.67 220.737 1188.75 220.082C1184.84 219.42 1182.81 210.619 1187.21 199.177C1197.72 171.851 1199.28 133.492 1198.47 99.2798C1198.21 88.1057 1195.88 77.6076 1195.91 67.7713C1195.97 50.8236 1196.53 42.2124 1197.41 36.7979C1198.73 28.7007 1202.16 25.4478 1203.04 28.6163C1203.92 31.7847 1203.42 40.4663 1201.81 38.8257C1200.21 37.1852 1206.66 24.4973 1210.75 25.8139C1214.85 27.1306 1212.63 35.2137 1211.67 31.9607C1210.71 28.7007 1213.08 25.7083 1215.37 28.2642C1217.65 30.813 1217.92 39.1778 1215.46 36.5374C1212.99 33.897 1219.25 31.0806 1220.21 33.0169C1221.18 34.9532 1223.29 45.2541 1220.39 52.0276C1217.49 58.801 1224.61 190.559 1212.99 217.315C1201.38 244.071 1195.74 236.854 1197.15 231.397C1198.56 225.94 1210.71 229.461 1208.42 239.142C1206.13 248.824 1179.55 347.75 1181.66 380.842C1183.77 413.935 1178.76 407.422 1170.31 404.873C1161.86 402.324 1080.81 379.547 1067.79 404.19C1054.76 428.834 1062.8 510.256 1065.62 513.157C1068.43 516.065 1100.41 517.762 1101.46 515.297C1102.52 512.833 1113.55 445.972 1108.7 445.183C1103.86 444.394 1106.41 520.346 1114.6 525.626C1122.79 530.907 1137.49 526.155 1122.78 524.303C1108.08 522.458 977.648 518.754 974.923 523.247C972.191 527.739 975.191 539.525 978.268 536.625C979.127 535.815 975.867 524.549 976.409 507.397C977.817 463.278 980.732 385.116 968.051 382.075C950.449 377.85 864.549 398.621 863.844 372.921C863.14 347.222 866.661 253.928 862.436 237.382C858.212 220.836 841.841 224.884 847.298 215.907C852.755 206.93 857.416 206.838 857.156 210.098C856.895 213.351 843.073 213.971 837.793 203.233C832.512 192.496 776.078 85.2189 762.348 64.4479C748.618 43.677 734.283 36.5374 743.084 27.032C751.886 17.5267 759.807 22.4554 759.103 29.1443C758.398 35.8333 758.314 37.4175 759.37 44.2825C760.426 51.1475 781.627 55.8649 792.547 72.7985C799.969 84.3106 806.425 92.2528 814.381 105.666C824.492 122.698 833.061 141.786 839.947 151.404C848.544 163.409 855.663 173.752 859.789 180.181C863.57 186.074 860.317 193.031 857.501 190.214C854.684 187.398 860.366 179.54 866.527 183.765C872.688 187.989 910.829 207.113 929.312 205.704C947.794 204.296 948.322 200.332 949.027 193.643C949.731 186.954 950.083 162.05 957.476 160.459C964.869 158.875 964.08 173.048 957.391 173.752C950.702 174.457 961.348 151.482 952.899 145.321C922.278 122.994 895.916 168.359 905.196 140.216C920.827 92.795 970.91 125.529 962.58 148.137C961.313 151.573 960.194 146.701 955.807 142.357C951.66 138.245 944.464 134.696 935.733 135.639C917.778 137.576 908.372 145.729 909.78 154.883C914.427 185.081 895.297 158.382 903.429 157.291C915.497 155.671 891.903 215.921 958.025 198.952C977.916 193.847 998.306 172.253 1000.24 183.342C1002.18 194.432 994.525 196.192 994.786 188.799C995.046 181.406 996.722 177.357 1004.29 167.148C1011.86 156.939 1062.08 76.2627 1074.35 64.5254C1086.62 52.788 1096 59.9487 1101.63 51.8516C1107.27 43.7544 1098.99 35.5728 1104.01 32.2212C1109.03 28.8768 1110.09 35.2137 1108.86 35.6573C1107.63 36.0938 1101.02 28.3065 1104.24 25.5816C1107.45 22.8567 1115.9 29.6724 1113.7 30.6863C1111.5 31.7002 1107.89 23.3355 1110.89 20.9627C1113.88 18.5899 1122.68 25.3633 1119.86 34.7842C1117.05 44.205 1111.5 55.6396 1100.94 60.3078C1090.37 64.976 1034.05 169.267 1024.72 195.143C1015.39 221.019 1001.04 212.745 1002.89 207.993C1004.73 203.24 1021.37 212.393 1006.94 227.003C992.505 241.614 989.336 276.467 987.928 303.046C986.52 329.626 996.553 376.097 980.711 377.857C964.869 379.617 870.519 365.535 864.182 388.418C857.846 411.302 868.844 510.404 875.272 512.516C881.7 514.628 917.448 515.29 919.109 510.502C920.771 505.715 921.391 430.664 914.526 429.784C911.209 429.362 912.146 448.704 920.82 467.137C929.797 486.218 923.355 510.369 927.995 516.741C936.972 529.062 951.019 526.697 951.111 523.176C951.202 519.656 784.098 515.685 778.289 523.43C772.48 531.175 779.803 544.912 780.155 532.238C780.507 519.564 778.993 499.314 793.427 456.716C807.861 414.118 804.961 389.299 794.66 386.834C784.366 384.37 690.537 395.72 683.848 384.63C677.159 373.541 682.532 299.082 678.131 278.663C673.73 258.244 659.205 241.874 665.718 240.466C672.231 239.058 676.624 243.712 670.47 243.986C664.317 244.261 661.916 214.259 661.845 188.539C661.817 177.153 653.347 150.362 647.179 117.572C642.468 92.4993 641.771 69.7005 637.371 61.6245C628.957 46.1765 635.878 36.8049 642.567 36.4529C649.256 36.1008 644.327 45.7822 647.496 51.415C650.664 57.0478 656.825 60.2163 656.473 69.3696C656.318 73.3618 660.317 99.0544 667.788 127.049C677.441 163.219 691.002 203.944 689.214 214.069C686.045 232.024 680.99 227.074 680.814 223.286C680.018 206.092 725.608 250.689 746.246 229.559C753.639 221.99 748.71 210.373 753.287 194.178C764.503 154.481 728.538 161.142 721.778 174.259C714.125 189.13 715.793 210.373 716.849 220.054C717.906 229.735 695.29 226.651 692.826 205.176C690.361 183.701 693.614 160.206 703.831 149.82C714.04 139.435 730.263 141.484 741.5 145.947C748.09 148.567 756.075 152.996 759.426 160.551C768.819 181.716 763.616 215.344 757.342 209.493C752.97 205.409 753.998 207.38 756.462 194.882C758.926 182.385 759.722 163.022 749.773 159.501C739.824 155.981 727.242 159.945 719.581 154.397C699.902 140.146 730.755 151.292 721.074 161.086C713.949 168.303 706.746 213.274 718.694 219.265C723.538 221.695 731.544 224.419 738.972 222.772C749.879 220.35 760.567 212.478 766.573 212.929C776.677 213.696 776.17 222.786 771.15 219.089C766.129 215.393 767.981 207.296 767.101 195.678C766.221 184.06 772.734 102.737 770.622 87.7748C768.509 72.8126 771.678 66.2997 764.637 58.5546C757.596 50.8095 755.659 45.0922 759.8 41.2196C763.94 37.3471 767.017 39.9875 764.461 34.1786C761.905 28.3698 766.559 22.6032 769.551 24.6733C772.544 26.7433 770.847 33.383 769.263 30.7004C767.678 28.0178 772.079 23.0891 775.557 25.3281C779.036 27.5742 775.642 31.7988 775.114 29.1584C774.586 26.518 780.571 26.166 780.923 30.1301C781.275 34.0941 798.258 230.623 789.28 233.615C780.303 236.607 777.487 225.694 782.239 225.87C786.992 226.046 789.984 234.143 790.512 245.585C791.041 257.026 788.309 347.947 797.814 369.33C807.319 390.714 700.733 371.443 692.635 386.933C684.538 402.423 679.962 441.149 691.227 477.762C702.493 514.375 699.226 513.227 701.789 515.783C704.352 518.339 736.733 520.275 738.578 517.367C740.423 514.466 754.357 421.138 747.731 420.554C740.162 419.892 749.238 448.246 748.386 473.988C747.675 495.646 746.858 520.825 749.499 522.613C762.306 531.266 765.545 523.648 756.533 522.916C747.52 522.183 618.719 521.296 614.832 524.676C610.946 528.056 610.164 533.442 613.685 532.949C615.199 532.738 621.634 512.453 624.38 487.366C628.013 454.196 627.57 413.104 624.162 403.479C618.177 386.581 518.019 412.985 519.427 385.877C520.835 358.769 529.284 300.152 518.723 278.325C508.161 256.498 497.248 228.292 506.753 224.772C516.258 221.251 522.109 231.024 517.315 231.151C512.52 231.284 510.274 227.454 509.745 216.717C509.217 205.979 524.356 126.592 522.947 92.4429C521.539 58.2941 522.152 37.3471 529.369 34.2631C536.586 31.1862 537.198 44.0361 534.03 40.424C530.861 36.812 540.015 25.6379 543.887 25.2014C547.76 24.7578 544.767 39.6354 539.135 43.4165C533.502 47.2045 538.346 57.0619 542.916 66.5672C545.19 71.2918 539.557 107.419 538.747 143.054C537.931 179.061 540.74 213.443 535.875 219.54C526.461 231.334 530.242 209.507 542.564 212.499C547.457 213.689 554.16 219.632 561.321 221.934C572.199 225.433 583.458 224.398 585.69 216.02C589.386 202.114 587.013 204.402 590.442 197.537C606.313 165.796 576.255 136.506 556.984 164.986C539.184 191.299 542.014 138.519 564.299 133.64C601.412 125.507 604.616 169.626 599.152 166.733C592.322 163.121 577.114 129.683 556.477 159.853C551.766 166.74 550.745 175.611 551.977 181.519C554.146 191.939 550.569 195.073 546.521 188.208C542.472 181.343 545.204 176.083 548.548 180.308C551.893 184.532 548.915 198.663 554.35 206.43C571.354 230.714 611.382 205.747 615.522 190.496C619.782 174.809 646.559 73.8406 657.149 64.462C660.233 61.7301 646.665 64.2578 647.735 57.9491C648.798 51.6403 655.522 49.4576 656.452 51.6544C657.374 53.8512 649.319 52.7528 649.495 49.2323C649.671 45.7118 653.502 42.2335 654.515 44.4796C655.529 46.7257 648.531 47.3876 650.995 40.255C653.459 33.1225 660.064 30.9257 665.161 34.1857C670.266 37.4386 674.934 53.1049 671.146 63.5819C667.358 74.0589 663.049 83.7403 658.212 95.71C653.368 107.68 641.314 220.512 628.992 227.377C616.67 234.242 615.614 220.251 618.782 220.688C621.951 221.124 631.104 225.349 622.303 245.768C613.502 266.187 637.399 365.254 628.992 382.624C620.585 399.994 520.56 379.455 518.096 396.706C515.632 413.956 508.943 486.655 522.849 511.65C524.609 514.811 560.279 519.423 563.863 511.474C570.376 497.04 577.945 443.352 572.84 443.704C567.735 444.056 564.919 518.959 576.888 523.972C588.858 528.985 593.259 523.62 582.873 522.916C572.488 522.212 441.37 518.747 438.554 522.796C435.738 526.845 433.71 536.526 437.477 535.413C441.11 534.343 443.806 513.115 440.04 482.916C434.97 442.212 441.11 394.086 437.125 382.976C430.351 364.12 306.866 395.121 305.458 365.901C304.05 336.681 313.027 257.47 294.72 220.153C276.414 182.835 321.3 199.03 301.937 201.846C282.575 204.662 250.186 102.216 243.497 74.4039C241.962 68.0107 226.634 -8.40533 252.96 1.96606C255.861 3.1067 252.348 10.373 250.538 8.52125C248.736 6.67651 259.121 2.09986 259.297 7.4651C259.473 12.8374 254.284 15.6538 253.228 14.0695C252.172 12.4853 261.071 10.1829 259.579 16.6114C258.086 23.0327 252.742 23.2721 253.186 21.2443C253.629 19.2165 265.331 24.8493 257.326 31.7143C237.357 48.831 279.125 64.8211 282.138 108.011C284.25 138.287 308.457 141.99 313.21 154.488C317.963 166.986 315.942 176.315 312.33 174.379C308.725 172.443 312.33 158.713 320.427 159.769C328.524 160.825 370.946 191.806 385.028 182.124C395.104 175.196 419.994 102.033 384.057 102.033C365.398 102.033 363.018 119.403 355.519 124.585C351.351 127.465 345.141 122.698 344.451 118.403C336.424 68.2008 394.421 86.1131 399.99 89.8871C409.848 96.576 405.532 103.793 400.955 102.561C392.506 100.287 384.19 94.168 373.044 97.5265C366.327 99.5473 356.026 104.145 355.632 121.924C355.104 145.687 344.366 137.062 345.423 130.197C346.479 123.332 354.576 128.261 353.168 143.223C350.091 175.893 402.089 174.773 425.162 169.802C450.51 164.346 447.693 179.751 443.032 178.604C438.371 177.456 439.948 166.986 446.468 160.649C452.981 154.312 481.849 140.406 491.354 118.579C500.86 96.752 531.889 64.4057 538.607 52.2458C545.324 40.086 555.336 32.3269 560.708 33.383C566.073 34.4392 560.004 42.5363 561.588 47.113C562.363 49.3591 561.328 52.9922 562.644 56.9704C563.841 60.5895 561.75 64.3 560.18 65.3351C557.103 67.3558 542.493 64.983 545.134 60.5824C547.774 56.1818 555.385 55.5622 554.906 57.6745C554.428 59.7868 543.113 58.0265 542.761 54.6821C542.409 51.3376 553.203 47.5777 553.667 49.873C554.195 52.4712 544.366 51.3939 544.789 48.3944C545.204 45.3879 556.498 40.7831 557.814 44.1276C559.131 47.4721 562.215 63.6664 549.893 78.1004C545.978 82.6841 536.677 98.9981 526.271 119.459C504.838 161.614 469.879 207.141 458.712 207.746C442.342 208.627 439.526 185.835 447.271 194.629C455.016 203.43 453.784 210.471 438.469 226.666C423.155 242.86 458.093 362.437 446.391 368.894C434.688 375.35 321.765 358.332 316.132 374.175C310.499 390.017 303.113 507.052 305.578 512.157C308.042 517.262 351.147 519.853 355.196 513.516C357.061 510.594 360.631 498.371 367.883 477.896C376.347 454.012 386.246 431.291 380.557 432.615C373.263 434.319 380.261 469.108 386.718 494.041C389.605 505.193 391.527 525.366 394.639 528.02C400.624 533.125 422.275 528.02 402.208 526.084C382.141 524.148 172.848 517.987 170.911 522.212C168.975 526.436 168.799 536.822 172.672 533.477C174.108 532.238 173.284 522.993 176.171 512.157C181.072 493.724 191.168 467.172 201.364 442.12C213.721 411.766 200.054 408.457 179.156 408.126C144.247 407.57 90.8975 413.78 89.7639 398.466C88.6936 384.032 93.6364 327 104.902 307.637C121.371 279.325 73.8864 213.802 96.8823 213.443C107.972 213.267 105.838 224.617 97.1569 216.808C96.9175 216.597 87.6657 174.872 70.6969 135.999C57.2626 105.229 37.7168 82.2616 24.2826 68.243C12.6579 56.1184 -4.64891 49.1901 1.15992 46.0216C6.96874 42.8532 15.9179 47.9508 15.0377 49.9364C14.1576 51.9149 0.343164 40.079 3.77213 34.7983C7.20814 29.5175 23.8812 42.656 21.1986 44.1276C18.7272 45.4795 7.64468 28.2008 11.3412 24.4973C15.0377 20.7937 31.1898 37.4386 28.6762 38.8468C26.1696 40.255 15.5658 21.8569 20.6705 20.5402C25.7753 19.2165 41.878 50.8165 37.3929 50.1969C32.9078 49.5773 37.4844 30.6582 42.0611 31.9748C46.6377 33.2915 45.4056 43.1489 46.9898 52.9218C48.574 62.6947 65.5639 86.3666 71.7248 98.8643C74.0131 103.511 83.596 112.552 91.334 124.332C104.409 144.237 117.28 169.697 117.667 178.428C118.287 192.334 112.908 194.368 112.028 189.968C111.147 185.567 120.216 180.807 124.793 190.665C129.369 200.522 134.911 208.007 143.712 214.872C152.513 221.737 165.905 224.215 175.573 215.4C206.173 187.489 190.929 141.476 164.969 144.265C156.428 145.18 151.394 147.123 142.121 162.332C129.546 182.962 125.018 138.561 138.072 129.239C167.13 108.482 206.145 129.239 198.928 157.896C197.998 161.593 195.076 158.192 193.062 156.143C189.134 152.151 184.085 144.124 175.094 141.392C168.496 139.385 160.955 140.758 151.133 143.856C143.775 146.173 134.728 135.407 137.544 134.435C140.361 133.464 148.81 144.645 141.769 149.75C134.728 154.854 148.084 182.652 140.537 188.123C132.989 193.594 128.658 177.371 132.087 174.745C135.516 172.119 141.593 178.97 142.473 193.228C143.353 207.486 170.109 222.976 184.719 209.598C199.329 196.22 196.956 172.717 203.293 175.006C209.63 177.294 211.13 189.876 208.398 188.736C205.666 187.595 203.201 172.893 205.138 163.916C206.187 159.058 219.001 131.668 228.838 104.082C237.167 80.7126 242.441 56.731 246.152 51.0841C254.249 38.7623 262.916 34.756 263.008 27.1869C263.092 19.6179 260.015 6.81028 265.472 8.48603C270.929 10.1548 268.549 21.6034 266.746 19.5756C264.944 17.5548 268.246 6.72578 271.985 10.549C275.724 14.3723 272.492 27.4475 269.915 26.2998C267.338 25.1591 276.386 7.73266 279.11 19.2588C280.42 24.786 269.507 37.1429 266.218 45.1345C264.486 49.352 259.966 58.7236 256.826 73.3759C248.412 112.58 236.569 180.195 225.648 202.409C215.087 223.884 205.581 204.522 210.51 203.113C215.439 201.705 222.247 215.33 217.199 230.925C214.573 239.03 223.163 281.318 220.008 326.563C217.361 364.542 228.408 397.29 221.776 400.966C207.968 408.626 97.678 392.34 91.165 408.359C84.6521 424.377 107.007 510.629 113.168 513.798C119.329 516.966 150.922 519.254 153.386 512.037C155.851 504.82 163.68 426.841 158.4 427.721C155.914 428.137 154.773 450.661 159.611 472.516C165.074 497.195 156.604 524.035 159.632 524.359C165.349 524.972 168.933 521.508 159.012 520.663C149.091 519.818 1.15921 520.663 1.15921 520.663" stroke="black" stroke-width="2" stroke-miterlimit="22.9256" stroke-linecap="round"/>
</svg>
