<svg width="1440" height="181" viewBox="0 0 1440 181" fill="none" xmlns="http://www.w3.org/2000/svg">
<path d="M0 96.8643C16.6558 102.713 58.8002 97.4066 91.8213 94.921C124.843 92.4349 127.667 76.0582 150.116 58.6584C159.443 51.4298 167.849 40.1489 177.631 30.3651C191.393 16.5994 206.036 4.79404 213.697 2.65707C226.804 -0.996175 258.45 2.69457 266.995 1.59901C275.54 0.49929 282.311 3.86514 282.021 5.03151C281.732 6.20205 270.833 6.75188 270.544 3.31525C270.254 -0.12139 282.167 1.74478 284.339 6.49359C286.511 11.2466 281.37 12.7087 274.201 14.1709C267.032 15.633 264.316 20.6776 264.352 22.8354C264.388 24.9923 266.833 43.8801 268.009 46.4861C268.626 47.8545 275.835 47.2822 280.899 51.0383C285.48 54.4354 288.822 58.8717 290.675 66.6823C293.313 77.7999 282.999 93.6417 270.181 94.5919C251.766 95.957 237.712 74.5923 248.664 57.1892C254.225 48.3531 264.159 47.8974 264.388 46.7785C264.822 44.6582 261.636 29.6345 260.984 28.4281C260.333 27.2218 252.62 31.3157 251.824 31.1695C251.027 31.0233 245.523 24.4433 244.256 24.4058C242.989 24.3725 228.168 36.1049 228.137 37.2696C228.112 38.2298 232.406 44.4903 232.304 45.3801C232.203 46.2699 228.578 53.4314 227.673 53.541C226.768 53.6505 219.599 51.8043 218.114 52.2796C216.629 52.7549 215.362 74.5232 216.195 75.9487C217.028 77.3746 222.682 78.0111 223.98 78.6172C225.278 79.2233 227.6 84.2466 228.107 86.2202C228.614 88.1943 221.916 93.3485 221.59 95.0297C221.264 96.7114 233.957 110.289 234.935 110.508C235.912 110.727 242.307 106.594 242.953 106.581C243.599 106.567 250.991 110.31 251.209 111.187C251.426 112.065 251.172 119.887 251.39 121.057C251.607 122.227 271.394 123.342 272.264 122.702C273.133 122.062 273.314 114.678 273.748 113.874C274.183 113.07 283.54 110.265 284.412 110.42C285.283 110.574 292.287 117.292 293.282 117.548C294.279 117.804 308.013 105.71 308.013 104.613C308.013 103.516 302.733 97.15 302.697 96.1998C302.66 95.2497 306.896 88.0665 307.313 87.4267C307.729 86.7868 316.99 87.822 317.968 87.2921C318.945 86.7618 320.376 67.3142 320.04 66.5723C319.704 65.8308 310.637 63.6097 309.938 63.0082C309.238 62.4071 307.353 55.2364 307.892 54.4182C308.43 53.6001 315.007 47.7287 315.116 46.4861C315.224 45.2431 303.13 31.8639 301.972 31.2057C300.813 30.548 294.02 35.7838 292.39 35.6376C290.761 35.4914 284.726 31.6477 284.147 30.7704C283.567 29.8936 284.323 23.6726 283.976 21.7398C283.744 20.4484 275.528 16.1162 265.764 16.3328C258.472 16.4953 250.019 15.6247 247.007 14.5375C236.869 10.88 242.988 4.96065 244.002 8.17651C245.016 11.3924 233.393 19.8028 219.634 20.8233C205.875 21.8481 205.44 13.5127 210.944 17.0243C216.447 20.5318 211.299 37.1397 209.061 45.8275C208.19 49.2083 207.816 53.8005 206.235 57.4183C203.753 63.0973 200.202 67.7136 201.674 71.7081C204.084 78.2473 213.514 80.5909 211.921 77.3742C210.328 74.1575 205.875 77.3742 204.68 84.6119C203.485 91.8497 207.588 92.4604 208.373 91.2873C210.321 88.3718 192.307 83.5872 202.254 97.1496C207.83 104.753 213.044 104.204 219.271 99.2332C220.488 98.2622 218.991 94.5028 220.003 92.8036C222.269 88.9975 223.602 86.2699 221.556 81.4994C220.859 79.8765 218.885 81.4048 216.463 79.8231C213.964 78.191 213.157 73.7009 212.609 71.4886C210.911 64.6274 215.198 55.7492 214.322 53.9883C213.448 52.2313 211.864 50.3968 209.676 50.3968C205.476 50.3968 199.647 66.0054 195.012 69.6607C182.4 79.6082 202.687 110.546 213.747 117.482C222.33 122.865 233.146 124.332 238.462 125.516C248.31 127.709 242.408 134.07 240.67 132.882C238.932 131.694 238.896 126.247 255.986 127.417C273.076 128.587 281.985 132.315 279.234 140.065C276.032 149.081 253.07 141.843 261.2 138.237C273.728 132.681 285.182 142.735 271.279 144.197C263.654 144.999 246.964 146.653 231.934 149.614C219.556 152.052 206.808 156.018 194.578 156.953C167.495 159.023 84.1677 166.74 86.5329 157.026C88.0533 150.78 115.489 154.681 153.499 161.69C208.904 171.907 285.934 172.098 322.609 176.546C448.846 191.856 596.455 150.667 593.009 161.485C589.391 172.857 519.25 156.432 505.708 152.964C494.139 150.001 481.797 144.235 466.873 141.746C450.992 139.097 426.548 141.69 410.522 143.062C393.865 144.487 380.506 138.36 383.258 134.801C386.008 131.241 407.118 136.5 402.41 140.96C397.702 145.42 384.193 139.476 382.258 135.62C381.485 134.08 360.039 122.236 358.926 122.08C357.25 121.845 353.677 124.425 348.599 124.363C345.777 124.328 342.603 123.861 338.761 120.723C320.641 105.924 346.119 74.7869 363.93 100.016C366.937 104.276 366.189 109.949 364.502 113.912C363.247 116.861 361.146 118.652 361.424 119.338C362.076 120.947 374.409 127.74 375.205 127.32C376.002 126.899 377.924 122.207 378.514 121.97C379.104 121.733 384.94 122.068 385.954 121.813C386.967 121.556 389.774 107.641 389.448 106.544C389.122 105.448 382.316 104.79 381.917 104.022C381.519 103.255 380.577 98.6667 380.541 98.0635C380.505 97.4604 386.31 93.0231 386.534 92.3246C386.758 91.6256 377.264 79.7315 376.577 79.5303C375.889 79.3295 370.53 82.4 369.588 82.3633C368.646 82.3266 365.17 79.644 364.791 78.9454C364.411 78.2468 365.008 73.0602 364.682 72.2375C364.356 71.4152 349.161 68.5431 348.835 68.7438C348.51 68.945 346.327 75.3626 346.025 75.6092C345.723 75.8562 341.053 77.4754 340.169 77.1726C339.285 76.8697 335.927 72.9619 334.864 72.1463C333.802 71.3307 321.757 80.5904 321.757 81.0291C321.757 81.4677 324.202 87.0726 324.201 87.4441C324.2 87.8166 321.739 92.7265 321.232 92.7999C320.725 92.8728 314.647 92.3508 313.882 92.7449C313.116 93.1394 311.137 109.853 311.546 110.218C311.956 110.583 318.004 111.079 318.263 111.351C318.522 111.623 319.838 116.049 319.494 116.597C319.15 117.145 313.94 121.853 313.828 122.921C313.715 123.99 323.278 135.972 324.147 135.989C325.016 136.008 329.017 133.687 329.759 133.595C330.502 133.504 335.281 136.685 335.408 137.087C335.535 137.489 334.899 143.251 335.158 143.815C335.417 144.378 351.648 146.499 352.281 146.28C352.914 146.061 352.987 140.655 353.168 140.048C353.349 139.44 359.615 137.651 360.102 137.964C360.589 138.277 364.764 143.039 365.372 143.829C365.718 144.279 372.956 139.56 377.718 136.69C385.288 132.13 381.02 133.458 385.031 128.186C389.296 122.579 411.645 114.478 421.638 115.794C431.632 117.11 429.131 123.945 427.902 124.238C426.672 124.53 424.469 122.349 425.876 117.951C428.983 108.216 483.708 122.516 466.353 76.2782C465.507 74.0237 460.919 70.972 456.541 66.9334C451.569 62.3437 446.61 56.8256 443.098 55.9658C437.02 54.4791 429.783 56.7872 423.412 55.6617C413.138 53.8467 401.234 64.1375 392.578 71.3657C387.925 75.2493 384.171 77.34 383.366 80.1535C382.436 83.4026 385.975 86.3356 387.139 89.2695C388.858 93.6038 388.986 97.2491 391.146 96.2902C394.765 94.6819 393.902 87.1329 391.62 86.2944C388.159 85.0222 391.563 94.2699 400.12 90.0043C402.873 88.6326 406.78 87.387 410.233 82.2733C417.038 72.1846 409.363 64.4349 410.233 75.9862C411.1 87.537 439.199 79.6415 436.591 76.8635C433.984 74.0854 425.801 79.7144 422.327 82.712C418.849 85.7095 415.556 97.6628 411.971 105.741C408.385 113.82 432.535 112.029 434.421 108.373C436.302 104.718 434.71 95.5792 430.943 95.1405C425.302 94.4836 432.705 104.434 447.018 93.6784C453.249 88.9996 445.863 81.1036 444.848 81.9809C443.833 82.8582 446.44 89.5844 451.8 93.386C454.024 94.9652 463.873 97.2625 467.426 91.3281C470.661 85.9199 469.877 76.3328 470.471 72.1563C470.793 69.8823 473.892 68.9892 474.247 71.1611C474.828 74.6886 464.307 70.4313 456.45 62.4471C449.803 55.6921 447.121 41.8072 451.8 42.283C456.376 42.7487 451.743 53.3764 440.866 51.8364C431.656 50.5321 422.546 45.5855 419.356 44.1108C412.404 40.8941 418.127 28.1732 419.72 30.8046C420.359 31.8597 419.212 37.3588 415.082 40.6459C405.596 48.1927 386.86 55.0118 384.163 47.6199C383.149 44.8419 386.335 41.771 387.638 49.0821C388.942 56.3928 365.914 69.9181 357.079 65.6779C348.244 61.4373 361.663 48.9017 365.008 52.8108C368.354 56.7194 359.034 64.5082 355.558 62.8995C352.082 61.2911 356.065 54.9306 364.61 47.4738C373.155 40.0165 390.535 20.6443 407.481 16.1829C424.427 11.7215 442.24 26.272 470.339 26.4186C498.434 26.5648 507.994 45.1343 536.093 69.9914C564.188 94.8485 649.93 103.329 649.93 103.329C649.93 103.329 681.458 108.222 701.213 113.36C737.802 122.877 754.883 139.192 791.594 148.218C842.177 160.654 872.576 158.012 924.626 156.932C972.641 155.936 1047 144.63 1047 144.63C1047 144.63 1078.91 143.305 1099.29 144.63C1149.41 147.887 1174.49 173.006 1224.71 173.336C1296.2 173.805 1327.99 121.927 1399.38 117.974C1415.22 117.096 1440 117.974 1440 117.974" stroke="black" stroke-width="2" stroke-miterlimit="22.9256" stroke-linecap="round"/>
</svg>
