<svg width="264" height="86" fill="none" xmlns="http://www.w3.org/2000/svg"><path d="M164.549 30.051V14.73h-4.83v15.297c0 .202-.021.399-.029.6-.008.185-.008.374-.025.555-.004.063-.021.126-.03.184a10.715 10.715 0 0 1-.821 3.048 11.144 11.144 0 0 1-2.455 3.56 11.922 11.922 0 0 1-3.583 2.406c-1.356.6-2.804.898-4.354.898-1.55 0-2.998-.298-4.354-.898a12.074 12.074 0 0 1-3.583-2.406 11.273 11.273 0 0 1-2.455-3.56 10.72 10.72 0 0 1-.821-3.048l-.026-.184c-.021-.18-.021-.37-.029-.555-.009-.201-.03-.398-.03-.6V14.73h-4.825V30.05c0 2.225.425 4.312 1.284 6.255a16.367 16.367 0 0 0 3.466 5.084c1.457 1.444 3.17 2.59 5.137 3.434.139.059.282.114.421.168 1.819.73 3.752 1.096 5.807 1.096 2.054 0 3.987-.37 5.806-1.096.143-.054.282-.109.421-.168 1.971-.844 3.68-1.985 5.137-3.434 1.462-1.444 2.615-3.136 3.466-5.084.876-1.943 1.305-4.03 1.305-6.255ZM260.345 45.91c1.045 0 1.912-.348 2.611-1.049.695-.697 1.044-1.57 1.044-2.615 0-1.041-.349-1.91-1.044-2.603-.699-.697-1.571-1.045-2.611-1.045-1.044 0-1.92.348-2.623 1.045-.703.697-1.057 1.566-1.057 2.603 0 1.045.354 1.918 1.057 2.615.703.701 1.579 1.05 2.623 1.05ZM257.924 34.043v-4.311c0-.202-.017-.4-.026-.6-.008-.185-.012-.37-.029-.555-.009-.063-.021-.122-.03-.189a10.427 10.427 0 0 0-.821-3.048 11.212 11.212 0 0 0-2.45-3.56 11.991 11.991 0 0 0-3.584-2.405c-1.356-.6-2.808-.898-4.358-.898-1.55 0-2.998.298-4.354.898a12.198 12.198 0 0 0-3.583 2.405 11.199 11.199 0 0 0-2.451 3.56 10.62 10.62 0 0 0-.821 3.048c-.009.063-.021.122-.03.19-.021.18-.021.369-.029.553-.008.202-.029.4-.029.6v16.482h-4.826v-16.51c0-2.226.429-4.312 1.284-6.256.859-1.948 2.013-3.644 3.466-5.084 1.457-1.444 3.17-2.586 5.141-3.43.139-.058.278-.113.421-.167 1.819-.73 3.752-1.096 5.807-1.096 2.055 0 3.987.37 5.807 1.096.143.054.282.109.421.168 1.97.843 3.684 1.985 5.141 3.43a16.28 16.28 0 0 1 3.465 5.083c.855 1.944 1.285 4.03 1.285 6.255v4.337h-4.817v.004ZM6.278 14.585c.703.696 1.053 1.57 1.053 2.615 0 1.041-.35 1.906-1.053 2.603-.703.697-1.575 1.045-2.623 1.045-1.044 0-1.912-.348-2.61-1.045C.348 19.106 0 18.237 0 17.2c0-1.045.35-1.918 1.044-2.615.7-.697 1.567-1.05 2.611-1.05 1.044.004 1.92.353 2.623 1.05ZM32.402 14.51v15.545c0 2.225-.43 4.312-1.284 6.255-.86 1.948-2.013 3.64-3.466 5.084-1.457 1.444-3.166 2.59-5.137 3.434-.139.059-.278.113-.421.168-1.82.73-3.752 1.1-5.811 1.1-2.055 0-3.988-.37-5.807-1.096-.139-.054-.278-.11-.42-.168-1.971-.844-3.685-1.986-5.142-3.434-1.457-1.444-2.61-3.136-3.466-5.084C.594 34.371.164 32.284.164 30.06V25.42H4.99v4.61c0 .201.02.399.03.6.008.185.008.374.029.554.008.063.02.126.029.19.122 1.057.392 2.077.821 3.047a11.206 11.206 0 0 0 2.45 3.56 11.987 11.987 0 0 0 3.584 2.405c1.356.6 2.805.899 4.354.899 1.55 0 2.998-.298 4.358-.898a12.04 12.04 0 0 0 3.584-2.406 11.206 11.206 0 0 0 2.45-3.56c.43-.974.695-1.99.822-3.048.008-.063.02-.126.029-.189.021-.18.021-.37.03-.554.008-.201.025-.399.025-.6V14.51h4.817ZM192.476 14.544c.703.697 1.052 1.57 1.052 2.615 0 1.041-.349 1.91-1.052 2.603-.704.697-1.575 1.045-2.624 1.045-1.044 0-1.916-.348-2.61-1.045-.699-.697-1.045-1.562-1.045-2.603 0-1.045.346-1.918 1.045-2.615.694-.697 1.566-1.05 2.61-1.05 1.049 0 1.92.353 2.624 1.05ZM123.979 46.094V0h5.082v46.094h-5.082ZM187.452 25.293h5.087v20.873h-5.087V25.293ZM172.777 5.824h11.841v5.071h-11.841l-.025 18.51c0 1.624.303 3.156.913 4.596a11.755 11.755 0 0 0 6.338 6.322c1.444.61 2.985.916 4.61.916v5.067c-2.353 0-4.556-.441-6.61-1.318-2.06-.878-3.858-2.083-5.39-3.615a17.04 17.04 0 0 1-3.63-5.373c-.88-2.049-1.318-4.249-1.318-6.591L167.69.346h5.087v5.478ZM96.57 37.955a11.413 11.413 0 0 1-2.543-3.791 11.28 11.28 0 0 1-.864-4.303c0-1.457.291-2.892.864-4.303a11.35 11.35 0 0 1 2.543-3.79c1.12-1.117 2.38-1.953 3.777-2.511.345-.139.699-.26 1.049-.366.021-.008.046-.012.071-.016.295-.084.581-.156.876-.214.72-.139 1.465-.215 2.232-.215 1.587 0 3.078.294 4.488.89.704.294 1.356.643 1.963 1.046.614.415 1.196.89 1.739 1.431l.029.026a11.417 11.417 0 0 1 3.268 8.056c0 1.578-.299 3.06-.889 4.441a11.448 11.448 0 0 1-2.404 3.577h-.004a12.087 12.087 0 0 1-1.735 1.431c-.611.403-1.263.752-1.967 1.05a11.443 11.443 0 0 1-4.488.886l-.371.008a11.479 11.479 0 0 1-3.853-.819c-1.406-.558-2.66-1.398-3.78-2.514Zm23.147-14.408c-.678-1.578-1.453-2.934-2.527-4.21l.013-.013-.24-.26a15.684 15.684 0 0 0-.682-.727c-.021-.016-.038-.033-.059-.05a16.406 16.406 0 0 0-5.352-3.572c-2.004-.823-4.059-1.243-6.156-1.256a16.235 16.235 0 0 0-6.186 1.188c-2.004.798-3.81 1.999-5.42 3.59-.025.025-.058.05-.083.075-.055.05-.097.114-.148.164-.252.26-.497.529-.733.802-.109.13-.223.264-.328.399-.219.268-.421.545-.619.827-.105.15-.21.302-.312.457-.164.252-.32.512-.467.773a15.79 15.79 0 0 0-.918 1.805 15.535 15.535 0 0 0-1.288 6.347c0 .164.03.282.063.378a16.498 16.498 0 0 0 1.2 5.777 15.963 15.963 0 0 0 3.596 5.394c1.587 1.583 3.381 2.767 5.386 3.56a16.732 16.732 0 0 0 6.109 1.184l.009.02c2.244 0 4.366-.415 6.371-1.25.164-.067.311-.151.471-.223.219-.096.434-.197.64-.302.202-.1.409-.206.602-.315a14.847 14.847 0 0 0 1.98-1.297 16.447 16.447 0 0 0 1.549-1.322c1.499-1.47 2.674-3.2 3.533-5.198.859-1.994 1.288-4.135 1.288-6.414a15.923 15.923 0 0 0-1.292-6.33ZM203.541 37.955a11.415 11.415 0 0 1-2.543-3.791 11.275 11.275 0 0 1-.863-4.303c0-1.457.29-2.892.863-4.303a11.415 11.415 0 0 1 2.543-3.79c1.12-1.117 2.379-1.953 3.777-2.511.345-.139.699-.26 1.049-.366a.435.435 0 0 1 .071-.016c.291-.084.581-.156.876-.214.72-.139 1.461-.215 2.232-.215a11.4 11.4 0 0 1 4.488.89c.699.294 1.352.643 1.958 1.046.615.415 1.196.89 1.74 1.431l.029.026a11.34 11.34 0 0 1 2.379 3.58c.594 1.403.889 2.893.889 4.476 0 1.578-.295 3.06-.889 4.441a11.448 11.448 0 0 1-2.404 3.577h-.004a11.925 11.925 0 0 1-1.735 1.431c-.607.403-1.264.752-1.963 1.05-1.41.592-2.905.886-4.488.886l-.371.008a11.501 11.501 0 0 1-3.857-.819c-1.398-.558-2.657-1.398-3.777-2.514Zm23.147-14.408c-.678-1.578-1.449-2.934-2.522-4.21l.008-.013-.24-.26a15.684 15.684 0 0 0-.682-.727c-.021-.016-.038-.033-.055-.05-1.579-1.562-3.364-2.754-5.352-3.572a16.35 16.35 0 0 0-6.16-1.256 16.201 16.201 0 0 0-6.182 1.188c-2.004.798-3.815 1.999-5.423 3.59-.025.025-.055.05-.084.075-.051.05-.097.114-.152.164-.253.26-.497.529-.733.802-.109.13-.223.264-.328.399-.215.268-.421.545-.619.827a16.733 16.733 0 0 0-.779 1.23c-.333.579-.649 1.175-.918 1.805a15.536 15.536 0 0 0-1.289 6.347c0 .164.03.282.064.378.05 1.965.45 3.892 1.204 5.777a15.876 15.876 0 0 0 3.592 5.394c1.587 1.583 3.381 2.767 5.385 3.56a16.758 16.758 0 0 0 6.114 1.184l.009.02c2.24 0 4.362-.415 6.366-1.25.16-.067.316-.151.472-.223a17.161 17.161 0 0 0 1.242-.617c.295-.16.581-.331.863-.512.177-.11.346-.227.514-.344.207-.143.409-.29.602-.441a15.967 15.967 0 0 0 1.55-1.322c1.495-1.47 2.67-3.2 3.529-5.198.859-1.994 1.288-4.135 1.288-6.414a15.779 15.779 0 0 0-1.284-6.33Z" fill="#fff"/><path fill-rule="evenodd" clip-rule="evenodd" d="m61.882 44.898-21.736-30.26h-5.735l21.732 30.26h5.74Z" fill="#fff"/><path fill-rule="evenodd" clip-rule="evenodd" d="M40.036 44.898h-5.74l21.737-30.26h5.74l-21.737 30.26ZM69.256 45.973l-.998-1.297L57.659 29.89l2.94-4.097 8.623 12.027 17.407-24.277h5.879l-23.252 32.43Z" fill="#fff"/><path d="M81.807 62.701c.038.244.06.52.06.823l-.013.453c0 .118-.06.177-.177.177h-4.615c-.05 0-.072.025-.072.071.03.323.072.542.135.663.236.706.808 1.063 1.722 1.07.67 0 1.2-.272 1.592-.822.038-.059.088-.088.147-.088.038 0 .072.017.101.046l.914.747c.088.068.101.147.046.235a2.996 2.996 0 0 1-1.217 1 3.96 3.96 0 0 1-1.688.352c-.767 0-1.42-.172-1.954-.516a2.962 2.962 0 0 1-1.17-1.44c-.228-.53-.342-1.264-.342-2.204 0-.567.06-1.029.177-1.381.198-.684.569-1.226 1.112-1.625.547-.399 1.2-.596 1.966-.596 1.941.008 3.032 1.016 3.276 3.035Zm-3.272-1.557c-.362 0-.665.092-.905.273-.24.18-.408.432-.51.755a2.617 2.617 0 0 0-.117.647c-.021.05 0 .075.059.075h2.994c.05 0 .071-.025.071-.075a2.984 2.984 0 0 0-.088-.559 1.424 1.424 0 0 0-.522-.822c-.261-.198-.59-.294-.981-.294ZM91.492 59.676c.758 0 1.347.227 1.777.684.43.453.64 1.092.64 1.902v4.865a.172.172 0 0 1-.177.176h-1.339a.171.171 0 0 1-.177-.176V62.62c0-.45-.122-.806-.362-1.07-.24-.265-.564-.4-.964-.4-.404 0-.733.135-.985.4-.257.264-.384.616-.384 1.057v4.526a.172.172 0 0 1-.177.176h-1.339a.172.172 0 0 1-.176-.177v-4.508c0-.45-.122-.806-.37-1.07-.245-.265-.57-.4-.974-.4-.374 0-.682.11-.922.324-.24.214-.379.508-.42.881v4.778a.172.172 0 0 1-.177.176H83.61a.171.171 0 0 1-.177-.176v-7.158a.171.171 0 0 1 .177-.176h1.355a.172.172 0 0 1 .177.176v.487c0 .03.009.05.03.059.02.008.038 0 .059-.03.214-.273.484-.478.804-.608.32-.135.674-.198 1.07-.198.48 0 .905.097 1.267.294a2 2 0 0 1 .838.852c.03.038.063.038.1 0 .216-.39.519-.68.902-.869.379-.197.808-.29 1.28-.29ZM102.028 61.733c.177.5.265 1.112.265 1.839 0 .696-.084 1.293-.253 1.792-.214.647-.564 1.15-1.04 1.511-.475.361-1.078.542-1.806.542-.7 0-1.26-.248-1.68-.747-.021-.021-.038-.026-.06-.017-.02.008-.029.03-.029.059v3.19a.172.172 0 0 1-.177.176h-1.355a.171.171 0 0 1-.177-.176V59.97a.171.171 0 0 1 .177-.176h1.356a.172.172 0 0 1 .176.176v.44c0 .03.009.05.03.06.02.008.038 0 .059-.03.434-.508.998-.764 1.697-.764.699 0 1.288.18 1.768.545.485.362.834.865 1.049 1.512Zm-1.916 3.598c.295-.45.442-1.05.442-1.793 0-.714-.118-1.276-.354-1.688-.273-.478-.695-.718-1.255-.718-.509 0-.892.236-1.149.706-.227.382-.337.948-.337 1.704 0 .773.122 1.36.37 1.763.258.433.624.647 1.104.647.522-.004.914-.21 1.179-.621ZM107.085 67.416c-.775 0-1.44-.198-1.996-.588-.556-.39-.947-.936-1.17-1.633a5.47 5.47 0 0 1-.253-1.675c0-.626.08-1.184.236-1.675.227-.684.619-1.222 1.179-1.604.56-.382 1.234-.575 2.021-.575.745 0 1.394.193 1.937.575.547.382.931.911 1.158 1.587.177.47.265 1.028.265 1.675 0 .617-.084 1.175-.252 1.675-.228.697-.615 1.243-1.163 1.637-.555.403-1.208.6-1.962.6Zm0-1.47c.362 0 .674-.105.935-.31.261-.206.451-.496.568-.87.097-.323.148-.734.148-1.234 0-.528-.051-.94-.148-1.234-.109-.373-.294-.659-.56-.86-.265-.202-.589-.303-.972-.303-.362 0-.678.101-.944.303-.265.201-.458.487-.572.86a4.582 4.582 0 0 0-.148 1.234c0 .479.051.89.148 1.235.109.373.299.663.568.869.266.21.594.31.977.31ZM113.494 67.3c-.11 0-.177-.05-.207-.147l-2.109-7.17-.013-.059c0-.096.055-.147.16-.147h1.402c.11 0 .177.05.207.147l1.221 4.908c.008.03.025.042.042.042.021 0 .033-.013.046-.042l1.28-4.908c.03-.096.097-.147.207-.147h1.225c.109 0 .177.05.206.147l1.31 4.908c.008.03.025.042.046.042.021 0 .034-.013.042-.042l1.31-4.908c.029-.096.097-.147.206-.147l1.385.03c.059 0 .101.017.127.05.025.034.033.08.021.139l-2.122 7.153c-.03.097-.093.147-.194.147h-1.415c-.109 0-.177-.05-.206-.147l-1.297-4.48c-.009-.029-.025-.041-.042-.041-.021 0-.034.012-.047.042l-1.191 4.48c-.03.096-.097.146-.207.146h-1.393v.004ZM128.88 62.701c.038.244.059.52.059.823l-.017.453c0 .118-.059.177-.177.177h-4.615c-.05 0-.071.025-.071.071.029.323.071.542.134.663.236.706.809 1.063 1.722 1.07.67 0 1.201-.272 1.592-.822.038-.059.089-.088.148-.088.037 0 .071.017.101.046l.913.747c.089.068.101.147.042.235a2.994 2.994 0 0 1-1.216 1 3.965 3.965 0 0 1-1.689.352c-.766 0-1.419-.172-1.954-.516a2.958 2.958 0 0 1-1.17-1.44c-.228-.53-.337-1.264-.337-2.204 0-.567.059-1.029.177-1.381.197-.684.568-1.226 1.111-1.625s1.2-.596 1.967-.596c1.945.008 3.036 1.016 3.28 3.035Zm-3.272-1.557c-.362 0-.665.092-.905.273-.24.18-.409.432-.51.755a2.616 2.616 0 0 0-.118.647c-.021.05 0 .075.059.075h2.994c.051 0 .072-.025.072-.075a2.958 2.958 0 0 0-.089-.559 1.422 1.422 0 0 0-.522-.822c-.261-.198-.589-.294-.981-.294ZM134.008 59.705c.316 0 .589.063.825.193.08.038.11.113.089.223l-.253 1.322c-.008.118-.08.151-.206.105a1.605 1.605 0 0 0-.518-.076c-.127 0-.228.005-.295.017-.413.021-.758.164-1.032.433-.273.268-.412.62-.412 1.05v4.16a.172.172 0 0 1-.177.176h-1.356a.17.17 0 0 1-.126-.05.17.17 0 0 1-.051-.127v-7.157a.17.17 0 0 1 .051-.126.17.17 0 0 1 .126-.05h1.356a.172.172 0 0 1 .177.176v.663c0 .038.008.063.021.067.012.004.033-.008.05-.038.421-.642.994-.96 1.731-.96ZM137.015 58.764c-.303 0-.556-.096-.75-.293a1.013 1.013 0 0 1-.294-.752c0-.302.097-.554.294-.751.198-.198.447-.294.75-.294s.556.096.754.294c.198.197.294.445.294.751 0 .302-.096.554-.294.752a1.041 1.041 0 0 1-.754.293Zm-.707 8.535a.173.173 0 0 1-.127-.05.173.173 0 0 1-.05-.126v-7.17a.173.173 0 0 1 .177-.177h1.355a.173.173 0 0 1 .177.176v7.17c0 .051-.017.093-.05.127a.173.173 0 0 1-.127.05h-1.355ZM143.411 59.676c.796 0 1.431.235 1.907.705s.716 1.112.716 1.923v4.82a.17.17 0 0 1-.051.125.17.17 0 0 1-.126.05h-1.356a.172.172 0 0 1-.177-.176v-4.467c0-.449-.126-.814-.383-1.095-.257-.282-.593-.42-1.019-.42-.421 0-.762.138-1.023.411-.261.273-.392.638-.392 1.088v4.479a.172.172 0 0 1-.176.176h-1.356a.173.173 0 0 1-.177-.176V59.96c0-.05.017-.092.05-.126a.173.173 0 0 1 .127-.05h1.356a.172.172 0 0 1 .176.176v.47c0 .03.009.05.03.06.021.008.034 0 .042-.03.408-.52 1.015-.785 1.832-.785ZM152.431 59.968c0-.05.017-.092.05-.126a.173.173 0 0 1 .127-.05h1.356a.172.172 0 0 1 .176.176v6.835c0 1.225-.349 2.099-1.052 2.623-.703.525-1.626.785-2.762.785-.304 0-.603-.016-.902-.046-.109-.008-.164-.075-.164-.193l.042-1.205c0-.109.068-.163.207-.163.286.029.539.042.766.042.737 0 1.28-.143 1.63-.433.349-.29.522-.776.522-1.46v-.118c0-.03-.009-.046-.03-.05-.021-.005-.038.004-.059.02-.404.433-.972.647-1.709.647-.64 0-1.221-.16-1.752-.483-.531-.323-.901-.819-1.103-1.486-.127-.462-.194-1.054-.194-1.78 0-.814.08-1.436.236-1.868a2.854 2.854 0 0 1 1.015-1.432c.48-.357 1.044-.537 1.692-.537.775 0 1.382.227 1.811.676.021.03.038.038.059.03.021-.01.029-.03.029-.06v-.344h.009Zm-.101 4.832c.038-.147.067-.306.08-.478.017-.172.021-.45.021-.832 0-.373-.009-.638-.021-.801a2.095 2.095 0 0 0-.097-.479 1.422 1.422 0 0 0-.48-.78c-.24-.198-.547-.295-.922-.295-.354 0-.653.097-.901.294a1.663 1.663 0 0 0-.531.781c-.118.273-.177.705-.177 1.293 0 .609.051 1.033.148 1.28.097.315.278.571.539.773.261.201.572.302.934.302.384 0 .691-.096.927-.294.244-.193.4-.449.48-.764ZM165.008 59.675c.796 0 1.432.236 1.908.706.475.47.715 1.112.715 1.922v4.82a.172.172 0 0 1-.176.176h-1.356a.173.173 0 0 1-.127-.05.173.173 0 0 1-.05-.126v-4.467c0-.45-.127-.814-.383-1.096-.257-.28-.594-.42-1.015-.42-.421 0-.762.14-1.023.412-.261.273-.392.638-.392 1.087v4.48a.17.17 0 0 1-.051.126.17.17 0 0 1-.126.05h-1.356a.172.172 0 0 1-.177-.176v-9.933a.173.173 0 0 1 .177-.176h1.356a.17.17 0 0 1 .126.05.17.17 0 0 1 .051.126v3.25c0 .029.008.05.029.058.022.008.034 0 .043-.03.404-.524 1.014-.788 1.827-.788ZM175.708 62.701c.038.244.059.52.059.823l-.013.453c0 .118-.059.177-.176.177h-4.611c-.051 0-.076.025-.076.071.029.323.076.542.135.663.235.706.808 1.063 1.726 1.07.67 0 1.2-.272 1.592-.822.038-.059.088-.088.147-.088a.15.15 0 0 1 .105.046l.914.747c.089.068.101.147.042.235a2.99 2.99 0 0 1-1.217 1 3.957 3.957 0 0 1-1.688.352c-.767 0-1.419-.172-1.954-.516a2.965 2.965 0 0 1-1.171-1.44c-.227-.53-.336-1.264-.336-2.204 0-.567.058-1.029.176-1.381.198-.684.569-1.226 1.112-1.625.547-.399 1.2-.596 1.966-.596 1.933.008 3.024 1.016 3.268 3.035Zm-3.272-1.557c-.362 0-.665.092-.905.273-.24.18-.408.432-.51.755a2.621 2.621 0 0 0-.117.647c-.022.05 0 .075.058.075h2.99c.051 0 .076-.025.076-.075a3.058 3.058 0 0 0-.088-.559 1.429 1.429 0 0 0-.523-.822c-.261-.198-.585-.294-.981-.294ZM180.129 59.676c.619 0 1.163.109 1.638.323.472.214.834.512 1.091.89s.383.806.383 1.285v4.953a.173.173 0 0 1-.177.177h-1.356a.172.172 0 0 1-.176-.177v-.47c0-.03-.009-.046-.03-.05-.021-.004-.038.004-.059.02-.48.53-1.179.794-2.093.794-.737 0-1.343-.185-1.819-.558-.476-.374-.716-.924-.716-1.663 0-.764.27-1.36.805-1.784.534-.428 1.288-.638 2.261-.638h1.575c.05 0 .076-.025.076-.075v-.353c0-.382-.114-.68-.337-.89-.228-.21-.565-.315-1.015-.315-.375 0-.674.067-.905.197a.862.862 0 0 0-.434.55c-.03.118-.097.168-.207.147l-1.431-.176a.288.288 0 0 1-.127-.05c-.033-.026-.046-.055-.037-.097.08-.596.4-1.087.964-1.47.564-.381 1.272-.57 2.126-.57Zm-.353 6.39c.48 0 .892-.127 1.238-.383.345-.256.513-.58.513-.97v-.688c0-.05-.025-.076-.075-.076h-1.238c-.523 0-.931.097-1.23.294a.945.945 0 0 0-.451.836c0 .315.114.554.346.726.236.176.534.26.897.26ZM185.127 67.3a.17.17 0 0 1-.126-.05.17.17 0 0 1-.051-.126v-9.932a.17.17 0 0 1 .051-.126.17.17 0 0 1 .126-.05h1.356a.17.17 0 0 1 .126.05.17.17 0 0 1 .051.126v9.932a.17.17 0 0 1-.051.126.17.17 0 0 1-.126.05h-1.356ZM192.466 60.998c0 .05-.017.093-.05.126a.173.173 0 0 1-.127.05h-1.503c-.05 0-.071.026-.071.076v3.539c0 .374.08.642.244.806.16.168.421.248.775.248h.442a.172.172 0 0 1 .177.176v1.1c0 .11-.059.172-.177.193l-.767.017c-.774 0-1.355-.134-1.739-.399-.383-.264-.581-.764-.589-1.499v-4.185c0-.05-.025-.076-.076-.076h-.838a.17.17 0 0 1-.126-.05.17.17 0 0 1-.051-.126v-1.029a.17.17 0 0 1 .051-.125.17.17 0 0 1 .126-.05h.838c.051 0 .076-.026.076-.072v-1.721c0-.05.017-.093.05-.126a.173.173 0 0 1 .127-.05h1.284a.17.17 0 0 1 .126.05.17.17 0 0 1 .051.126v1.72c0 .051.025.072.071.072h1.499a.173.173 0 0 1 .177.176v1.033ZM197.596 59.675c.796 0 1.432.236 1.908.706s.716 1.112.716 1.922v4.82a.172.172 0 0 1-.177.176h-1.356a.17.17 0 0 1-.126-.05.17.17 0 0 1-.051-.126v-4.467c0-.45-.126-.814-.383-1.096-.257-.28-.594-.42-1.019-.42-.421 0-.762.14-1.023.412-.261.273-.392.638-.392 1.087v4.48a.17.17 0 0 1-.051.126.17.17 0 0 1-.126.05h-1.356a.172.172 0 0 1-.177-.176v-9.933a.173.173 0 0 1 .177-.176h1.356a.17.17 0 0 1 .126.05.17.17 0 0 1 .051.126v3.25c0 .029.008.05.029.058.022.008.034 0 .047-.03.4-.524 1.01-.788 1.827-.788ZM214.296 61.733c.177.5.265 1.112.265 1.839 0 .696-.084 1.293-.248 1.792-.215.647-.564 1.15-1.04 1.511-.476.361-1.078.542-1.807.542-.699 0-1.259-.248-1.68-.747-.021-.021-.038-.026-.059-.017-.021.008-.029.03-.029.059v3.19a.17.17 0 0 1-.051.126.17.17 0 0 1-.126.05h-1.356a.17.17 0 0 1-.126-.05.17.17 0 0 1-.051-.126V59.97a.17.17 0 0 1 .051-.126.17.17 0 0 1 .126-.05h1.356a.17.17 0 0 1 .126.05.17.17 0 0 1 .051.126v.44c0 .03.008.05.029.06.021.008.038 0 .059-.03.434-.508.998-.764 1.693-.764.699 0 1.289.18 1.769.545.484.362.833.865 1.048 1.512Zm-1.916 3.598c.295-.45.442-1.05.442-1.793 0-.714-.118-1.276-.353-1.688-.274-.478-.695-.718-1.255-.718-.51 0-.893.236-1.15.706-.227.382-.337.948-.337 1.704 0 .773.122 1.36.371 1.763.257.433.623.647 1.103.647.522-.004.914-.21 1.179-.621ZM219.72 59.705c.315 0 .589.063.825.193.08.038.109.113.088.223l-.252 1.322c-.009.118-.08.151-.207.105a1.59 1.59 0 0 0-.513-.076c-.127 0-.228.005-.295.017-.413.021-.758.164-1.032.433-.274.268-.413.62-.413 1.05v4.16a.172.172 0 0 1-.176.176h-1.356a.173.173 0 0 1-.177-.177v-7.157c0-.05.017-.093.05-.126a.173.173 0 0 1 .127-.05h1.356a.172.172 0 0 1 .176.176v.663c0 .038.009.063.022.067.016.004.033-.008.05-.038.417-.642.99-.96 1.727-.96ZM224.806 67.416c-.775 0-1.441-.198-1.996-.588-.556-.39-.948-.936-1.171-1.633a5.499 5.499 0 0 1-.248-1.675c0-.626.08-1.184.235-1.675.228-.684.619-1.222 1.179-1.604.56-.382 1.234-.575 2.017-.575.746 0 1.394.193 1.937.575.544.382.931.911 1.158 1.587.177.47.266 1.028.266 1.675a5.35 5.35 0 0 1-.249 1.675c-.227.697-.615 1.243-1.166 1.637-.552.403-1.209.6-1.962.6Zm0-1.47c.362 0 .673-.105.934-.31.261-.206.451-.496.569-.87.097-.323.147-.734.147-1.234 0-.528-.05-.94-.147-1.234-.11-.373-.295-.659-.56-.86-.265-.202-.59-.303-.973-.303-.362 0-.678.101-.943.303-.265.201-.459.487-.573.86a4.585 4.585 0 0 0-.147 1.234c0 .479.05.89.147 1.235.11.373.299.663.569.869.265.21.593.31.977.31ZM230.714 58.764c-.303 0-.556-.096-.754-.293a1.01 1.01 0 0 1-.295-.752c0-.302.097-.554.295-.751.198-.198.446-.294.754-.294.303 0 .556.096.753.294.198.197.295.445.295.751 0 .302-.097.554-.295.752a1.03 1.03 0 0 1-.753.293Zm-2.4 11.55c-.118 0-.177-.06-.177-.177V69.05c0-.118.063-.172.193-.164.56.008.96-.092 1.196-.302s.354-.555.354-1.037l-.017-7.582a.17.17 0 0 1 .051-.126.17.17 0 0 1 .126-.05h1.356a.173.173 0 0 1 .177.176v7.57c0 .713-.101 1.271-.303 1.674-.203.403-.535.693-1.003.87-.467.175-1.12.251-1.953.234ZM239.851 62.701c.038.244.059.52.059.823l-.017.453c0 .118-.059.177-.177.177h-4.615c-.051 0-.072.025-.072.071.03.323.072.542.135.663.236.706.808 1.063 1.726 1.07.67 0 1.201-.272 1.592-.822.038-.059.089-.088.147-.088.038 0 .072.017.106.046l.913.747c.089.068.102.147.047.235a2.997 2.997 0 0 1-1.217 1 3.962 3.962 0 0 1-1.689.352c-.766 0-1.419-.172-1.953-.516a2.96 2.96 0 0 1-1.171-1.44c-.227-.53-.337-1.264-.337-2.204 0-.567.059-1.029.177-1.381.198-.684.568-1.226 1.112-1.625.547-.399 1.2-.596 1.966-.596 1.933.008 3.023 1.016 3.268 3.035Zm-3.272-1.557c-.362 0-.665.092-.905.273-.24.18-.409.432-.51.755a2.616 2.616 0 0 0-.118.647c-.021.05 0 .075.059.075h2.994c.05 0 .072-.025.072-.075a3.043 3.043 0 0 0-.089-.559 1.422 1.422 0 0 0-.522-.822c-.261-.198-.585-.294-.981-.294ZM244.613 67.417c-.758 0-1.41-.193-1.962-.58a2.986 2.986 0 0 1-1.15-1.565c-.155-.44-.235-1.029-.235-1.763 0-.705.08-1.285.235-1.734a2.857 2.857 0 0 1 1.142-1.536c.555-.378 1.212-.567 1.966-.567.766 0 1.436.193 2.004.575.569.382.948.86 1.137 1.44.051.155.084.315.101.47v.03c0 .096-.054.155-.164.176l-1.326.189h-.03c-.088 0-.147-.05-.177-.147a.456.456 0 0 0-.012-.118c-.021-.08-.038-.147-.059-.206a1.28 1.28 0 0 0-.531-.675 1.666 1.666 0 0 0-.943-.265c-.375 0-.691.097-.952.286a1.374 1.374 0 0 0-.522.785c-.097.314-.147.747-.147 1.305 0 .538.042.974.13 1.31.097.344.274.613.531.814.257.202.573.303.96.303.375 0 .695-.097.964-.286.27-.189.447-.449.522-.772a.17.17 0 0 0 .013-.072.07.07 0 0 0 .017-.046c.029-.117.097-.168.206-.147l1.327.206c.05.008.092.034.126.067.034.034.046.08.038.139a2.599 2.599 0 0 1-1.213 1.826c-.564.374-1.229.558-1.996.558ZM253.291 60.998a.173.173 0 0 1-.176.176h-1.504c-.05 0-.071.026-.071.076v3.539c0 .374.08.642.244.806.164.168.421.248.775.248h.442a.17.17 0 0 1 .126.05.17.17 0 0 1 .051.126v1.1c0 .11-.059.172-.177.193l-.766.017c-.775 0-1.356-.134-1.739-.399-.384-.264-.582-.764-.59-1.499v-4.185c0-.05-.025-.076-.076-.076h-.838a.172.172 0 0 1-.177-.176v-1.029a.172.172 0 0 1 .177-.176h.838c.051 0 .076-.025.076-.071v-1.721a.17.17 0 0 1 .051-.126.17.17 0 0 1 .126-.05h1.284a.17.17 0 0 1 .126.05.17.17 0 0 1 .051.126v1.72c0 .051.025.072.072.072h1.503a.172.172 0 0 1 .177.176v1.033h-.005ZM257.612 67.388c-.619 0-1.163-.093-1.63-.273-.467-.18-.83-.432-1.082-.747a1.65 1.65 0 0 1-.383-1.067v-.134a.172.172 0 0 1 .176-.176h1.297a.173.173 0 0 1 .177.176v.03c0 .243.135.457.404.638.27.18.611.272 1.024.272.391 0 .711-.08.96-.243.244-.16.37-.365.37-.609a.547.547 0 0 0-.303-.508c-.202-.113-.526-.23-.981-.36l-.56-.177a8.206 8.206 0 0 1-1.267-.47 2.532 2.532 0 0 1-.872-.685c-.236-.29-.354-.659-.354-1.108 0-.684.27-1.23.813-1.637.539-.407 1.25-.609 2.135-.609.598 0 1.124.097 1.575.286.45.193.8.457 1.044.793s.37.722.37 1.154a.173.173 0 0 1-.176.176h-1.251a.17.17 0 0 1-.126-.05.17.17 0 0 1-.051-.126c0-.256-.126-.465-.375-.638-.252-.172-.593-.256-1.023-.256-.383 0-.695.072-.935.214-.24.143-.362.34-.362.597 0 .235.114.415.345.537.232.122.615.256 1.158.403l.325.088c.522.155.955.315 1.309.479.354.163.653.386.901.676.245.29.371.663.371 1.125 0 .697-.274 1.242-.825 1.637-.552.394-1.285.592-2.198.592ZM77.239 82.413c-.11 0-.177-.05-.207-.146l-2.11-7.17-.012-.06c0-.096.055-.146.16-.146h1.402c.11 0 .177.05.207.147l1.22 4.907c.01.03.026.042.047.042s.034-.013.042-.042l1.28-4.907c.03-.097.097-.147.207-.147h1.23c.109 0 .176.05.206.147l1.313 4.907c.009.03.026.042.047.042.02 0 .033-.013.042-.042l1.313-4.907c.03-.097.097-.147.207-.147l1.385.029c.06 0 .101.017.126.05.026.034.034.08.022.139l-2.123 7.153c-.03.097-.092.147-.193.147h-1.415c-.11 0-.177-.05-.207-.147l-1.296-4.479c-.009-.03-.026-.042-.047-.042-.02 0-.033.013-.042.042l-1.196 4.48c-.03.096-.097.146-.206.146h-1.402v.004ZM87.644 73.877c-.303 0-.556-.096-.75-.293a1.008 1.008 0 0 1-.294-.748c0-.302.097-.554.294-.751.198-.197.447-.294.75-.294s.556.097.75.294c.197.197.294.445.294.751 0 .303-.097.555-.295.748a1.023 1.023 0 0 1-.75.293Zm-.708 8.535a.172.172 0 0 1-.176-.176v-7.17a.171.171 0 0 1 .176-.177h1.356a.172.172 0 0 1 .177.177v7.17a.172.172 0 0 1-.177.176h-1.356ZM94.423 76.112a.172.172 0 0 1-.177.176h-1.503c-.05 0-.076.025-.076.076v3.539c0 .373.08.642.245.806.164.168.42.247.774.247h.443a.172.172 0 0 1 .176.177v1.1c0 .109-.059.172-.176.193l-.767.012c-.775 0-1.356-.134-1.739-.399-.383-.264-.58-.764-.59-1.498v-4.186c0-.05-.025-.075-.07-.075h-.839a.172.172 0 0 1-.177-.177v-1.028a.172.172 0 0 1 .177-.176h.838c.05 0 .072-.026.072-.072v-1.721a.172.172 0 0 1 .177-.176h1.284a.172.172 0 0 1 .177.176v1.721c0 .05.025.072.075.072h1.504a.172.172 0 0 1 .176.176v1.037h-.004ZM99.551 74.788c.796 0 1.432.236 1.908.706s.716 1.112.716 1.922v4.82a.173.173 0 0 1-.177.176h-1.356a.17.17 0 0 1-.126-.05.17.17 0 0 1-.051-.126v-4.467c0-.45-.126-.814-.383-1.096-.257-.28-.594-.42-1.02-.42-.42 0-.761.14-1.022.412-.261.273-.392.638-.392 1.087v4.484a.172.172 0 0 1-.177.176h-1.356a.172.172 0 0 1-.176-.176v-9.933a.172.172 0 0 1 .177-.176h1.355a.172.172 0 0 1 .177.176v3.245c0 .03.008.05.03.06.02.007.033 0 .042-.03.408-.525 1.014-.79 1.831-.79ZM110.517 74.788c.796 0 1.432.236 1.907.706.476.47.716 1.112.716 1.922v4.82c0 .05-.017.092-.05.126a.173.173 0 0 1-.127.05h-1.356a.173.173 0 0 1-.176-.176v-4.467c0-.45-.127-.814-.384-1.096-.256-.28-.593-.42-1.014-.42-.421 0-.763.14-1.024.412-.261.273-.391.638-.391 1.087v4.484a.17.17 0 0 1-.051.126.17.17 0 0 1-.126.05h-1.356a.17.17 0 0 1-.126-.05.17.17 0 0 1-.051-.126v-9.933a.17.17 0 0 1 .051-.126.17.17 0 0 1 .126-.05h1.356a.17.17 0 0 1 .126.05.17.17 0 0 1 .051.126v3.245c0 .03.008.05.029.06.021.007.034 0 .042-.03.405-.525 1.011-.79 1.828-.79ZM119.376 75.083c0-.05.017-.093.05-.126a.173.173 0 0 1 .127-.05h1.343a.17.17 0 0 1 .126.05.17.17 0 0 1 .051.126v7.157a.17.17 0 0 1-.051.127.17.17 0 0 1-.126.05h-1.343a.173.173 0 0 1-.127-.05.173.173 0 0 1-.05-.127v-.47c0-.03-.009-.05-.03-.058-.021-.009-.038 0-.059.029-.404.52-1.006.777-1.81.777-.746 0-1.373-.215-1.878-.647-.506-.432-.758-1.045-.758-1.839V75.08c0-.05.017-.093.05-.126a.173.173 0 0 1 .127-.05h1.356a.172.172 0 0 1 .176.176v4.466c0 .462.123.827.363 1.1.24.273.576.412 1.01.412.442 0 .796-.139 1.061-.412.266-.273.4-.642.4-1.1v-4.462h-.008ZM130.959 74.79c.758 0 1.348.226 1.777.683.43.454.64 1.092.64 1.902v4.866a.172.172 0 0 1-.176.176h-1.339a.173.173 0 0 1-.177-.176v-4.51c0-.448-.122-.805-.362-1.074-.24-.264-.565-.399-.965-.399-.404 0-.732.135-.989.4-.257.264-.383.616-.383 1.057v4.526a.172.172 0 0 1-.177.176h-1.343a.173.173 0 0 1-.177-.176v-4.51c0-.448-.122-.805-.371-1.074-.244-.264-.568-.399-.973-.399-.374 0-.682.11-.922.324-.24.214-.379.508-.421.881v4.778a.173.173 0 0 1-.177.176h-1.356a.172.172 0 0 1-.176-.176v-7.158a.172.172 0 0 1 .176-.176h1.356a.173.173 0 0 1 .177.176v.487c0 .03.009.05.03.059.021.008.038 0 .059-.03a1.94 1.94 0 0 1 .804-.608c.32-.135.674-.198 1.069-.198.48 0 .906.097 1.268.294.362.197.644.479.838.852.029.038.063.038.101 0 .215-.39.514-.68.897-.869a2.927 2.927 0 0 1 1.292-.28ZM137.988 74.79c.619 0 1.166.108 1.638.322.471.214.833.513 1.09.89.257.378.383.806.383 1.285v4.954a.172.172 0 0 1-.176.176h-1.356a.173.173 0 0 1-.177-.176v-.47c0-.03-.009-.047-.03-.051-.021-.004-.037.004-.059.021-.48.529-1.179.793-2.092.793-.737 0-1.344-.184-1.819-.558-.476-.373-.716-.924-.716-1.662 0-.764.269-1.36.804-1.784.535-.429 1.289-.639 2.261-.639h1.575c.051 0 .076-.025.076-.075v-.353c0-.382-.114-.68-.341-.89-.228-.21-.564-.315-1.015-.315-.375 0-.674.068-.905.198a.862.862 0 0 0-.434.55c-.029.117-.097.168-.206.147l-1.432-.177a.28.28 0 0 1-.126-.05c-.034-.025-.047-.055-.038-.097.08-.596.4-1.087.964-1.469.564-.382 1.276-.57 2.131-.57Zm-.354 6.388c.48 0 .893-.126 1.238-.382s.518-.579.518-.97v-.688c0-.05-.025-.075-.076-.075h-1.238c-.522 0-.93.096-1.229.293a.945.945 0 0 0-.451.836c0 .315.114.554.345.726.232.176.531.26.893.26ZM146.417 74.79c.796 0 1.432.234 1.908.704s.716 1.113.716 1.923v4.82a.172.172 0 0 1-.177.176h-1.356a.17.17 0 0 1-.126-.05.17.17 0 0 1-.051-.127V77.77c0-.45-.126-.815-.383-1.096-.257-.281-.594-.42-1.015-.42-.421 0-.762.139-1.023.412-.261.273-.392.638-.392 1.087v4.483a.173.173 0 0 1-.177.177h-1.356a.172.172 0 0 1-.176-.177V75.08a.172.172 0 0 1 .176-.176h1.356a.173.173 0 0 1 .177.176v.47c0 .03.009.05.03.059.021.008.033 0 .042-.03.404-.525 1.01-.789 1.827-.789ZM150.502 78.727a.17.17 0 0 1-.126-.05.17.17 0 0 1-.051-.126v-1.117a.17.17 0 0 1 .051-.126.17.17 0 0 1 .126-.05h4.645a.172.172 0 0 1 .176.176v1.117a.172.172 0 0 1-.176.176h-4.645ZM160.701 82.53c-.758 0-1.411-.193-1.962-.579a2.986 2.986 0 0 1-1.15-1.566c-.155-.44-.235-1.028-.235-1.763 0-.705.08-1.284.235-1.734a2.86 2.86 0 0 1 1.141-1.536c.556-.378 1.213-.567 1.967-.567.766 0 1.436.193 2.004.575.569.382.948.86 1.137 1.44.051.156.084.315.101.47v.03c0 .096-.055.155-.164.176l-1.326.189h-.03c-.088 0-.147-.05-.177-.147a.295.295 0 0 0-.017-.118c-.021-.08-.038-.146-.059-.205a1.273 1.273 0 0 0-.53-.676 1.667 1.667 0 0 0-.943-.265c-.375 0-.691.097-.952.286a1.37 1.37 0 0 0-.522.785c-.097.315-.147.747-.147 1.306 0 .537.046.974.134 1.31.097.344.274.612.531.814.257.201.572.302.96.302.375 0 .695-.097.964-.285.27-.19.446-.45.522-.773a.184.184 0 0 0 .013-.071c.008-.009.013-.025.013-.046.029-.118.096-.168.206-.147l1.326.205a.233.233 0 0 1 .127.067c.033.034.046.08.037.139a2.607 2.607 0 0 1-1.212 1.826c-.556.374-1.226.559-1.992.559ZM171.665 77.814c.038.244.059.521.059.823l-.012.454c0 .117-.059.176-.177.176h-4.615c-.051 0-.072.025-.072.071.03.324.072.542.135.664.236.705.808 1.062 1.726 1.07.67 0 1.2-.273 1.592-.823.038-.058.089-.088.147-.088.038 0 .076.017.106.046l.913.748c.089.067.102.147.043.235a3.003 3.003 0 0 1-1.217.999 3.963 3.963 0 0 1-1.689.353c-.766 0-1.419-.173-1.954-.517a2.963 2.963 0 0 1-1.17-1.44c-.228-.529-.341-1.263-.341-2.204 0-.567.059-1.028.177-1.38.197-.685.568-1.227 1.111-1.626.548-.398 1.2-.596 1.967-.596 1.937.009 3.027 1.016 3.271 3.035Zm-3.271-1.557c-.363 0-.666.092-.906.273-.24.18-.408.432-.509.755a2.614 2.614 0 0 0-.118.647c-.021.05 0 .076.059.076h2.994c.05 0 .076-.026.076-.076a3.041 3.041 0 0 0-.089-.558 1.422 1.422 0 0 0-.522-.823c-.265-.197-.594-.294-.985-.294ZM176.9 74.79c.796 0 1.431.234 1.907.704s.716 1.113.716 1.923v4.82a.17.17 0 0 1-.051.125.17.17 0 0 1-.126.05h-1.356a.172.172 0 0 1-.177-.176V77.77c0-.45-.126-.815-.383-1.096-.257-.281-.594-.42-1.015-.42-.421 0-.762.139-1.023.412-.261.273-.391.638-.391 1.087v4.483a.172.172 0 0 1-.177.176h-1.356a.17.17 0 0 1-.126-.05.17.17 0 0 1-.051-.126V75.08a.17.17 0 0 1 .051-.126.17.17 0 0 1 .126-.05h1.356a.172.172 0 0 1 .177.176v.47c0 .03.008.05.029.059.021.008.034 0 .042-.03.4-.525 1.011-.789 1.828-.789ZM185.3 76.112a.172.172 0 0 1-.177.176h-1.503c-.051 0-.076.025-.076.076v3.539c0 .373.08.642.244.806.164.168.421.247.775.247h.442a.172.172 0 0 1 .177.177v1.1c0 .109-.059.172-.177.193l-.767.012c-.774 0-1.355-.134-1.739-.399-.383-.264-.581-.764-.589-1.498v-4.186c0-.05-.025-.075-.076-.075h-.838a.172.172 0 0 1-.177-.177v-1.028a.173.173 0 0 1 .177-.176h.838c.051 0 .076-.026.076-.072v-1.721a.173.173 0 0 1 .177-.176h1.28a.172.172 0 0 1 .177.176v1.721c0 .05.025.072.076.072h1.503a.173.173 0 0 1 .177.176v1.037ZM193.023 77.814c.038.244.059.521.059.823l-.013.454c0 .117-.059.176-.177.176h-4.611c-.05 0-.075.025-.075.071.029.324.075.542.134.664.236.705.813 1.062 1.727 1.07.669 0 1.2-.273 1.592-.823.037-.058.088-.088.147-.088.038 0 .076.017.101.046l.914.748c.088.067.101.147.042.235a2.997 2.997 0 0 1-1.217.999 3.96 3.96 0 0 1-1.689.353c-.766 0-1.419-.173-1.953-.517a2.96 2.96 0 0 1-1.171-1.44c-.227-.529-.337-1.263-.337-2.204 0-.567.059-1.028.177-1.38.198-.685.568-1.227 1.112-1.626.547-.398 1.2-.596 1.966-.596 1.933.009 3.023 1.016 3.272 3.035Zm-3.272-1.557c-.362 0-.665.092-.905.273-.24.18-.409.432-.51.755a2.614 2.614 0 0 0-.118.647c-.021.05 0 .076.059.076h2.99c.05 0 .071-.026.071-.076a2.971 2.971 0 0 0-.088-.558 1.422 1.422 0 0 0-.522-.823c-.261-.197-.585-.294-.977-.294ZM198.151 74.818c.316 0 .59.063.825.194.08.037.11.113.089.222l-.253 1.322c-.008.118-.08.151-.206.101a1.597 1.597 0 0 0-.514-.071c-.126 0-.227.004-.295.017-.412.02-.758.163-1.031.432-.274.269-.413.621-.413 1.05v4.16a.173.173 0 0 1-.177.176h-1.356a.172.172 0 0 1-.176-.176v-7.158a.172.172 0 0 1 .176-.176h1.356a.173.173 0 0 1 .177.176v.663c0 .038.009.063.021.067.017.005.034-.008.051-.037.412-.643.989-.962 1.726-.962ZM206.388 77.814c.038.244.059.521.059.823l-.013.454c0 .117-.059.176-.176.176h-4.611c-.051 0-.076.025-.076.071.029.324.076.542.13.664.236.705.813 1.062 1.727 1.07.669 0 1.2-.273 1.592-.823.037-.058.088-.088.147-.088.038 0 .071.017.105.046l.914.748c.088.067.101.147.046.235a2.99 2.99 0 0 1-1.217.999 3.956 3.956 0 0 1-1.688.353c-.767 0-1.419-.173-1.954-.517a2.965 2.965 0 0 1-1.171-1.44c-.227-.529-.341-1.263-.341-2.204 0-.567.059-1.028.177-1.38.198-.685.569-1.227 1.112-1.626.547-.398 1.2-.596 1.966-.596 1.937.009 3.028 1.016 3.272 3.035Zm-3.272-1.557c-.362 0-.665.092-.905.273-.24.18-.409.432-.51.755a2.62 2.62 0 0 0-.117.647c-.022.05 0 .076.058.076h2.99c.051 0 .072-.026.072-.076a2.957 2.957 0 0 0-.089-.558 1.422 1.422 0 0 0-.522-.823c-.257-.197-.585-.294-.977-.294ZM212.683 72.303c0-.05.017-.092.05-.126a.173.173 0 0 1 .127-.05h1.356a.172.172 0 0 1 .176.176v9.933a.173.173 0 0 1-.176.176h-1.356a.173.173 0 0 1-.127-.05.173.173 0 0 1-.05-.126v-.441c0-.03-.009-.05-.03-.059-.021-.008-.038 0-.059.03-.433.508-.998.764-1.697.764-.699 0-1.288-.18-1.768-.542-.48-.36-.83-.869-1.044-1.511a5.981 5.981 0 0 1-.266-1.839c0-.697.085-1.293.253-1.793.215-.646.564-1.15 1.048-1.51.48-.362 1.087-.546 1.811-.546.678 0 1.234.243 1.668.734.021.021.037.025.059.021.021-.004.029-.02.029-.05v-3.19h-.004Zm-.354 8.052c.227-.403.337-.97.337-1.704 0-.764-.122-1.348-.371-1.747-.265-.432-.64-.646-1.12-.646a1.36 1.36 0 0 0-1.179.617c-.294.432-.442 1.028-.442 1.793 0 .684.118 1.246.354 1.691.274.47.69.706 1.25.706.506-.005.893-.24 1.171-.71ZM223.867 72.303c0-.05.017-.092.05-.126a.173.173 0 0 1 .127-.05h1.355c.051 0 .093.017.127.05.033.034.05.076.05.126v9.933c0 .05-.017.092-.05.126a.173.173 0 0 1-.127.05h-1.355a.173.173 0 0 1-.127-.05.173.173 0 0 1-.05-.126v-.441c0-.03-.009-.05-.03-.059-.021-.008-.038 0-.059.03-.433.508-.998.764-1.697.764-.699 0-1.288-.18-1.768-.542-.48-.36-.83-.869-1.049-1.511a5.982 5.982 0 0 1-.265-1.839c0-.697.084-1.293.253-1.793.214-.646.564-1.15 1.044-1.51.48-.362 1.086-.546 1.815-.546.678 0 1.234.243 1.663.734.021.021.038.025.059.021.021-.004.029-.02.029-.05v-3.19h.005Zm-.354 8.052c.227-.403.337-.97.337-1.704 0-.764-.122-1.348-.371-1.747-.265-.432-.64-.646-1.12-.646a1.36 1.36 0 0 0-1.179.617c-.295.432-.442 1.028-.442 1.793 0 .684.118 1.246.354 1.691.273.47.695.706 1.25.706.51-.005.897-.24 1.171-.71ZM233.787 77.814c.038.244.059.521.059.823l-.016.454c0 .117-.059.176-.177.176h-4.611c-.051 0-.076.025-.076.071.03.324.076.542.135.664.236.705.808 1.062 1.722 1.07.67 0 1.2-.273 1.592-.823.038-.058.088-.088.147-.088.038 0 .076.017.101.046l.914.748c.088.067.101.147.042.235a2.997 2.997 0 0 1-1.217.999 3.956 3.956 0 0 1-1.688.353c-.767 0-1.42-.173-1.954-.517a2.96 2.96 0 0 1-1.171-1.44c-.227-.529-.341-1.263-.341-2.204 0-.567.059-1.028.177-1.38.198-.685.568-1.227 1.112-1.626.543-.398 1.2-.596 1.966-.596 1.945.009 3.036 1.016 3.284 3.035Zm-3.271-1.557c-.363 0-.666.092-.906.273-.24.18-.408.432-.509.755a2.614 2.614 0 0 0-.118.647c-.021.05 0 .076.059.076h2.989c.051 0 .072-.026.072-.076a2.971 2.971 0 0 0-.088-.558c-.089-.353-.261-.626-.522-.823-.262-.197-.586-.294-.977-.294ZM238.091 82.5c-.619 0-1.162-.093-1.63-.274-.467-.18-.829-.432-1.082-.747a1.65 1.65 0 0 1-.383-1.066v-.135a.17.17 0 0 1 .051-.126.17.17 0 0 1 .126-.05h1.297a.17.17 0 0 1 .126.05.17.17 0 0 1 .051.126v.03c0 .243.134.457.404.638.269.18.611.273 1.023.273.392 0 .712-.08.96-.244.244-.16.371-.365.371-.608a.547.547 0 0 0-.303-.508c-.203-.114-.527-.231-.981-.361l-.561-.177a8.196 8.196 0 0 1-1.267-.47 2.541 2.541 0 0 1-.872-.684c-.235-.29-.353-.66-.353-1.109 0-.684.269-1.23.808-1.637.539-.407 1.251-.609 2.139-.609.598 0 1.125.097 1.575.286.451.193.8.453 1.049.793.244.336.37.722.37 1.155 0 .05-.017.092-.05.126a.173.173 0 0 1-.127.05h-1.255a.172.172 0 0 1-.176-.176c0-.256-.127-.466-.375-.638-.249-.172-.594-.256-1.023-.256-.384 0-.695.071-.935.214-.24.142-.362.34-.362.596 0 .235.113.415.345.537.232.122.615.256 1.158.403l.324.088c.522.156.96.315 1.31.479.353.164.652.386.901.676.244.29.366.663.366 1.125 0 .697-.274 1.243-.825 1.637-.552.395-1.28.592-2.194.592ZM243.527 73.877c-.303 0-.556-.096-.754-.293a1.007 1.007 0 0 1-.294-.748c0-.302.096-.554.294-.751.198-.197.447-.294.754-.294.303 0 .556.097.75.294.197.197.294.445.294.751 0 .303-.097.555-.294.748a1.025 1.025 0 0 1-.75.293Zm-.707 8.535a.173.173 0 0 1-.127-.05.173.173 0 0 1-.05-.126v-7.17c0-.05.017-.093.05-.127a.173.173 0 0 1 .127-.05h1.355c.051 0 .093.017.127.05.033.034.05.076.05.127v7.17c0 .05-.017.092-.05.126a.173.173 0 0 1-.127.05h-1.355ZM250.926 75.082c0-.05.017-.093.05-.126a.173.173 0 0 1 .127-.05h1.355c.051 0 .093.016.127.05.033.033.05.075.05.126v6.834c0 1.226-.349 2.099-1.052 2.624-.704.524-1.626.785-2.763.785-.303 0-.602-.017-.901-.046-.109-.009-.164-.076-.164-.194l.046-1.204c0-.11.068-.164.207-.164.286.03.539.042.766.042.737 0 1.28-.143 1.63-.433.349-.29.522-.776.522-1.46v-.118c0-.03-.009-.046-.03-.05-.021-.004-.038.004-.059.02-.404.433-.972.647-1.709.647-.64 0-1.221-.16-1.752-.483-.531-.323-.901-.818-1.103-1.486-.127-.462-.194-1.053-.194-1.78 0-.814.08-1.435.236-1.868a2.855 2.855 0 0 1 1.015-1.431c.48-.357 1.048-.538 1.692-.538.775 0 1.382.227 1.815.676.021.03.038.038.059.03.021-.009.03-.03.03-.06v-.343Zm-.101 4.832c.038-.147.067-.307.08-.48.017-.171.021-.448.021-.83 0-.374-.009-.638-.021-.802a2.402 2.402 0 0 0-.097-.479 1.422 1.422 0 0 0-.48-.78c-.24-.198-.548-.294-.922-.294-.354 0-.653.096-.897.294a1.67 1.67 0 0 0-.531.78c-.118.273-.177.706-.177 1.293 0 .609.051 1.033.148 1.28.097.316.278.572.539.773.261.202.572.302.934.302.384 0 .695-.096.927-.294.24-.193.396-.449.476-.764ZM258.016 74.79c.796 0 1.432.234 1.908.704.475.47.715 1.113.715 1.923v4.82a.172.172 0 0 1-.176.176h-1.356a.173.173 0 0 1-.177-.177V77.77c0-.45-.126-.815-.383-1.096-.257-.281-.594-.42-1.019-.42-.421 0-.762.139-1.024.412-.261.273-.391.638-.391 1.087v4.483a.17.17 0 0 1-.051.126.17.17 0 0 1-.126.05h-1.356a.172.172 0 0 1-.177-.176V75.08a.172.172 0 0 1 .177-.176h1.356a.17.17 0 0 1 .126.05.17.17 0 0 1 .051.126v.47c0 .03.008.05.029.059.021.008.034 0 .042-.03.405-.525 1.015-.789 1.832-.789Z" fill="#fff"/></svg>