<svg width="624" height="754" viewBox="0 0 624 754" fill="none"
  xmlns="http://www.w3.org/2000/svg">
  <g clip-path="url(#clip0_434_2206)">
    <path d="M623.19 377.001C621.8 387.001 624.19 400.571 621.76 413.551C620.03 422.851 619.17 432.551 615.17 441.551C610.11 452.921 608.01 465.391 602.71 476.791C594.44 494.611 586.07 512.461 575.3 528.791C568.378 539.536 560.86 549.886 552.78 559.791C543.497 571.11 533.507 581.832 522.87 591.891C512.81 601.251 502.51 610.371 491.69 618.971C481.37 627.181 470.47 634.481 459.74 641.971C447.11 650.831 433.66 658.561 420.11 665.971C406.4 673.491 392.74 681.151 378.17 686.891C364.27 692.381 350.95 699.141 336.83 704.261C321.2 710.001 305.37 715.001 289.67 720.441C266.27 728.541 242.09 733.921 218.11 739.931C204.93 743.231 191.41 745.111 178.03 747.581C168.73 749.291 159.49 751.361 150.14 752.871C146.5 753.461 144.65 752.421 143.26 749.021C135.41 729.941 128.38 710.561 121.17 691.241C115.6 676.241 109.17 661.641 103.81 646.631C98.7399 632.551 93.8099 618.431 88.2099 604.551C78.4499 580.191 69.9999 555.311 59.9999 531.051C53.7199 515.851 48.4599 500.231 42.6899 484.831C34.8232 463.811 26.9265 442.807 18.9999 421.821C18.7099 421.041 18.4099 420.261 18.1399 419.481C17.2199 416.751 17.7399 415.141 21.0599 415.801C23.6934 416.196 26.3013 416.747 28.8699 417.451C47.0299 423.321 65.8699 426.801 84.1199 432.031C100.47 436.711 117.12 439.671 133.79 442.601C144.55 444.501 155.45 446.141 166.3 447.721C191.61 451.411 217.1 450.721 242.49 452.361C262.83 453.681 282.99 451.851 303.15 449.641C312.41 448.641 321.79 448.081 330.86 446.121C352.81 441.401 374.86 437.051 396.01 429.121C413.34 422.631 430.42 415.671 446.49 406.441C457.112 400.216 467.248 393.196 476.81 385.441C490.29 374.731 501.12 361.851 510.6 347.701C519.482 334.584 525.54 319.763 528.39 304.181C532.76 280.181 530.68 256.611 524.24 233.121C520.24 218.641 514.85 204.741 509.57 190.771C506.83 183.453 505.146 175.783 504.57 167.991C504.24 163.761 506.99 161.741 510.86 163.271C514.114 164.569 517.011 166.626 519.31 169.271C526.31 177.051 533.21 184.971 540.31 192.621C554.153 207.219 566.763 222.939 578.01 239.621C590.068 257.947 600.065 277.549 607.82 298.071C612.25 309.611 616.29 321.331 618.15 333.401C620.17 346.771 623.6 360.071 623.19 377.001Z" fill="white"/>
    <path d="M0.339914 253.36C0.0384623 230.98 1.73856 208.618 5.41991 186.54C7.18991 175.54 9.12991 164.41 12.7799 153.97C16.8599 142.27 20.1499 130.14 27.1899 119.55C31.1199 113.63 33.6499 106.81 37.4199 100.77C46.3603 86.1595 56.7205 72.4665 68.3499 59.8902C70.7248 57.325 73.329 54.982 76.1299 52.8902C85.7099 45.7802 94.7799 38.0002 105.13 31.8902C122.869 21.3756 142.082 13.5759 162.13 8.75023C175.93 5.41023 189.89 3.39022 203.76 0.690225C204.087 0.595947 204.421 0.532339 204.76 0.500225C221.45 0.760225 238.21 -0.999775 255 0.840225C264.24 1.84022 273.58 1.84022 282.84 3.12022C309.947 6.57651 336.71 12.334 362.84 20.3302C375.7 24.3302 388.64 28.1402 401.34 32.5902C415.77 37.6502 429.84 43.5902 443.76 50.0602C454.58 55.0602 465.29 60.4302 476.47 64.6902C480.545 66.2538 483.945 69.1936 486.08 73.0002C488.08 76.3102 487.21 79.0002 483.47 79.8802C476.69 81.4102 470.04 82.5002 462.79 81.5502C442.79 78.9502 422.88 76.2802 402.85 74.1302C387.21 72.4502 371.61 72.5302 355.98 72.2902C337.04 71.9902 318.4 74.6602 300.06 78.8402C282.444 82.7549 265.872 90.4 251.46 101.26C239.85 110.08 231.61 121.78 225.35 134.86C222.57 140.67 219.74 146.44 218.07 152.79C215.818 160.963 214.249 169.308 213.38 177.74C211.11 202.74 212.55 227.54 216.32 252.37C219.68 274.49 224.79 296.17 230.47 317.73C234.09 331.51 238.59 345.08 243.14 358.63C249.64 378.01 258.14 396.56 265.41 415.63C267.59 421.37 268.74 427.4 271.41 433.02C273.53 437.45 271.41 439.73 266.48 439.08C254.26 437.47 242.09 435.74 230.05 432.95C221.82 431.03 213.35 430.14 205.05 428.59C195.6 426.83 186.23 424.65 176.77 423C163.89 420.77 150.87 419.27 138.06 416.72C120.28 413.18 102.35 410.6 84.5399 407.27C69.1999 404.41 53.7599 402.09 38.4199 399.19C33.8699 398.34 29.3599 397.19 24.7799 396.47C23.1904 396.302 21.7021 395.609 20.5503 394.501C19.3986 393.393 18.6489 391.932 18.4199 390.35C16.4199 381.25 14.6499 372.12 12.4199 363.09C8.45991 347.35 6.99991 331.25 4.10991 315.39C2.7005 306.684 1.85541 297.896 1.57991 289.08C0.999914 276.62 -0.720086 264.18 0.339914 253.36Z" fill="white"/>
    <path d="M396.42 348.43C381.843 348.691 367.328 346.48 353.49 341.89C334.66 335.61 317.92 326.13 302.13 314.13C292 306.45 284 297 275.64 287.85C270.17 281.85 266.2 274.61 262.3 267.44C255.19 254.38 251.91 240.12 249.78 225.63C249 220.3 249.56 214.63 250.3 209.23C252.69 191.82 258.95 176.09 272.22 163.97C281.52 155.46 292.07 148.85 304.28 145.18C319.61 140.597 335.753 139.403 351.59 141.68C365.5 143.55 378.34 148.17 391.24 153.22C412.56 161.57 430.53 174.85 446.68 190.61C459.916 203.334 470.216 218.794 476.86 235.91C481.79 248.77 485.02 262.33 482.86 275.98C480.66 289.98 477.39 303.56 468.06 315.56C455.41 331.84 438.65 339.8 419.78 345.26C412.211 347.551 404.326 348.621 396.42 348.43Z" fill="white"/>
  </g>
  <defs>
    <clipPath id="clip0_434_2206">
      <rect width="623.23" height="753.02" fill="white"/>
    </clipPath>
  </defs>
</svg>
