<svg width="245" height="79" viewBox="0 0 245 79" fill="none" xmlns="http://www.w3.org/2000/svg">
<path d="M152.892 27.4964C152.892 29.4982 152.514 31.3867 151.721 33.1241C150.966 34.8615 149.908 36.4101 148.624 37.6942C147.302 38.9784 145.791 40.036 144.016 40.7914C143.903 40.8291 143.752 40.9047 143.638 40.9424C142.014 41.5845 140.277 41.9245 138.426 41.9245C136.576 41.9245 134.838 41.5845 133.214 40.9424C133.101 40.9047 132.95 40.8291 132.836 40.7914C131.061 40.036 129.55 39.0162 128.228 37.6942C126.906 36.4101 125.887 34.8615 125.131 33.1241C124.376 31.3867 123.998 29.4982 123.998 27.4964V13.3327H128.342V27.4964C128.342 27.6853 128.342 27.8363 128.379 28.0252C128.379 28.1763 128.379 28.3651 128.417 28.5162C128.417 28.5917 128.417 28.6295 128.455 28.6673C128.568 29.6115 128.795 30.518 129.21 31.4245C129.739 32.6709 130.495 33.7284 131.401 34.6349C132.345 35.5414 133.403 36.259 134.612 36.7878C135.82 37.3165 137.142 37.5809 138.502 37.5809C139.862 37.5809 141.183 37.3165 142.392 36.7878C143.601 36.259 144.658 35.5414 145.603 34.6349C146.547 33.7284 147.264 32.6709 147.793 31.4245C148.171 30.5558 148.397 29.6493 148.549 28.6673C148.549 28.5917 148.549 28.554 148.586 28.5162C148.586 28.3651 148.586 28.1763 148.624 28.0252C148.624 27.8363 148.662 27.6853 148.662 27.4964V13.3327H153.005L152.892 27.4964ZM241.462 41.9622C242.406 41.9622 243.162 41.6601 243.804 41.018C244.446 40.3759 244.748 39.6205 244.748 38.6763C244.748 37.732 244.446 36.9388 243.804 36.3345C243.162 35.6924 242.406 35.3903 241.462 35.3903C240.518 35.3903 239.725 35.6924 239.12 36.3345C238.516 36.9766 238.176 37.732 238.176 38.6763C238.176 39.6205 238.478 40.4137 239.12 41.018C239.763 41.6223 240.518 41.9622 241.462 41.9622ZM239.309 31.0468H243.653V27.1565C243.653 25.1547 243.275 23.2662 242.52 21.5288C241.764 19.7914 240.707 18.2428 239.423 16.9586C238.101 15.6745 236.59 14.6169 234.815 13.8615C234.701 13.8237 234.55 13.7482 234.437 13.7104C232.813 13.0683 231.076 12.7284 229.225 12.7284C227.374 12.7284 225.637 13.0683 224.013 13.7104C223.899 13.7482 223.748 13.8237 223.635 13.8615C221.86 14.6169 220.311 15.6367 219.027 16.9586C217.705 18.2428 216.685 19.7914 215.93 21.5288C215.174 23.2662 214.797 25.1547 214.797 27.1565V42H219.14V27.1565C219.14 26.9676 219.14 26.8165 219.178 26.6277C219.178 26.4766 219.178 26.2878 219.216 26.1367C219.216 26.0612 219.216 26.0234 219.254 25.9856C219.367 25.0414 219.594 24.1349 220.009 23.2284C220.538 21.982 221.293 20.9245 222.2 20.018C223.144 19.1115 224.201 18.3939 225.41 17.8651C226.619 17.3363 227.941 17.0719 229.3 17.0719C230.66 17.0719 231.982 17.3363 233.191 17.8651C234.399 18.3939 235.457 19.1115 236.401 20.018C237.308 20.9245 238.063 21.982 238.592 23.2284C238.969 24.0971 239.234 25.0036 239.347 25.9856C239.347 26.0612 239.347 26.0989 239.385 26.1367C239.385 26.2878 239.385 26.4766 239.423 26.6277C239.423 26.8165 239.46 26.9676 239.46 27.1565L239.309 31.0468ZM115.764 41.6223H120.335V0H115.764V41.6223ZM174.95 13.2194V41.6978H179.52V13.2194H174.95ZM161.05 13.1817C161.05 10.6888 161.05 8.23381 161.05 5.74101C159.54 5.74101 157.991 5.74101 156.48 5.74101C156.48 13.786 156.48 21.7932 156.442 29.8381C156.442 31.5 156.82 33.0486 157.613 34.4838C158.406 35.9191 159.502 37.2032 160.862 38.2986C162.221 39.3561 163.845 40.2248 165.696 40.8669C167.547 41.509 169.511 41.7734 171.626 41.7734V38.1853C170.153 38.1853 168.793 37.9586 167.471 37.5432C166.187 37.1277 165.054 36.4856 164.072 35.768C163.09 35.0126 162.335 34.1061 161.806 33.0863C161.239 32.0665 160.975 30.9712 160.975 29.8381L161.013 16.732H171.626V13.1817H161.05ZM89.6655 34.295C90.6852 35.3147 91.7806 36.0324 93.0647 36.5612C94.1978 37.0144 95.3309 37.241 96.5018 37.2788H96.8417C98.277 37.2788 99.5989 37.0144 100.883 36.4856C101.525 36.2212 102.092 35.9191 102.658 35.5414C103.225 35.1637 103.716 34.7482 104.207 34.2572C105.113 33.3507 105.831 32.2554 106.36 31.0468C106.888 29.8004 107.153 28.4784 107.153 27.0432C107.153 25.6079 106.888 24.286 106.36 23.0018C105.831 21.7554 105.113 20.6978 104.245 19.7914L104.207 19.7536C103.716 19.2626 103.187 18.8471 102.658 18.4694C102.129 18.0917 101.525 17.7896 100.883 17.5252C99.6367 16.9964 98.277 16.732 96.8417 16.732C96.1619 16.732 95.482 16.8076 94.8399 16.9209C94.5755 16.9586 94.3111 17.0342 94.0468 17.1097C94.0468 17.1097 94.009 17.1097 93.9712 17.1097C93.6691 17.1853 93.3291 17.2986 93.027 17.4496C91.7806 17.9406 90.6475 18.696 89.6277 19.7158C88.6079 20.7356 87.8525 21.8687 87.3615 23.1151C86.8705 24.3615 86.6061 25.6835 86.6061 26.9676C86.6061 28.2518 86.8705 29.5737 87.3615 30.8201C87.8903 32.1799 88.6457 33.3129 89.6655 34.295ZM110.401 21.3399C111.156 23.1529 111.572 25.0414 111.572 27.0432C111.572 29.045 111.194 31.009 110.401 32.8219C109.646 34.6349 108.588 36.1835 107.228 37.5054C106.813 37.9209 106.322 38.3363 105.831 38.6763C105.642 38.8273 105.453 38.9406 105.302 39.0917C105.151 39.205 105 39.3183 104.849 39.3939C104.585 39.545 104.32 39.696 104.094 39.8471C103.905 39.9604 103.716 40.036 103.565 40.1493C103.376 40.2248 103.187 40.3381 102.998 40.4137C102.847 40.4892 102.734 40.5647 102.583 40.6025C100.77 41.3579 98.8813 41.7356 96.8795 41.7356V41.6978C94.991 41.6978 93.1781 41.3201 91.4029 40.6403C89.5899 39.9227 88.0036 38.8651 86.5683 37.4299C85.1331 35.9946 84.0755 34.3705 83.3579 32.5953C82.6781 30.8957 82.3381 29.1583 82.2626 27.3831C82.2248 27.3076 82.2248 27.1942 82.2248 27.0432C82.2248 25.0414 82.6025 23.1151 83.3957 21.3399C83.6223 20.7734 83.9245 20.2446 84.2266 19.7158C84.3777 19.4892 84.491 19.2626 84.6421 19.036C84.7176 18.8849 84.8309 18.7716 84.9065 18.6205C85.0953 18.3561 85.2842 18.1295 85.473 17.8651C85.5863 17.7518 85.6619 17.6385 85.7752 17.5252C85.964 17.2608 86.1907 17.0342 86.4173 16.8076C86.455 16.7698 86.4928 16.6942 86.5683 16.6565C86.6061 16.6187 86.6061 16.6187 86.6439 16.5809C88.0791 15.1457 89.7032 14.0504 91.5162 13.3327C93.3291 12.6151 95.1799 12.2374 97.0683 12.2752C98.9568 12.2752 100.808 12.6529 102.583 13.4083C104.358 14.1259 105.982 15.2212 107.379 16.6187L107.417 16.6565C107.644 16.8831 107.833 17.1097 108.022 17.2986L108.248 17.5252C109.117 18.7338 109.797 19.9424 110.401 21.3399ZM190.133 34.295C191.153 35.3147 192.286 36.0324 193.532 36.5612C194.665 37.0144 195.799 37.241 197.007 37.2788H197.347C198.782 37.2788 200.104 37.0144 201.388 36.4856C202.031 36.2212 202.597 35.9191 203.164 35.5414C203.73 35.1637 204.221 34.7482 204.712 34.2572C205.619 33.3507 206.336 32.2554 206.865 31.0468C207.394 29.8004 207.658 28.4784 207.658 27.0432C207.658 25.6079 207.394 24.286 206.865 23.0018C206.336 21.7554 205.619 20.6978 204.712 19.7914L204.674 19.7536C204.183 19.2626 203.655 18.8471 203.126 18.4694C202.597 18.0917 201.993 17.7896 201.351 17.5252C200.104 16.9964 198.745 16.732 197.309 16.732C196.629 16.732 195.95 16.8076 195.308 16.9209C195.043 16.9586 194.779 17.0342 194.514 17.1097C194.477 17.1097 194.477 17.1097 194.439 17.1097C194.137 17.1853 193.797 17.2986 193.495 17.4496C192.248 17.9406 191.115 18.696 190.095 19.7158C189.076 20.7356 188.32 21.8687 187.829 23.1151C187.338 24.3615 187.074 25.6835 187.074 26.9676C187.074 28.2518 187.338 29.5737 187.829 30.8201C188.358 32.1799 189.113 33.3129 190.133 34.295ZM211.095 21.4155C211.851 23.2284 212.266 25.1547 212.266 27.1565C212.266 29.1583 211.888 31.1601 211.095 32.973C210.34 34.786 209.245 36.3345 207.923 37.6942C207.469 38.1097 207.016 38.5252 206.525 38.9029C206.336 39.054 206.147 39.1673 205.996 39.3183C205.845 39.4317 205.694 39.545 205.543 39.6205C205.279 39.7716 205.014 39.9227 204.75 40.0737C204.561 40.1871 204.372 40.2626 204.221 40.3759C204.032 40.4514 203.843 40.5647 203.655 40.6403C203.504 40.7158 203.39 40.7914 203.239 40.8291C201.426 41.5845 199.5 41.9622 197.498 41.9622V41.9245C195.61 41.9245 193.759 41.5468 191.984 40.8669C190.171 40.1493 188.547 39.0917 187.112 37.6565C185.676 36.2212 184.581 34.5971 183.863 32.7842C183.183 31.0845 182.806 29.3471 182.768 27.5719C182.73 27.4964 182.692 27.3831 182.692 27.232C182.692 25.1924 183.07 23.304 183.863 21.491C184.128 20.9245 184.392 20.3957 184.694 19.8669C184.845 19.6403 184.959 19.4137 185.11 19.187C185.185 19.036 185.299 18.9227 185.374 18.7716C185.563 18.5072 185.752 18.2806 185.941 18.0162C186.054 17.9029 186.129 17.7518 186.243 17.6385C186.432 17.3741 186.658 17.1475 186.923 16.9209C186.96 16.8831 186.998 16.8076 187.074 16.7698C187.112 16.732 187.112 16.732 187.149 16.6942C188.585 15.259 190.246 14.1637 192.059 13.446C193.872 12.7284 195.761 12.3507 197.649 12.3885C199.538 12.3885 201.388 12.7662 203.201 13.5216C205.014 14.277 206.601 15.3345 208.036 16.7698L208.074 16.8076C208.3 17.0342 208.489 17.2608 208.678 17.4496L208.905 17.6763C209.773 18.7338 210.491 19.9802 211.095 21.4155ZM5.70324 13.295C5.06115 12.6529 4.26799 12.3507 3.32374 12.3507C2.3795 12.3507 1.58633 12.6529 0.944245 13.295C0.302158 13.9371 0 14.7302 0 15.6745C0 16.6187 0.302158 17.4119 0.944245 18.0162C1.58633 18.6205 2.3795 18.9604 3.32374 18.9604C4.26799 18.9604 5.06115 18.6583 5.70324 18.0162C6.34532 17.3741 6.64748 16.5809 6.64748 15.6745C6.64748 14.768 6.34532 13.9371 5.70324 13.295ZM29.7248 13.2194H25.3435V27.3076C25.3435 27.4964 25.3435 27.6853 25.3058 27.8363C25.3058 27.9874 25.3058 28.1763 25.268 28.3273C25.268 28.4029 25.2302 28.4406 25.2302 28.4784C25.1169 29.4227 24.8903 30.3669 24.4748 31.2356C23.946 32.482 23.1906 33.5396 22.2464 34.446C21.3022 35.3525 20.2446 36.0701 18.9982 36.6367C17.7896 37.1655 16.4676 37.4676 15.0701 37.4676C13.6727 37.4676 12.3507 37.2032 11.1421 36.6367C9.93345 36.1079 8.83813 35.3525 7.89388 34.446C6.94964 33.5396 6.23201 32.4442 5.66547 31.1978C5.28777 30.3291 5.02338 29.3849 4.91007 28.4406C4.91007 28.3651 4.8723 28.3273 4.8723 28.2896C4.83453 28.1385 4.83453 27.9496 4.83453 27.7986C4.83453 27.6097 4.79676 27.4586 4.79676 27.2698V23.1151H0.566547V27.3076C0.566547 29.3094 0.944244 31.1978 1.73741 32.973C2.53057 34.7482 3.55036 36.2968 4.8723 37.5809C6.19424 38.9029 7.7428 39.9227 9.51798 40.6781C9.63129 40.7158 9.78237 40.7914 9.89568 40.8291C11.5198 41.509 13.295 41.8112 15.1457 41.8112C16.9964 41.8112 18.7716 41.4712 20.3957 40.8291C20.509 40.7914 20.6601 40.7158 20.7734 40.6781C22.5486 39.9227 24.0971 38.8651 25.4191 37.5809C26.741 36.2968 27.7986 34.7482 28.554 32.973C29.3471 31.1978 29.7248 29.3094 29.7248 27.3076V13.2194ZM57.7878 41.9245L47.4766 27.5342L57.7122 13.2194H52.3111L44.795 23.7572L37.3165 13.2194H31.9155L42.0755 27.5342L31.7644 41.9245H37.1655L44.7572 31.3112L52.3489 41.9245H57.7878V41.9245ZM64.3975 41.509L84.5288 13.2194H79.241L64.3597 34.1817L56.6169 23.3795L53.973 27.0809L63.491 40.3759L64.3975 41.509Z" fill="white"/>
<path d="M63.8971 55.7012C63.935 55.9447 63.9561 56.2218 63.9561 56.524L63.9435 56.9774C63.9435 57.0949 63.8845 57.1537 63.7666 57.1537H59.1516C59.1011 57.1537 59.08 57.1789 59.08 57.2251C59.1095 57.5483 59.1516 57.7666 59.2147 57.8884C59.4506 58.5936 60.0232 58.9505 60.937 58.9589C61.6065 58.9589 62.137 58.686 62.5286 58.1361C62.5665 58.0773 62.6171 58.0479 62.676 58.0479C62.7139 58.0479 62.7476 58.0647 62.7771 58.0941L63.6908 58.8413C63.7792 58.9085 63.7919 58.9883 63.7371 59.0764C63.434 59.5088 63.0255 59.8405 62.5202 60.0756C62.0149 60.3106 61.4507 60.4282 60.8317 60.4282C60.0653 60.4282 59.4127 60.2561 58.8779 59.9118C58.3431 59.5676 57.9515 59.089 57.7073 58.4719C57.4799 57.9429 57.3662 57.2083 57.3662 56.2679C57.3662 55.7012 57.4252 55.2394 57.5431 54.8868C57.741 54.2025 58.1115 53.6609 58.6547 53.2621C59.2021 52.8633 59.8548 52.666 60.6211 52.666C62.5623 52.6744 63.6529 53.6819 63.8971 55.7012ZM60.6254 54.1437C60.2632 54.1437 59.9601 54.2361 59.72 54.4166C59.48 54.5971 59.3116 54.849 59.2105 55.1722C59.1516 55.3402 59.1137 55.5543 59.0926 55.8187C59.0716 55.8691 59.0926 55.8943 59.1516 55.8943H62.1455C62.196 55.8943 62.217 55.8691 62.217 55.8187C62.196 55.5753 62.1665 55.3863 62.1286 55.2604C62.0402 54.9078 61.8675 54.6349 61.6065 54.4376C61.3454 54.2403 61.017 54.1437 60.6254 54.1437Z" fill="white"/>
<path d="M73.5819 52.6758C74.3398 52.6758 74.9294 52.9025 75.3589 53.3601C75.7884 53.8135 75.9989 54.4516 75.9989 55.2618V60.1273C75.9989 60.1777 75.9821 60.2197 75.9484 60.2532C75.9147 60.2868 75.8726 60.3036 75.822 60.3036H74.483C74.4325 60.3036 74.3904 60.2868 74.3567 60.2532C74.323 60.2197 74.3062 60.1777 74.3062 60.1273V55.6186C74.3062 55.1694 74.184 54.8126 73.944 54.5481C73.704 54.2836 73.3798 54.1493 72.9798 54.1493C72.5755 54.1493 72.2471 54.2836 71.9944 54.5481C71.7376 54.8126 71.6113 55.1652 71.6113 55.606V60.1315C71.6113 60.1819 71.5944 60.2238 71.5607 60.2574C71.527 60.291 71.4849 60.3078 71.4344 60.3078H70.0954C70.0448 60.3078 70.0027 60.291 69.9691 60.2574C69.9354 60.2238 69.9185 60.1819 69.9185 60.1315V55.6228C69.9185 55.1736 69.7964 54.8168 69.548 54.5523C69.3037 54.2878 68.9795 54.1535 68.5753 54.1535C68.2005 54.1535 67.8931 54.2626 67.6531 54.4767C67.4131 54.6908 67.2741 54.9847 67.232 55.3583V60.1357C67.232 60.1861 67.2152 60.228 67.1815 60.2616C67.1478 60.2952 67.1057 60.312 67.0552 60.312H65.6993C65.6488 60.312 65.6067 60.2952 65.573 60.2616C65.5393 60.228 65.5225 60.1861 65.5225 60.1357V52.978C65.5225 52.9277 65.5393 52.8857 65.573 52.8521C65.6067 52.8185 65.6488 52.8017 65.6993 52.8017H67.0552C67.1057 52.8017 67.1478 52.8185 67.1815 52.8521C67.2152 52.8857 67.232 52.9277 67.232 52.978V53.465C67.232 53.4944 67.2405 53.5154 67.2615 53.5238C67.2826 53.5322 67.2994 53.5238 67.3205 53.4944C67.5352 53.2215 67.8047 53.0158 68.1247 52.8857C68.4448 52.7513 68.7985 52.6884 69.1943 52.6884C69.6743 52.6884 70.0996 52.7849 70.4617 52.9822C70.8238 53.1795 71.106 53.4608 71.2997 53.8344C71.3291 53.8722 71.3628 53.8722 71.4007 53.8344C71.6155 53.444 71.9186 53.1544 72.3018 52.9654C72.6808 52.7681 73.1103 52.6758 73.5819 52.6758Z" fill="white"/>
<path d="M84.1176 54.7328C84.2945 55.2324 84.3829 55.8453 84.3829 56.5716C84.3829 57.2684 84.2987 57.8646 84.1303 58.3641C83.9155 59.0106 83.566 59.5144 83.0902 59.8754C82.6144 60.2364 82.0122 60.417 81.2838 60.417C80.5848 60.417 80.0248 60.1693 79.6037 59.6697C79.5826 59.6487 79.5658 59.6445 79.5447 59.6529C79.5237 59.6613 79.5152 59.6823 79.5152 59.7117V62.9022C79.5152 62.9526 79.4984 62.9946 79.4647 63.0281C79.431 63.0617 79.3889 63.0785 79.3384 63.0785H77.9825C77.932 63.0785 77.8899 63.0617 77.8562 63.0281C77.8225 62.9946 77.8057 62.9526 77.8057 62.9022V52.9696C77.8057 52.9193 77.8225 52.8773 77.8562 52.8437C77.8899 52.8101 77.932 52.7933 77.9825 52.7933H79.3384C79.3889 52.7933 79.431 52.8101 79.4647 52.8437C79.4984 52.8773 79.5152 52.9193 79.5152 52.9696V53.4104C79.5152 53.4398 79.5237 53.4608 79.5447 53.4692C79.5658 53.4776 79.5826 53.4692 79.6037 53.4398C80.0374 52.9319 80.6016 52.6758 81.3006 52.6758C81.9996 52.6758 82.5891 52.8563 83.0691 53.2215C83.5534 53.5826 83.9029 54.0863 84.1176 54.7328ZM82.2017 58.3305C82.4965 57.8813 82.6439 57.281 82.6439 56.538C82.6439 55.8243 82.526 55.2618 82.2901 54.8504C82.0164 54.3718 81.5954 54.1325 81.0353 54.1325C80.5258 54.1325 80.1427 54.3676 79.8858 54.8378C79.6584 55.2198 79.5489 55.7865 79.5489 56.5422C79.5489 57.3146 79.671 57.9023 79.9195 58.3053C80.1763 58.7377 80.5427 58.9518 81.0227 58.9518C81.5448 58.9476 81.9364 58.7419 82.2017 58.3305Z" fill="white"/>
<path d="M89.174 60.4156C88.3993 60.4156 87.734 60.2183 87.1781 59.8279C86.6223 59.4374 86.2307 58.8917 86.0075 58.1948C85.8391 57.6659 85.7549 57.1075 85.7549 56.5198C85.7549 55.8943 85.8349 55.336 85.9907 54.8448C86.2181 54.1605 86.6097 53.6232 87.1697 53.2412C87.7297 52.8591 88.4035 52.666 89.1909 52.666C89.9362 52.666 90.5847 52.8591 91.1279 53.2412C91.6753 53.6232 92.0584 54.1521 92.2858 54.828C92.4627 55.2982 92.5511 55.8565 92.5511 56.503C92.5511 57.1201 92.4669 57.6785 92.2984 58.178C92.0711 58.8749 91.6837 59.4207 91.1363 59.8153C90.5804 60.2183 89.9278 60.4156 89.174 60.4156ZM89.174 58.9463C89.5362 58.9463 89.8478 58.8413 90.1088 58.6356C90.3699 58.4299 90.5594 58.1403 90.6773 57.7666C90.7741 57.4434 90.8247 57.032 90.8247 56.5324C90.8247 56.0035 90.7741 55.592 90.6773 55.2982C90.5678 54.9246 90.3825 54.6391 90.1173 54.4376C89.852 54.2361 89.5277 54.1353 89.1446 54.1353C88.7824 54.1353 88.4666 54.2361 88.2013 54.4376C87.9361 54.6391 87.7424 54.9246 87.6287 55.2982C87.5318 55.6424 87.4813 56.0538 87.4813 56.5324C87.4813 57.011 87.5318 57.4224 87.6287 57.7666C87.7382 58.1403 87.9276 58.4299 88.1971 58.6356C88.4624 58.8455 88.7909 58.9463 89.174 58.9463Z" fill="white"/>
<path d="M95.5834 60.3002C95.474 60.3002 95.4066 60.2498 95.3771 60.1533L93.2675 52.983L93.2549 52.9243C93.2549 52.8277 93.3096 52.7773 93.4149 52.7773H94.8171C94.9266 52.7773 94.9939 52.8277 95.0234 52.9243L96.2445 57.8318C96.253 57.8612 96.2698 57.8738 96.2867 57.8738C96.3077 57.8738 96.3203 57.8612 96.333 57.8318L97.613 52.9243C97.6425 52.8277 97.7099 52.7773 97.8194 52.7773H99.0447C99.1542 52.7773 99.2216 52.8277 99.251 52.9243L100.561 57.8318C100.569 57.8612 100.586 57.8738 100.607 57.8738C100.628 57.8738 100.641 57.8612 100.649 57.8318L101.959 52.9243C101.988 52.8277 102.055 52.7773 102.165 52.7773L103.55 52.8067C103.609 52.8067 103.651 52.8235 103.677 52.8571C103.702 52.8907 103.71 52.9369 103.698 52.9956L101.575 60.1491C101.546 60.2456 101.483 60.296 101.382 60.296H99.9669C99.8574 60.296 99.79 60.2456 99.7606 60.1491L98.4636 55.6698C98.4552 55.6404 98.4384 55.6278 98.4215 55.6278C98.4005 55.6278 98.3878 55.6404 98.3752 55.6698L97.1836 60.1491C97.1541 60.2456 97.0867 60.296 96.9772 60.296H95.5834V60.3002Z" fill="white"/>
<path d="M110.97 55.7012C111.008 55.9447 111.029 56.2218 111.029 56.524L111.012 56.9774C111.012 57.0949 110.953 57.1537 110.835 57.1537H106.22C106.169 57.1537 106.148 57.1789 106.148 57.2251C106.178 57.5483 106.22 57.7666 106.283 57.8884C106.519 58.5936 107.092 58.9505 108.005 58.9589C108.675 58.9589 109.205 58.686 109.597 58.1361C109.635 58.0773 109.685 58.0479 109.744 58.0479C109.782 58.0479 109.816 58.0647 109.845 58.0941L110.759 58.8413C110.848 58.9085 110.86 58.9883 110.801 59.0764C110.498 59.5088 110.09 59.8405 109.584 60.0756C109.079 60.3106 108.515 60.4282 107.896 60.4282C107.129 60.4282 106.477 60.2561 105.942 59.9118C105.407 59.5676 105.016 59.089 104.771 58.4719C104.544 57.9429 104.435 57.2083 104.435 56.2679C104.435 55.7012 104.494 55.2394 104.611 54.8868C104.809 54.2025 105.18 53.6609 105.723 53.2621C106.266 52.8633 106.923 52.666 107.69 52.666C109.635 52.6744 110.725 53.6819 110.97 55.7012ZM107.698 54.1437C107.336 54.1437 107.033 54.2361 106.793 54.4166C106.553 54.5971 106.384 54.849 106.283 55.1722C106.224 55.3402 106.186 55.5543 106.165 55.8187C106.144 55.8691 106.165 55.8943 106.224 55.8943H109.218C109.269 55.8943 109.29 55.8691 109.29 55.8187C109.269 55.5753 109.239 55.3863 109.201 55.2604C109.113 54.9078 108.94 54.6349 108.679 54.4376C108.418 54.2403 108.09 54.1437 107.698 54.1437Z" fill="white"/>
<path d="M116.098 52.7051C116.414 52.7051 116.687 52.768 116.923 52.8982C117.003 52.936 117.033 53.0115 117.011 53.1207L116.759 54.4431C116.75 54.5606 116.679 54.5942 116.553 54.548C116.405 54.4976 116.232 54.4724 116.035 54.4724C115.908 54.4724 115.807 54.4766 115.74 54.4892C115.327 54.5102 114.982 54.653 114.708 54.9216C114.434 55.1903 114.296 55.5429 114.296 55.9711V60.1314C114.296 60.1818 114.279 60.2238 114.245 60.2573C114.211 60.2909 114.169 60.3077 114.119 60.3077H112.763C112.712 60.3077 112.67 60.2909 112.636 60.2573C112.603 60.2238 112.586 60.1818 112.586 60.1314V52.9738C112.586 52.9234 112.603 52.8814 112.636 52.8478C112.67 52.8142 112.712 52.7974 112.763 52.7974H114.119C114.169 52.7974 114.211 52.8142 114.245 52.8478C114.279 52.8814 114.296 52.9234 114.296 52.9738V53.637C114.296 53.6748 114.304 53.7 114.317 53.7042C114.329 53.7084 114.35 53.6958 114.367 53.6664C114.788 53.0241 115.361 52.7051 116.098 52.7051Z" fill="white"/>
<path d="M119.105 51.7644C118.802 51.7644 118.549 51.6679 118.355 51.4706C118.157 51.2733 118.061 51.0256 118.061 50.7191C118.061 50.4169 118.157 50.165 118.355 49.9677C118.553 49.7704 118.802 49.6738 119.105 49.6738C119.408 49.6738 119.661 49.7704 119.859 49.9677C120.056 50.165 120.153 50.4127 120.153 50.7191C120.153 51.0214 120.056 51.2733 119.859 51.4706C119.661 51.6637 119.408 51.7644 119.105 51.7644ZM118.397 60.2991C118.347 60.2991 118.305 60.2823 118.271 60.2487C118.237 60.2151 118.221 60.1731 118.221 60.1227V52.9525C118.221 52.9021 118.237 52.8601 118.271 52.8266C118.305 52.793 118.347 52.7762 118.397 52.7762H119.753C119.804 52.7762 119.846 52.793 119.88 52.8266C119.913 52.8601 119.93 52.9021 119.93 52.9525V60.1227C119.93 60.1731 119.913 60.2151 119.88 60.2487C119.846 60.2823 119.804 60.2991 119.753 60.2991H118.397Z" fill="white"/>
<path d="M125.501 52.6758C126.296 52.6758 126.932 52.9109 127.408 53.381C127.884 53.8512 128.124 54.4935 128.124 55.3037V60.1231C128.124 60.1735 128.107 60.2154 128.073 60.249C128.04 60.2826 127.998 60.2994 127.947 60.2994H126.591C126.541 60.2994 126.499 60.2826 126.465 60.249C126.431 60.2154 126.414 60.1735 126.414 60.1231V55.6564C126.414 55.2072 126.288 54.842 126.031 54.5607C125.774 54.2794 125.437 54.1409 125.012 54.1409C124.591 54.1409 124.25 54.2794 123.989 54.5523C123.728 54.8252 123.597 55.1904 123.597 55.6396V60.1189C123.597 60.1693 123.58 60.2113 123.547 60.2448C123.513 60.2784 123.471 60.2952 123.42 60.2952H122.065C122.014 60.2952 121.972 60.2784 121.938 60.2448C121.905 60.2113 121.888 60.1693 121.888 60.1189V52.9612C121.888 52.9109 121.905 52.8689 121.938 52.8353C121.972 52.8017 122.014 52.7849 122.065 52.7849H123.42C123.471 52.7849 123.513 52.8017 123.547 52.8353C123.58 52.8689 123.597 52.9109 123.597 52.9612V53.4314C123.597 53.4608 123.606 53.4818 123.627 53.4902C123.648 53.4986 123.66 53.4902 123.669 53.4608C124.077 52.9403 124.684 52.6758 125.501 52.6758Z" fill="white"/>
<path d="M134.521 52.9683C134.521 52.9179 134.538 52.8759 134.571 52.8423C134.605 52.8087 134.647 52.792 134.698 52.792H136.053C136.104 52.792 136.146 52.8087 136.18 52.8423C136.213 52.8759 136.23 52.9179 136.23 52.9683V59.8027C136.23 61.0285 135.881 61.9017 135.178 62.4264C134.474 62.9512 133.552 63.2115 132.415 63.2115C132.112 63.2115 131.813 63.1947 131.514 63.1653C131.405 63.1569 131.35 63.0897 131.35 62.9722L131.392 61.7674C131.392 61.6582 131.46 61.6036 131.598 61.6036C131.885 61.633 132.137 61.6456 132.365 61.6456C133.102 61.6456 133.645 61.5029 133.994 61.2132C134.344 60.9236 134.517 60.4366 134.517 59.7523V59.6348C134.517 59.6054 134.508 59.5886 134.487 59.5844C134.466 59.5802 134.449 59.5886 134.428 59.6054C134.024 60.0378 133.455 60.2519 132.719 60.2519C132.078 60.2519 131.497 60.0923 130.967 59.7691C130.436 59.4458 130.066 58.9505 129.864 58.283C129.737 57.8212 129.67 57.2293 129.67 56.503C129.67 55.6886 129.75 55.0673 129.906 54.6349C130.104 54.0388 130.44 53.5602 130.921 53.2034C131.401 52.8465 131.965 52.666 132.613 52.666C133.388 52.666 133.994 52.8927 134.424 53.3419C134.445 53.3713 134.462 53.3797 134.483 53.3713C134.504 53.3629 134.512 53.3419 134.512 53.3125V52.9683H134.521ZM134.42 57.8002C134.458 57.6533 134.487 57.4938 134.5 57.3216C134.517 57.1495 134.521 56.8724 134.521 56.4904C134.521 56.1168 134.512 55.8523 134.5 55.6886C134.487 55.5249 134.453 55.3695 134.403 55.21C134.323 54.8868 134.163 54.6265 133.923 54.4292C133.683 54.2319 133.375 54.1353 133.001 54.1353C132.647 54.1353 132.348 54.2319 132.1 54.4292C131.855 54.6265 131.678 54.8868 131.569 55.21C131.451 55.4829 131.392 55.9153 131.392 56.503C131.392 57.1117 131.443 57.5357 131.54 57.7834C131.636 58.0983 131.817 58.3544 132.078 58.5559C132.34 58.7574 132.651 58.8581 133.013 58.8581C133.396 58.8581 133.704 58.7616 133.94 58.5643C134.184 58.3711 134.34 58.1151 134.42 57.8002Z" fill="white"/>
<path d="M147.098 52.6755C147.894 52.6755 148.53 52.9106 149.005 53.3808C149.481 53.851 149.721 54.4933 149.721 55.3035V60.1228C149.721 60.1732 149.704 60.2152 149.671 60.2488C149.637 60.2824 149.595 60.2992 149.544 60.2992H148.188C148.138 60.2992 148.096 60.2824 148.062 60.2488C148.028 60.2152 148.012 60.1732 148.012 60.1228V55.6561C148.012 55.2069 147.885 54.8417 147.628 54.5604C147.372 54.2792 147.035 54.1406 146.614 54.1406C146.193 54.1406 145.852 54.2792 145.59 54.552C145.329 54.8249 145.199 55.1901 145.199 55.6393V60.1186C145.199 60.169 145.182 60.211 145.148 60.2446C145.115 60.2782 145.073 60.295 145.022 60.295H143.666C143.616 60.295 143.573 60.2782 143.54 60.2446C143.506 60.211 143.489 60.169 143.489 60.1186V50.1861C143.489 50.1357 143.506 50.0937 143.54 50.0601C143.573 50.0266 143.616 50.0098 143.666 50.0098H145.022C145.073 50.0098 145.115 50.0266 145.148 50.0601C145.182 50.0937 145.199 50.1357 145.199 50.1861V53.4354C145.199 53.4648 145.207 53.4857 145.228 53.4941C145.249 53.5025 145.262 53.4941 145.27 53.4648C145.675 52.94 146.285 52.6755 147.098 52.6755Z" fill="white"/>
<path d="M157.798 55.7012C157.836 55.9447 157.857 56.2218 157.857 56.524L157.844 56.9774C157.844 57.0949 157.785 57.1537 157.667 57.1537H153.057C153.006 57.1537 152.981 57.1789 152.981 57.2251C153.01 57.5483 153.057 57.7666 153.116 57.8884C153.351 58.5936 153.924 58.9505 154.842 58.9589C155.511 58.9589 156.042 58.686 156.434 58.1361C156.472 58.0773 156.522 58.0479 156.581 58.0479C156.619 58.0479 156.657 58.0647 156.686 58.0941L157.6 58.8413C157.688 58.9085 157.701 58.9883 157.642 59.0764C157.339 59.5088 156.93 59.8405 156.425 60.0756C155.92 60.3106 155.356 60.4282 154.737 60.4282C153.97 60.4282 153.318 60.2561 152.783 59.9118C152.248 59.5676 151.856 59.089 151.612 58.4719C151.385 57.9429 151.275 57.2083 151.275 56.2679C151.275 55.7012 151.334 55.2394 151.452 54.8868C151.65 54.2025 152.021 53.6609 152.564 53.2621C153.111 52.8633 153.764 52.666 154.53 52.666C156.463 52.6744 157.554 53.6819 157.798 55.7012ZM154.526 54.1437C154.164 54.1437 153.861 54.2361 153.621 54.4166C153.381 54.5971 153.212 54.849 153.111 55.1722C153.052 55.3402 153.014 55.5543 152.993 55.8187C152.972 55.8691 152.993 55.8943 153.052 55.8943H156.042C156.093 55.8943 156.118 55.8691 156.118 55.8187C156.097 55.5753 156.067 55.3863 156.029 55.2604C155.941 54.9078 155.768 54.6349 155.507 54.4376C155.246 54.2403 154.922 54.1437 154.526 54.1437Z" fill="white"/>
<path d="M162.219 52.6758C162.838 52.6758 163.381 52.7849 163.857 52.999C164.329 53.2131 164.691 53.5112 164.948 53.889C165.205 54.2668 165.331 54.695 165.331 55.1736V60.1273C165.331 60.1777 165.314 60.2197 165.28 60.2532C165.247 60.2868 165.205 60.3036 165.154 60.3036H163.798C163.748 60.3036 163.706 60.2868 163.672 60.2532C163.638 60.2197 163.621 60.1777 163.621 60.1273V59.6571C163.621 59.6277 163.613 59.6109 163.592 59.6067C163.571 59.6025 163.554 59.6109 163.533 59.6277C163.053 60.1567 162.354 60.4212 161.44 60.4212C160.703 60.4212 160.097 60.2364 159.621 59.8628C159.145 59.4892 158.905 58.9393 158.905 58.2004C158.905 57.4364 159.175 56.8402 159.71 56.4162C160.244 55.988 160.998 55.7781 161.971 55.7781H163.546C163.596 55.7781 163.621 55.7529 163.621 55.7026V55.3499C163.621 54.9679 163.508 54.6698 163.284 54.4599C163.057 54.25 162.72 54.1451 162.27 54.1451C161.895 54.1451 161.596 54.2123 161.364 54.3424C161.133 54.4767 160.99 54.6573 160.931 54.8923C160.901 55.0099 160.834 55.0603 160.724 55.0393L159.293 54.863C159.242 54.8546 159.2 54.8378 159.166 54.8126C159.133 54.7874 159.12 54.758 159.128 54.716C159.208 54.1199 159.528 53.6287 160.093 53.2467C160.657 52.8647 161.364 52.6758 162.219 52.6758ZM161.865 59.0652C162.345 59.0652 162.758 58.9392 163.103 58.6832C163.449 58.4271 163.617 58.1038 163.617 57.7134V57.0249C163.617 56.9746 163.592 56.9494 163.541 56.9494H162.303C161.781 56.9494 161.373 57.0459 161.074 57.2432C160.775 57.4406 160.623 57.7176 160.623 58.0787C160.623 58.3935 160.737 58.6328 160.969 58.8049C161.204 58.9812 161.503 59.0652 161.865 59.0652Z" fill="white"/>
<path d="M167.217 60.3008C167.166 60.3008 167.124 60.284 167.091 60.2504C167.057 60.2168 167.04 60.1749 167.04 60.1245V50.1919C167.04 50.1416 167.057 50.0996 167.091 50.066C167.124 50.0324 167.166 50.0156 167.217 50.0156H168.573C168.623 50.0156 168.665 50.0324 168.699 50.066C168.733 50.0996 168.75 50.1416 168.75 50.1919V60.1245C168.75 60.1749 168.733 60.2168 168.699 60.2504C168.665 60.284 168.623 60.3008 168.573 60.3008H167.217Z" fill="white"/>
<path d="M174.556 53.9982C174.556 54.0486 174.539 54.0906 174.506 54.1242C174.472 54.1577 174.43 54.1745 174.379 54.1745H172.876C172.826 54.1745 172.804 54.1997 172.804 54.2501V57.789C172.804 58.1627 172.884 58.4314 173.049 58.5951C173.209 58.763 173.47 58.8428 173.823 58.8428H174.266C174.316 58.8428 174.358 58.8595 174.392 58.8931C174.426 58.9267 174.442 58.9687 174.442 59.0191V60.119C174.442 60.2281 174.384 60.2911 174.266 60.3121L173.499 60.3289C172.724 60.3289 172.143 60.1945 171.76 59.93C171.377 59.6656 171.179 59.166 171.171 58.4314V54.2459C171.171 54.1955 171.145 54.1703 171.095 54.1703H170.257C170.206 54.1703 170.164 54.1536 170.131 54.12C170.097 54.0864 170.08 54.0444 170.08 53.994V52.9655C170.08 52.9151 170.097 52.8732 170.131 52.8396C170.164 52.806 170.206 52.7892 170.257 52.7892H171.095C171.145 52.7892 171.171 52.764 171.171 52.7178V50.9966C171.171 50.9463 171.188 50.9043 171.221 50.8707C171.255 50.8371 171.297 50.8203 171.348 50.8203H172.632C172.682 50.8203 172.724 50.8371 172.758 50.8707C172.792 50.9043 172.809 50.9463 172.809 50.9966V52.7178C172.809 52.7682 172.834 52.7892 172.88 52.7892H174.379C174.43 52.7892 174.472 52.806 174.506 52.8396C174.539 52.8732 174.556 52.9151 174.556 52.9655V53.9982Z" fill="white"/>
<path d="M179.685 52.6755C180.481 52.6755 181.117 52.9106 181.593 53.3808C182.068 53.851 182.308 54.4933 182.308 55.3035V60.1228C182.308 60.1732 182.292 60.2152 182.258 60.2488C182.224 60.2824 182.182 60.2992 182.132 60.2992H180.776C180.725 60.2992 180.683 60.2824 180.649 60.2488C180.616 60.2152 180.599 60.1732 180.599 60.1228V55.6561C180.599 55.2069 180.473 54.8417 180.216 54.5604C179.959 54.2792 179.622 54.1406 179.197 54.1406C178.776 54.1406 178.435 54.2792 178.173 54.552C177.912 54.8249 177.782 55.1901 177.782 55.6393V60.1186C177.782 60.169 177.765 60.211 177.731 60.2446C177.698 60.2782 177.656 60.295 177.605 60.295H176.249C176.199 60.295 176.156 60.2782 176.123 60.2446C176.089 60.211 176.072 60.169 176.072 60.1186V50.1861C176.072 50.1357 176.089 50.0937 176.123 50.0601C176.156 50.0266 176.199 50.0098 176.249 50.0098H177.605C177.656 50.0098 177.698 50.0266 177.731 50.0601C177.765 50.0937 177.782 50.1357 177.782 50.1861V53.4354C177.782 53.4648 177.79 53.4857 177.811 53.4941C177.832 53.5025 177.845 53.4941 177.858 53.4648C178.258 52.94 178.868 52.6755 179.685 52.6755Z" fill="white"/>
<path d="M196.386 54.7328C196.563 55.2324 196.651 55.8453 196.651 56.5716C196.651 57.2684 196.567 57.8646 196.403 58.3641C196.188 59.0106 195.838 59.5144 195.363 59.8754C194.887 60.2364 194.285 60.417 193.556 60.417C192.857 60.417 192.297 60.1693 191.876 59.6697C191.855 59.6487 191.838 59.6445 191.817 59.6529C191.796 59.6613 191.788 59.6823 191.788 59.7117V62.9022C191.788 62.9526 191.771 62.9946 191.737 63.0281C191.703 63.0617 191.661 63.0785 191.611 63.0785H190.255C190.204 63.0785 190.162 63.0617 190.129 63.0281C190.095 62.9946 190.078 62.9526 190.078 62.9022V52.9696C190.078 52.9193 190.095 52.8773 190.129 52.8437C190.162 52.8101 190.204 52.7933 190.255 52.7933H191.611C191.661 52.7933 191.703 52.8101 191.737 52.8437C191.771 52.8773 191.788 52.9193 191.788 52.9696V53.4104C191.788 53.4398 191.796 53.4608 191.817 53.4692C191.838 53.4776 191.855 53.4692 191.876 53.4398C192.31 52.9319 192.874 52.6758 193.569 52.6758C194.268 52.6758 194.857 52.8563 195.337 53.2215C195.822 53.5826 196.171 54.0863 196.386 54.7328ZM194.47 58.3305C194.765 57.8813 194.912 57.281 194.912 56.538C194.912 55.8243 194.794 55.2618 194.558 54.8504C194.285 54.3718 193.864 54.1325 193.304 54.1325C192.794 54.1325 192.411 54.3676 192.154 54.8378C191.927 55.2198 191.817 55.7865 191.817 56.5422C191.817 57.3146 191.939 57.9023 192.188 58.3053C192.445 58.7377 192.811 58.9518 193.291 58.9518C193.813 58.9476 194.205 58.7419 194.47 58.3305Z" fill="white"/>
<path d="M201.808 52.7051C202.124 52.7051 202.398 52.768 202.634 52.8982C202.714 52.936 202.743 53.0115 202.722 53.1207L202.469 54.4431C202.461 54.5606 202.389 54.5942 202.263 54.548C202.116 54.4976 201.943 54.4724 201.749 54.4724C201.623 54.4724 201.522 54.4766 201.455 54.4892C201.042 54.5102 200.697 54.653 200.423 54.9216C200.149 55.1903 200.01 55.5429 200.01 55.9711V60.1314C200.01 60.1818 199.994 60.2238 199.96 60.2573C199.926 60.2909 199.884 60.3077 199.834 60.3077H198.478C198.427 60.3077 198.385 60.2909 198.351 60.2573C198.318 60.2238 198.301 60.1818 198.301 60.1314V52.9738C198.301 52.9234 198.318 52.8814 198.351 52.8478C198.385 52.8142 198.427 52.7974 198.478 52.7974H199.834C199.884 52.7974 199.926 52.8142 199.96 52.8478C199.994 52.8814 200.01 52.9234 200.01 52.9738V53.637C200.01 53.6748 200.019 53.7 200.031 53.7042C200.048 53.7084 200.065 53.6958 200.082 53.6664C200.499 53.0241 201.071 52.7051 201.808 52.7051Z" fill="white"/>
<path d="M206.895 60.4156C206.121 60.4156 205.455 60.2183 204.9 59.8279C204.344 59.4374 203.952 58.8917 203.729 58.1948C203.56 57.6659 203.48 57.1075 203.48 56.5198C203.48 55.8943 203.56 55.336 203.716 54.8448C203.944 54.1605 204.335 53.6232 204.895 53.2412C205.455 52.8591 206.129 52.666 206.912 52.666C207.658 52.666 208.306 52.8591 208.849 53.2412C209.392 53.6232 209.78 54.1521 210.007 54.828C210.184 55.2982 210.272 55.8565 210.272 56.503C210.272 57.1201 210.188 57.6785 210.024 58.178C209.797 58.8749 209.409 59.4207 208.858 59.8153C208.306 60.2183 207.649 60.4156 206.895 60.4156ZM206.895 58.9463C207.258 58.9463 207.569 58.8413 207.83 58.6356C208.091 58.4299 208.281 58.1403 208.399 57.7666C208.496 57.4434 208.546 57.032 208.546 56.5324C208.546 56.0035 208.496 55.592 208.399 55.2982C208.289 54.9246 208.104 54.6391 207.839 54.4376C207.573 54.2361 207.249 54.1353 206.866 54.1353C206.504 54.1353 206.188 54.2361 205.923 54.4376C205.657 54.6391 205.464 54.9246 205.35 55.2982C205.253 55.6424 205.203 56.0538 205.203 56.5324C205.203 57.011 205.253 57.4224 205.35 57.7666C205.46 58.1403 205.649 58.4299 205.919 58.6356C206.184 58.8455 206.512 58.9463 206.895 58.9463Z" fill="white"/>
<path d="M212.803 51.7644C212.499 51.7644 212.247 51.6679 212.049 51.4706C211.851 51.2733 211.754 51.0256 211.754 50.7191C211.754 50.4169 211.851 50.165 212.049 49.9677C212.247 49.7704 212.495 49.6738 212.803 49.6738C213.106 49.6738 213.358 49.7704 213.556 49.9677C213.754 50.165 213.851 50.4127 213.851 50.7191C213.851 51.0214 213.754 51.2733 213.556 51.4706C213.358 51.6637 213.11 51.7644 212.803 51.7644ZM210.402 63.3132C210.285 63.3132 210.226 63.2545 210.226 63.1369V62.0496C210.226 61.9321 210.289 61.8775 210.419 61.8859C210.979 61.8943 211.379 61.7936 211.615 61.5837C211.851 61.3738 211.969 61.0295 211.969 60.5467L211.952 52.9651C211.952 52.9147 211.969 52.8727 212.003 52.8391C212.036 52.8056 212.078 52.7888 212.129 52.7888H213.485C213.535 52.7888 213.577 52.8056 213.611 52.8391C213.645 52.8727 213.662 52.9147 213.662 52.9651V60.5341C213.662 61.2478 213.561 61.8062 213.358 62.2092C213.156 62.6122 212.824 62.9018 212.356 63.0782C211.889 63.2545 211.236 63.33 210.402 63.3132Z" fill="white"/>
<path d="M221.94 55.7012C221.978 55.9447 221.999 56.2218 221.999 56.524L221.983 56.9774C221.983 57.0949 221.924 57.1537 221.806 57.1537H217.191C217.14 57.1537 217.119 57.1789 217.119 57.2251C217.149 57.5483 217.191 57.7666 217.254 57.8884C217.49 58.5936 218.062 58.9505 218.98 58.9589C219.65 58.9589 220.18 58.686 220.572 58.1361C220.61 58.0773 220.66 58.0479 220.719 58.0479C220.757 58.0479 220.791 58.0647 220.825 58.0941L221.738 58.8413C221.827 58.9085 221.839 58.9883 221.785 59.0764C221.482 59.5088 221.073 59.8405 220.568 60.0756C220.062 60.3106 219.498 60.4282 218.879 60.4282C218.113 60.4282 217.46 60.2561 216.925 59.9118C216.391 59.5676 215.999 59.089 215.755 58.4719C215.527 57.9429 215.418 57.2083 215.418 56.2679C215.418 55.7012 215.477 55.2394 215.595 54.8868C215.793 54.2025 216.163 53.6609 216.706 53.2621C217.254 52.8633 217.907 52.666 218.673 52.666C220.606 52.6744 221.696 53.6819 221.94 55.7012ZM218.669 54.1437C218.307 54.1437 218.003 54.2361 217.763 54.4166C217.523 54.5971 217.355 54.849 217.254 55.1722C217.195 55.3402 217.157 55.5543 217.136 55.8187C217.115 55.8691 217.136 55.8943 217.195 55.8943H220.189C220.239 55.8943 220.26 55.8691 220.26 55.8187C220.239 55.5753 220.21 55.3863 220.172 55.2604C220.084 54.9078 219.911 54.6349 219.65 54.4376C219.389 54.2403 219.064 54.1437 218.669 54.1437Z" fill="white"/>
<path d="M226.703 60.4172C225.945 60.4172 225.292 60.2241 224.741 59.8379C224.189 59.4517 223.806 58.9311 223.591 58.2721C223.435 57.8313 223.355 57.2435 223.355 56.5089C223.355 55.8036 223.435 55.2243 223.591 54.7751C223.798 54.1286 224.177 53.6164 224.732 53.2386C225.288 52.8608 225.945 52.6719 226.699 52.6719C227.465 52.6719 228.135 52.865 228.703 53.247C229.272 53.629 229.651 54.1076 229.84 54.6869C229.891 54.8423 229.924 55.0018 229.941 55.1571V55.1865C229.941 55.283 229.886 55.3418 229.777 55.3628L228.451 55.5517H228.421C228.333 55.5517 228.274 55.5013 228.244 55.4048C228.244 55.3544 228.24 55.3166 228.232 55.2872C228.211 55.2075 228.194 55.1403 228.173 55.0815C228.084 54.8087 227.907 54.582 227.642 54.4057C227.377 54.2293 227.061 54.1412 226.699 54.1412C226.324 54.1412 226.008 54.2377 225.747 54.4267C225.486 54.6156 225.313 54.88 225.225 55.2117C225.128 55.5265 225.078 55.9589 225.078 56.5173C225.078 57.0546 225.12 57.4912 225.208 57.8271C225.305 58.1713 225.482 58.44 225.739 58.6415C225.996 58.843 226.311 58.9437 226.699 58.9437C227.074 58.9437 227.394 58.8472 227.663 58.6583C227.933 58.4694 228.109 58.2091 228.185 57.8858C228.194 57.8648 228.198 57.8439 228.198 57.8145C228.206 57.8061 228.215 57.7893 228.215 57.7683C228.244 57.6507 228.312 57.6004 228.421 57.6214L229.747 57.8271C229.798 57.8355 229.84 57.8606 229.874 57.8942C229.907 57.9278 229.92 57.974 229.912 58.0328C229.882 58.1881 229.857 58.3014 229.836 58.3686C229.651 58.9941 229.272 59.4937 228.699 59.8589C228.135 60.2325 227.469 60.4172 226.703 60.4172Z" fill="white"/>
<path d="M235.381 53.9982C235.381 54.0486 235.365 54.0906 235.331 54.1242C235.297 54.1577 235.255 54.1745 235.204 54.1745H233.701C233.651 54.1745 233.63 54.1997 233.63 54.2501V57.789C233.63 58.1627 233.71 58.4314 233.874 58.5951C234.038 58.763 234.295 58.8428 234.649 58.8428H235.091C235.141 58.8428 235.183 58.8595 235.217 58.8931C235.251 58.9267 235.268 58.9687 235.268 59.0191V60.119C235.268 60.2281 235.209 60.2911 235.091 60.3121L234.324 60.3289C233.55 60.3289 232.969 60.1945 232.585 59.93C232.202 59.6656 232.004 59.166 231.996 58.4314V54.2459C231.996 54.1955 231.971 54.1703 231.92 54.1703H231.082C231.032 54.1703 230.989 54.1536 230.956 54.12C230.922 54.0864 230.905 54.0444 230.905 53.994V52.9655C230.905 52.9151 230.922 52.8732 230.956 52.8396C230.989 52.806 231.032 52.7892 231.082 52.7892H231.92C231.971 52.7892 231.996 52.764 231.996 52.7178V50.9966C231.996 50.9463 232.013 50.9043 232.046 50.8707C232.08 50.8371 232.122 50.8203 232.173 50.8203H233.457C233.508 50.8203 233.55 50.8371 233.583 50.8707C233.617 50.9043 233.634 50.9463 233.634 50.9966V52.7178C233.634 52.7682 233.659 52.7892 233.705 52.7892H235.209C235.259 52.7892 235.301 52.806 235.335 52.8396C235.369 52.8732 235.386 52.9151 235.386 52.9655V53.9982H235.381Z" fill="white"/>
<path d="M239.701 60.3878C239.082 60.3878 238.539 60.2954 238.072 60.1149C237.604 59.9344 237.242 59.6825 236.99 59.3677C236.733 59.0486 236.606 58.696 236.606 58.3013V58.167C236.606 58.1166 236.623 58.0747 236.657 58.0411C236.691 58.0075 236.733 57.9907 236.783 57.9907H238.08C238.131 57.9907 238.173 58.0075 238.207 58.0411C238.24 58.0747 238.257 58.1166 238.257 58.167V58.1964C238.257 58.4399 238.392 58.654 238.661 58.8345C238.931 59.015 239.272 59.1074 239.685 59.1074C240.076 59.1074 240.396 59.0276 240.645 58.8639C240.889 58.7044 241.015 58.4987 241.015 58.2552C241.015 58.0285 240.914 57.8606 240.712 57.7472C240.51 57.6339 240.186 57.5163 239.731 57.3862L239.171 57.2099C238.67 57.0629 238.249 56.9076 237.903 56.7397C237.558 56.5718 237.268 56.3451 237.032 56.0554C236.796 55.7657 236.678 55.3963 236.678 54.9471C236.678 54.2628 236.948 53.7171 237.491 53.3099C238.03 52.9027 238.741 52.7012 239.626 52.7012C240.224 52.7012 240.75 52.7977 241.2 52.9866C241.651 53.1798 242 53.4442 242.245 53.7801C242.489 54.1159 242.615 54.5021 242.615 54.9345C242.615 54.9849 242.598 55.0269 242.565 55.0605C242.531 55.094 242.489 55.1108 242.438 55.1108H241.188C241.137 55.1108 241.095 55.094 241.061 55.0605C241.028 55.0269 241.011 54.9849 241.011 54.9345C241.011 54.6784 240.885 54.4685 240.636 54.2964C240.383 54.1243 240.042 54.0403 239.613 54.0403C239.23 54.0403 238.918 54.1117 238.678 54.2544C238.438 54.3972 238.316 54.5945 238.316 54.8506C238.316 55.0857 238.43 55.2662 238.661 55.3879C238.893 55.5097 239.276 55.644 239.819 55.7909L240.143 55.8791C240.666 56.0344 241.099 56.1939 241.453 56.3577C241.807 56.5214 242.106 56.7439 242.354 57.0335C242.598 57.3232 242.725 57.6968 242.725 58.1586C242.725 58.8555 242.451 59.4012 241.899 59.7959C241.348 60.1905 240.615 60.3878 239.701 60.3878Z" fill="white"/>
<path d="M59.3286 75.4135C59.2191 75.4135 59.1517 75.3631 59.1222 75.2666L57.0126 68.0963L57 68.0376C57 67.941 57.0547 67.8906 57.16 67.8906H58.5622C58.6717 67.8906 58.7391 67.941 58.7685 68.0376L59.9897 72.9451C59.9981 72.9744 60.0149 72.987 60.036 72.987C60.057 72.987 60.0697 72.9744 60.0781 72.9451L61.3582 68.0376C61.3876 67.941 61.455 67.8906 61.5645 67.8906H62.794C62.9035 67.8906 62.9709 67.941 63.0004 68.0376L64.3141 72.9451C64.3226 72.9744 64.3394 72.987 64.3605 72.987C64.3815 72.987 64.3941 72.9744 64.4026 72.9451L65.7163 68.0376C65.7458 67.941 65.8132 67.8906 65.9227 67.8906L67.308 67.92C67.367 67.92 67.4091 67.9368 67.4343 67.9704C67.4596 68.004 67.468 68.0501 67.4554 68.1089L65.3331 75.2624C65.3037 75.3589 65.2405 75.4093 65.1395 75.4093H63.7246C63.6151 75.4093 63.5478 75.3589 63.5183 75.2624L62.2214 70.7831C62.213 70.7537 62.1961 70.7411 62.1751 70.7411C62.154 70.7411 62.1414 70.7537 62.1329 70.7831L60.9371 75.2624C60.9076 75.3589 60.8402 75.4093 60.7308 75.4093H59.3286V75.4135Z" fill="white"/>
<path d="M69.7337 66.8774C69.4305 66.8774 69.1779 66.7809 68.9842 66.5836C68.7863 66.3863 68.6895 66.1386 68.6895 65.8363C68.6895 65.5341 68.7863 65.2822 68.9842 65.0849C69.1821 64.8876 69.4305 64.791 69.7337 64.791C70.0369 64.791 70.2895 64.8876 70.4832 65.0849C70.6812 65.2822 70.778 65.5299 70.778 65.8363C70.778 66.1386 70.6812 66.3905 70.4832 66.5836C70.2895 66.7767 70.0369 66.8774 69.7337 66.8774ZM69.0263 75.412C68.9758 75.412 68.9337 75.3952 68.9 75.3617C68.8663 75.3281 68.8495 75.2861 68.8495 75.2357V68.0655C68.8495 68.0151 68.8663 67.9731 68.9 67.9395C68.9337 67.906 68.9758 67.8892 69.0263 67.8892H70.3822C70.4327 67.8892 70.4748 67.906 70.5085 67.9395C70.5422 67.9731 70.559 68.0151 70.559 68.0655V75.2357C70.559 75.2861 70.5422 75.3281 70.5085 75.3617C70.4748 75.3952 70.4327 75.412 70.3822 75.412H69.0263Z" fill="white"/>
<path d="M76.5122 69.1118C76.5122 69.1622 76.4954 69.2042 76.4617 69.2377C76.428 69.2713 76.3859 69.2881 76.3353 69.2881H74.8321C74.7816 69.2881 74.7563 69.3133 74.7563 69.3637V72.9026C74.7563 73.2762 74.8363 73.5449 75.0005 73.7086C75.1648 73.8766 75.4216 73.9563 75.7753 73.9563H76.2174C76.268 73.9563 76.3101 73.9731 76.3438 74.0067C76.3775 74.0403 76.3943 74.0823 76.3943 74.1326V75.2325C76.3943 75.3417 76.3353 75.4047 76.2174 75.4256L75.4511 75.4382C74.6763 75.4382 74.0952 75.3039 73.712 75.0394C73.3288 74.7749 73.1309 74.2754 73.1225 73.5407V69.3553C73.1225 69.3049 73.0973 69.2797 73.0509 69.2797H72.213C72.1625 69.2797 72.1204 69.2629 72.0867 69.2293C72.053 69.1958 72.0361 69.1538 72.0361 69.1034V68.0749C72.0361 68.0245 72.053 67.9825 72.0867 67.9489C72.1204 67.9154 72.1625 67.8986 72.213 67.8986H73.0509C73.1015 67.8986 73.1225 67.8734 73.1225 67.8272V66.106C73.1225 66.0556 73.1394 66.0136 73.173 65.9801C73.2067 65.9465 73.2488 65.9297 73.2994 65.9297H74.5837C74.6342 65.9297 74.6763 65.9465 74.71 65.9801C74.7437 66.0136 74.7605 66.0556 74.7605 66.106V67.8272C74.7605 67.8776 74.7858 67.8986 74.8363 67.8986H76.3396C76.3901 67.8986 76.4322 67.9154 76.4659 67.9489C76.4996 67.9825 76.5164 68.0245 76.5164 68.0749V69.1118H76.5122Z" fill="white"/>
<path d="M81.6412 67.7885C82.437 67.7885 83.0729 68.0236 83.5487 68.4938C84.0245 68.964 84.2645 69.6063 84.2645 70.4165V75.2358C84.2645 75.2862 84.2477 75.3282 84.214 75.3618C84.1803 75.3953 84.1382 75.4121 84.0876 75.4121H82.7318C82.6812 75.4121 82.6391 75.3953 82.6054 75.3618C82.5718 75.3282 82.5549 75.2862 82.5549 75.2358V70.7691C82.5549 70.3199 82.4286 69.9547 82.1717 69.6734C81.9149 69.3922 81.578 69.2536 81.1527 69.2536C80.7317 69.2536 80.3906 69.3922 80.1295 69.665C79.8684 69.9379 79.7379 70.3031 79.7379 70.7523V75.2358C79.7379 75.2862 79.7211 75.3282 79.6874 75.3618C79.6537 75.3953 79.6116 75.4121 79.5611 75.4121H78.2052C78.1546 75.4121 78.1125 75.3953 78.0789 75.3618C78.0452 75.3282 78.0283 75.2862 78.0283 75.2358V65.3033C78.0283 65.2529 78.0452 65.2109 78.0789 65.1773C78.1125 65.1437 78.1546 65.127 78.2052 65.127H79.5611C79.6116 65.127 79.6537 65.1437 79.6874 65.1773C79.7211 65.2109 79.7379 65.2529 79.7379 65.3033V68.5483C79.7379 68.5777 79.7463 68.5987 79.7674 68.6071C79.7884 68.6155 79.8011 68.6071 79.8095 68.5777C80.2179 68.053 80.8243 67.7885 81.6412 67.7885Z" fill="white"/>
<path d="M92.6067 67.7885C93.4025 67.7885 94.0383 68.0236 94.5142 68.4938C94.99 68.964 95.23 69.6063 95.23 70.4165V75.2358C95.23 75.2862 95.2132 75.3282 95.1795 75.3618C95.1458 75.3953 95.1037 75.4121 95.0531 75.4121H93.6973C93.6468 75.4121 93.6046 75.3953 93.571 75.3618C93.5373 75.3282 93.5204 75.2862 93.5204 75.2358V70.7691C93.5204 70.3199 93.3941 69.9547 93.1372 69.6734C92.8804 69.3922 92.5435 69.2536 92.1224 69.2536C91.7014 69.2536 91.3603 69.3922 91.0992 69.665C90.8382 69.9379 90.7076 70.3031 90.7076 70.7523V75.2358C90.7076 75.2862 90.6908 75.3282 90.6571 75.3618C90.6234 75.3953 90.5813 75.4121 90.5308 75.4121H89.1749C89.1244 75.4121 89.0823 75.3953 89.0486 75.3618C89.0149 75.3282 88.998 75.2862 88.998 75.2358V65.3033C88.998 65.2529 89.0149 65.2109 89.0486 65.1773C89.0823 65.1437 89.1244 65.127 89.1749 65.127H90.5308C90.5813 65.127 90.6234 65.1437 90.6571 65.1773C90.6908 65.2109 90.7076 65.2529 90.7076 65.3033V68.5483C90.7076 68.5777 90.716 68.5987 90.7371 68.6071C90.7581 68.6155 90.7708 68.6071 90.7792 68.5777C91.1834 68.053 91.7898 67.7885 92.6067 67.7885Z" fill="white"/>
<path d="M101.466 68.0829C101.466 68.0325 101.483 67.9905 101.516 67.9569C101.55 67.9233 101.592 67.9065 101.643 67.9065H102.986C103.036 67.9065 103.078 67.9233 103.112 67.9569C103.146 67.9905 103.163 68.0325 103.163 68.0829V75.2405C103.163 75.2909 103.146 75.3329 103.112 75.3665C103.078 75.4 103.036 75.4168 102.986 75.4168H101.643C101.592 75.4168 101.55 75.4 101.516 75.3665C101.483 75.3329 101.466 75.2909 101.466 75.2405V74.7703C101.466 74.7409 101.457 74.72 101.436 74.7116C101.415 74.7032 101.398 74.7116 101.377 74.7409C100.973 75.2615 100.371 75.5176 99.5666 75.5176C98.8213 75.5176 98.1939 75.3035 97.6886 74.8711C97.1833 74.4387 96.9307 73.8258 96.9307 73.0323V68.0787C96.9307 68.0283 96.9475 67.9863 96.9812 67.9527C97.0149 67.9191 97.057 67.9023 97.1075 67.9023H98.4634C98.5139 67.9023 98.556 67.9191 98.5897 67.9527C98.6234 67.9863 98.6402 68.0283 98.6402 68.0787V72.5454C98.6402 73.0072 98.7623 73.3724 99.0024 73.6453C99.2424 73.9181 99.5793 74.0567 100.013 74.0567C100.455 74.0567 100.809 73.9181 101.074 73.6453C101.339 73.3724 101.474 73.003 101.474 72.5454V68.0829H101.466Z" fill="white"/>
<path d="M113.049 67.7891C113.807 67.7891 114.397 68.0158 114.826 68.4733C115.256 68.9267 115.466 69.5648 115.466 70.3751V75.2406C115.466 75.291 115.449 75.3329 115.416 75.3665C115.382 75.4001 115.34 75.4169 115.289 75.4169H113.95C113.9 75.4169 113.858 75.4001 113.824 75.3665C113.79 75.3329 113.774 75.291 113.774 75.2406V70.7319C113.774 70.2827 113.651 69.9259 113.411 69.6572C113.171 69.3927 112.847 69.2584 112.447 69.2584C112.043 69.2584 111.714 69.3927 111.458 69.6572C111.201 69.9217 111.074 70.2743 111.074 70.7151V75.2406C111.074 75.291 111.058 75.3329 111.024 75.3665C110.99 75.4001 110.948 75.4169 110.898 75.4169H109.554C109.504 75.4169 109.462 75.4001 109.428 75.3665C109.394 75.3329 109.378 75.291 109.378 75.2406V70.7319C109.378 70.2827 109.255 69.9259 109.007 69.6572C108.763 69.3927 108.439 69.2584 108.034 69.2584C107.66 69.2584 107.352 69.3675 107.112 69.5816C106.872 69.7957 106.733 70.0896 106.691 70.4632V75.2406C106.691 75.291 106.674 75.3329 106.64 75.3665C106.607 75.4001 106.565 75.4169 106.514 75.4169H105.158C105.108 75.4169 105.066 75.4001 105.032 75.3665C104.998 75.3329 104.981 75.291 104.981 75.2406V68.0829C104.981 68.0325 104.998 67.9906 105.032 67.957C105.066 67.9234 105.108 67.9066 105.158 67.9066H106.514C106.565 67.9066 106.607 67.9234 106.64 67.957C106.674 67.9906 106.691 68.0325 106.691 68.0829V68.5699C106.691 68.5993 106.699 68.6203 106.721 68.6287C106.742 68.6371 106.758 68.6287 106.779 68.5993C106.994 68.3264 107.264 68.1207 107.584 67.9906C107.904 67.8562 108.257 67.7933 108.653 67.7933C109.133 67.7933 109.559 67.8898 109.921 68.0871C110.283 68.2844 110.565 68.5657 110.759 68.9393C110.788 68.9771 110.822 68.9771 110.86 68.9393C111.074 68.5489 111.373 68.2592 111.757 68.0703C112.148 67.8814 112.578 67.7891 113.049 67.7891Z" fill="white"/>
<path d="M120.077 67.7891C120.696 67.7891 121.243 67.8982 121.715 68.1123C122.186 68.3264 122.548 68.6245 122.805 69.0023C123.062 69.3801 123.188 69.8083 123.188 70.2869V75.2406C123.188 75.291 123.172 75.3329 123.138 75.3665C123.104 75.4001 123.062 75.4169 123.012 75.4169H121.656C121.605 75.4169 121.563 75.4001 121.529 75.3665C121.496 75.3329 121.479 75.291 121.479 75.2406V74.7704C121.479 74.741 121.47 74.7242 121.449 74.72C121.428 74.7158 121.411 74.7242 121.39 74.741C120.91 75.27 120.211 75.5344 119.298 75.5344C118.561 75.5344 117.954 75.3497 117.479 74.9761C117.003 74.6025 116.763 74.0525 116.763 73.3137C116.763 72.5496 117.032 71.9535 117.567 71.5295C118.102 71.1013 118.855 70.8914 119.828 70.8914H121.403C121.454 70.8914 121.479 70.8662 121.479 70.8158V70.4632C121.479 70.0812 121.365 69.7831 121.138 69.5732C120.91 69.3633 120.573 69.2584 120.123 69.2584C119.748 69.2584 119.449 69.3255 119.218 69.4557C118.986 69.59 118.843 69.7705 118.784 70.0056C118.754 70.1232 118.687 70.1735 118.578 70.1526L117.146 69.9762C117.095 69.9678 117.053 69.951 117.02 69.9259C116.986 69.9007 116.973 69.8713 116.982 69.8293C117.062 69.2332 117.382 68.742 117.946 68.36C118.51 67.978 119.222 67.7891 120.077 67.7891ZM119.723 74.1785C120.203 74.1785 120.616 74.0525 120.961 73.7965C121.306 73.5404 121.479 73.2171 121.479 72.8267V72.1382C121.479 72.0879 121.454 72.0627 121.403 72.0627H120.165C119.643 72.0627 119.234 72.1592 118.935 72.3565C118.636 72.5538 118.485 72.8309 118.485 73.1919C118.485 73.5068 118.599 73.7461 118.83 73.9182C119.062 74.0945 119.361 74.1785 119.723 74.1785Z" fill="white"/>
<path d="M128.507 67.7891C129.303 67.7891 129.939 68.0241 130.415 68.4943C130.89 68.9645 131.13 69.6068 131.13 70.417V75.2364C131.13 75.2868 131.114 75.3287 131.08 75.3623C131.046 75.3959 131.004 75.4127 130.954 75.4127H129.598C129.547 75.4127 129.505 75.3959 129.471 75.3623C129.438 75.3287 129.421 75.2868 129.421 75.2364V70.7697C129.421 70.3205 129.295 69.9553 129.038 69.674C128.781 69.3927 128.444 69.2542 128.023 69.2542C127.602 69.2542 127.261 69.3927 127 69.6656C126.739 69.9385 126.608 70.3037 126.608 70.7529V75.2364C126.608 75.2868 126.591 75.3287 126.557 75.3623C126.524 75.3959 126.482 75.4127 126.431 75.4127H125.075C125.025 75.4127 124.983 75.3959 124.949 75.3623C124.915 75.3287 124.898 75.2868 124.898 75.2364V68.0787C124.898 68.0284 124.915 67.9864 124.949 67.9528C124.983 67.9192 125.025 67.9024 125.075 67.9024H126.431C126.482 67.9024 126.524 67.9192 126.557 67.9528C126.591 67.9864 126.608 68.0284 126.608 68.0787V68.5489C126.608 68.5783 126.616 68.5993 126.637 68.6077C126.659 68.6161 126.671 68.6077 126.68 68.5783C127.084 68.0535 127.69 67.7891 128.507 67.7891Z" fill="white"/>
<path d="M132.592 71.7271C132.541 71.7271 132.499 71.7103 132.466 71.6767C132.432 71.6432 132.415 71.6012 132.415 71.5508V70.4341C132.415 70.3838 132.432 70.3418 132.466 70.3082C132.499 70.2746 132.541 70.2578 132.592 70.2578H137.236C137.287 70.2578 137.329 70.2746 137.363 70.3082C137.396 70.3418 137.413 70.3838 137.413 70.4341V71.5508C137.413 71.6012 137.396 71.6432 137.363 71.6767C137.329 71.7103 137.287 71.7271 137.236 71.7271H132.592Z" fill="white"/>
<path d="M142.791 75.5305C142.033 75.5305 141.38 75.3374 140.829 74.9512C140.277 74.565 139.894 74.0444 139.679 73.3853C139.523 72.9445 139.443 72.3568 139.443 71.6222C139.443 70.9169 139.523 70.3376 139.679 69.8884C139.885 69.2419 140.264 68.7297 140.82 68.3519C141.376 67.9741 142.033 67.7852 142.787 67.7852C143.553 67.7852 144.223 67.9783 144.791 68.3603C145.36 68.7423 145.738 69.2209 145.928 69.8002C145.978 69.9555 146.012 70.1151 146.029 70.2704V70.2998C146.029 70.3963 145.974 70.4551 145.865 70.4761L144.538 70.665H144.509C144.421 70.665 144.362 70.6146 144.332 70.5181C144.332 70.4677 144.328 70.4299 144.315 70.4005C144.294 70.3208 144.277 70.2536 144.256 70.1948C144.168 69.922 143.991 69.6953 143.726 69.5189C143.46 69.3426 143.145 69.2545 142.783 69.2545C142.408 69.2545 142.092 69.351 141.831 69.5399C141.57 69.7288 141.397 69.9933 141.309 70.325C141.212 70.6398 141.161 71.0722 141.161 71.6306C141.161 72.1679 141.208 72.6045 141.296 72.9403C141.393 73.2846 141.57 73.5533 141.827 73.7548C142.084 73.9563 142.399 74.057 142.787 74.057C143.161 74.057 143.482 73.9605 143.751 73.7716C144.02 73.5826 144.197 73.3224 144.273 72.9991C144.282 72.9781 144.286 72.9529 144.286 72.9277C144.294 72.9194 144.298 72.9026 144.298 72.8816C144.328 72.764 144.395 72.7136 144.505 72.7346L145.831 72.9403C145.882 72.9487 145.924 72.9739 145.957 73.0075C145.991 73.0411 146.004 73.0873 145.995 73.146C145.966 73.3014 145.941 73.4147 145.92 73.4819C145.734 74.1074 145.355 74.607 144.783 74.9722C144.227 75.3458 143.557 75.5305 142.791 75.5305Z" fill="white"/>
<path d="M153.755 70.8145C153.793 71.058 153.814 71.335 153.814 71.6373L153.802 72.0907C153.802 72.2082 153.743 72.267 153.625 72.267H149.01C148.959 72.267 148.938 72.2922 148.938 72.3384C148.968 72.6616 149.01 72.8799 149.073 73.0017C149.309 73.7069 149.881 74.0638 150.799 74.0722C151.469 74.0722 151.999 73.7993 152.391 73.2493C152.429 73.1906 152.479 73.1612 152.538 73.1612C152.576 73.1612 152.614 73.178 152.644 73.2074L153.557 73.9546C153.646 74.0218 153.658 74.1015 153.599 74.1897C153.296 74.6221 152.888 74.9537 152.383 75.1888C151.877 75.4239 151.313 75.5415 150.694 75.5415C149.928 75.5415 149.275 75.3693 148.74 75.0251C148.205 74.6809 147.814 74.2023 147.57 73.5852C147.342 73.0562 147.229 72.3216 147.229 71.3812C147.229 70.8145 147.287 70.3527 147.405 70.0001C147.603 69.3158 147.974 68.7742 148.517 68.3754C149.064 67.9766 149.717 67.7793 150.483 67.7793C152.42 67.7877 153.511 68.7952 153.755 70.8145ZM150.483 69.257C150.121 69.257 149.818 69.3494 149.578 69.5299C149.338 69.7104 149.17 69.9623 149.069 70.2855C149.01 70.4534 148.972 70.6675 148.951 70.932C148.93 70.9824 148.951 71.0076 149.01 71.0076H152.004C152.054 71.0076 152.079 70.9824 152.079 70.932C152.058 70.6885 152.029 70.4996 151.991 70.3737C151.902 70.0211 151.73 69.7482 151.469 69.5509C151.204 69.3536 150.875 69.257 150.483 69.257Z" fill="white"/>
<path d="M158.99 67.7891C159.785 67.7891 160.421 68.0241 160.897 68.4943C161.373 68.9645 161.613 69.6068 161.613 70.417V75.2364C161.613 75.2868 161.596 75.3287 161.562 75.3623C161.529 75.3959 161.487 75.4127 161.436 75.4127H160.08C160.03 75.4127 159.987 75.3959 159.954 75.3623C159.92 75.3287 159.903 75.2868 159.903 75.2364V70.7697C159.903 70.3205 159.777 69.9553 159.52 69.674C159.263 69.3927 158.926 69.2542 158.505 69.2542C158.084 69.2542 157.743 69.3927 157.482 69.6656C157.221 69.9385 157.09 70.3037 157.09 70.7529V75.2364C157.09 75.2868 157.074 75.3287 157.04 75.3623C157.006 75.3959 156.964 75.4127 156.914 75.4127H155.558C155.507 75.4127 155.465 75.3959 155.431 75.3623C155.398 75.3287 155.381 75.2868 155.381 75.2364V68.0787C155.381 68.0284 155.398 67.9864 155.431 67.9528C155.465 67.9192 155.507 67.9024 155.558 67.9024H156.914C156.964 67.9024 157.006 67.9192 157.04 67.9528C157.074 67.9864 157.09 68.0284 157.09 68.0787V68.5489C157.09 68.5783 157.099 68.5993 157.12 68.6077C157.141 68.6161 157.154 68.6077 157.162 68.5783C157.562 68.0535 158.173 67.7891 158.99 67.7891Z" fill="white"/>
<path d="M167.389 69.1118C167.389 69.1622 167.373 69.2042 167.339 69.2377C167.305 69.2713 167.263 69.2881 167.213 69.2881H165.709C165.659 69.2881 165.634 69.3133 165.634 69.3637V72.9026C165.634 73.2762 165.714 73.5449 165.878 73.7086C166.042 73.8766 166.299 73.9563 166.653 73.9563H167.095C167.145 73.9563 167.187 73.9731 167.221 74.0067C167.255 74.0403 167.272 74.0823 167.272 74.1326V75.2325C167.272 75.3417 167.213 75.4047 167.095 75.4256L166.328 75.4382C165.554 75.4382 164.972 75.3039 164.589 75.0394C164.206 74.7749 164.008 74.2754 164 73.5407V69.3553C164 69.3049 163.975 69.2797 163.924 69.2797H163.086C163.035 69.2797 162.993 69.2629 162.96 69.2293C162.926 69.1958 162.909 69.1538 162.909 69.1034V68.0749C162.909 68.0245 162.926 67.9825 162.96 67.9489C162.993 67.9154 163.035 67.8986 163.086 67.8986H163.924C163.975 67.8986 164 67.8734 164 67.8272V66.106C164 66.0556 164.017 66.0136 164.05 65.9801C164.084 65.9465 164.126 65.9297 164.177 65.9297H165.457C165.507 65.9297 165.549 65.9465 165.583 65.9801C165.617 66.0136 165.634 66.0556 165.634 66.106V67.8272C165.634 67.8776 165.659 67.8986 165.709 67.8986H167.213C167.263 67.8986 167.305 67.9154 167.339 67.9489C167.373 67.9825 167.389 68.0245 167.389 68.0749V69.1118Z" fill="white"/>
<path d="M175.112 70.8145C175.15 71.058 175.171 71.335 175.171 71.6373L175.158 72.0907C175.158 72.2082 175.099 72.267 174.981 72.267H170.37C170.32 72.267 170.295 72.2922 170.295 72.3384C170.324 72.6616 170.37 72.8799 170.429 73.0017C170.665 73.7069 171.242 74.0638 172.156 74.0722C172.825 74.0722 173.356 73.7993 173.747 73.2493C173.785 73.1906 173.836 73.1612 173.895 73.1612C173.933 73.1612 173.971 73.178 173.996 73.2074L174.91 73.9546C174.998 74.0218 175.011 74.1015 174.952 74.1897C174.648 74.6221 174.24 74.9537 173.735 75.1888C173.229 75.4239 172.665 75.5415 172.046 75.5415C171.28 75.5415 170.627 75.3693 170.092 75.0251C169.558 74.6809 169.166 74.2023 168.922 73.5852C168.694 73.0562 168.585 72.3216 168.585 71.3812C168.585 70.8145 168.644 70.3527 168.762 70.0001C168.96 69.3158 169.33 68.7742 169.873 68.3754C170.421 67.9766 171.074 67.7793 171.84 67.7793C173.773 67.7877 174.863 68.7952 175.112 70.8145ZM171.84 69.257C171.478 69.257 171.175 69.3494 170.935 69.5299C170.695 69.7104 170.526 69.9623 170.425 70.2855C170.366 70.4534 170.328 70.6675 170.307 70.932C170.286 70.9824 170.307 71.0076 170.366 71.0076H173.356C173.406 71.0076 173.427 70.9824 173.427 70.932C173.406 70.6885 173.377 70.4996 173.339 70.3737C173.251 70.0211 173.078 69.7482 172.817 69.5509C172.556 69.3536 172.232 69.257 171.84 69.257Z" fill="white"/>
<path d="M180.241 67.8184C180.557 67.8184 180.83 67.8813 181.066 68.0115C181.146 68.0492 181.176 68.1248 181.155 68.234L180.902 69.5563C180.894 69.6739 180.822 69.7075 180.696 69.6571C180.548 69.6067 180.376 69.5857 180.182 69.5857C180.056 69.5857 179.955 69.5899 179.887 69.6025C179.475 69.6235 179.129 69.7662 178.856 70.0349C178.582 70.3036 178.443 70.6562 178.443 71.0844V75.2447C178.443 75.2951 178.426 75.337 178.392 75.3706C178.359 75.4042 178.317 75.421 178.266 75.421H176.91C176.86 75.421 176.818 75.4042 176.784 75.3706C176.75 75.337 176.733 75.2951 176.733 75.2447V68.087C176.733 68.0367 176.75 67.9947 176.784 67.9611C176.818 67.9275 176.86 67.9107 176.91 67.9107H178.266C178.317 67.9107 178.359 67.9275 178.392 67.9611C178.426 67.9947 178.443 68.0367 178.443 68.087V68.7503C178.443 68.7881 178.451 68.8133 178.464 68.8175C178.481 68.8217 178.498 68.8091 178.515 68.7797C178.927 68.1374 179.504 67.8184 180.241 67.8184Z" fill="white"/>
<path d="M188.478 70.8145C188.516 71.058 188.537 71.335 188.537 71.6373L188.524 72.0907C188.524 72.2082 188.465 72.267 188.347 72.267H183.737C183.686 72.267 183.661 72.2922 183.661 72.3384C183.69 72.6616 183.737 72.8799 183.791 73.0017C184.027 73.7069 184.604 74.0638 185.518 74.0722C186.187 74.0722 186.718 73.7993 187.109 73.2493C187.147 73.1906 187.198 73.1612 187.257 73.1612C187.295 73.1612 187.328 73.178 187.362 73.2074L188.276 73.9546C188.364 74.0218 188.377 74.1015 188.322 74.1897C188.019 74.6221 187.61 74.9537 187.105 75.1888C186.6 75.4239 186.036 75.5415 185.417 75.5415C184.65 75.5415 183.998 75.3693 183.463 75.0251C182.928 74.6809 182.536 74.2023 182.292 73.5852C182.065 73.0562 181.951 72.3216 181.951 71.3812C181.951 70.8145 182.01 70.3527 182.128 70.0001C182.326 69.3158 182.696 68.7742 183.24 68.3754C183.787 67.9766 184.44 67.7793 185.206 67.7793C187.143 67.7877 188.234 68.7952 188.478 70.8145ZM185.206 69.257C184.844 69.257 184.541 69.3494 184.301 69.5299C184.061 69.7104 183.892 69.9623 183.791 70.2855C183.732 70.4534 183.694 70.6675 183.673 70.932C183.652 70.9824 183.673 71.0076 183.732 71.0076H186.722C186.773 71.0076 186.794 70.9824 186.794 70.932C186.773 70.6885 186.743 70.4996 186.705 70.3737C186.617 70.0211 186.444 69.7482 186.183 69.5509C185.926 69.3536 185.598 69.257 185.206 69.257Z" fill="white"/>
<path d="M194.773 65.3033C194.773 65.2529 194.789 65.2109 194.823 65.1773C194.857 65.1437 194.899 65.127 194.949 65.127H196.305C196.356 65.127 196.398 65.1437 196.432 65.1773C196.465 65.2109 196.482 65.2529 196.482 65.3033V75.2358C196.482 75.2862 196.465 75.3282 196.432 75.3618C196.398 75.3953 196.356 75.4121 196.305 75.4121H194.949C194.899 75.4121 194.857 75.3953 194.823 75.3618C194.789 75.3282 194.773 75.2862 194.773 75.2358V74.795C194.773 74.7656 194.764 74.7447 194.743 74.7363C194.722 74.7279 194.705 74.7363 194.684 74.7656C194.25 75.2736 193.686 75.5297 192.987 75.5297C192.288 75.5297 191.699 75.3492 191.219 74.9881C190.739 74.6271 190.389 74.1191 190.174 73.4768C189.998 72.9269 189.909 72.314 189.909 71.6381C189.909 70.9412 189.993 70.3451 190.162 69.8455C190.377 69.199 190.726 68.6953 191.21 68.3343C191.69 67.9732 192.297 67.7885 193.021 67.7885C193.699 67.7885 194.255 68.032 194.688 68.5232C194.709 68.5442 194.726 68.5484 194.747 68.5442C194.768 68.54 194.777 68.5232 194.777 68.4938V65.3033H194.773ZM194.419 73.3551C194.646 72.9521 194.756 72.3854 194.756 71.6507C194.756 70.8867 194.634 70.3031 194.385 69.9043C194.12 69.4719 193.745 69.2578 193.265 69.2578C192.764 69.2578 192.372 69.4635 192.086 69.8749C191.791 70.3073 191.644 70.9035 191.644 71.6675C191.644 72.3518 191.762 72.9143 191.998 73.3593C192.271 73.8295 192.688 74.0646 193.248 74.0646C193.754 74.0604 194.141 73.8253 194.419 73.3551Z" fill="white"/>
<path d="M205.957 65.3033C205.957 65.2529 205.973 65.2109 206.007 65.1773C206.041 65.1437 206.083 65.127 206.133 65.127H207.489C207.54 65.127 207.582 65.1437 207.616 65.1773C207.649 65.2109 207.666 65.2529 207.666 65.3033V75.2358C207.666 75.2862 207.649 75.3282 207.616 75.3618C207.582 75.3953 207.54 75.4121 207.489 75.4121H206.133C206.083 75.4121 206.041 75.3953 206.007 75.3618C205.973 75.3282 205.957 75.2862 205.957 75.2358V74.795C205.957 74.7656 205.948 74.7447 205.927 74.7363C205.906 74.7279 205.889 74.7363 205.868 74.7656C205.434 75.2736 204.87 75.5297 204.171 75.5297C203.472 75.5297 202.883 75.3492 202.403 74.9881C201.923 74.6271 201.573 74.1191 201.354 73.4768C201.177 72.9269 201.089 72.314 201.089 71.6381C201.089 70.9412 201.173 70.3451 201.342 69.8455C201.556 69.199 201.906 68.6953 202.386 68.3343C202.866 67.9732 203.472 67.7885 204.201 67.7885C204.879 67.7885 205.434 68.032 205.864 68.5232C205.885 68.5442 205.902 68.5484 205.923 68.5442C205.944 68.54 205.952 68.5232 205.952 68.4938V65.3033H205.957ZM205.603 73.3551C205.83 72.9521 205.94 72.3854 205.94 71.6507C205.94 70.8867 205.818 70.3031 205.569 69.9043C205.304 69.4719 204.929 69.2578 204.449 69.2578C203.948 69.2578 203.556 69.4635 203.27 69.8749C202.975 70.3073 202.828 70.9035 202.828 71.6675C202.828 72.3518 202.946 72.9143 203.182 73.3593C203.455 73.8295 203.876 74.0646 204.432 74.0646C204.942 74.0604 205.329 73.8253 205.603 73.3551Z" fill="white"/>
<path d="M215.877 70.8145C215.915 71.058 215.936 71.335 215.936 71.6373L215.919 72.0907C215.919 72.2082 215.86 72.267 215.742 72.267H211.132C211.081 72.267 211.056 72.2922 211.056 72.3384C211.085 72.6616 211.132 72.8799 211.191 73.0017C211.426 73.7069 211.999 74.0638 212.913 74.0722C213.582 74.0722 214.113 73.7993 214.505 73.2493C214.542 73.1906 214.593 73.1612 214.652 73.1612C214.69 73.1612 214.728 73.178 214.753 73.2074L215.667 73.9546C215.755 74.0218 215.768 74.1015 215.709 74.1897C215.406 74.6221 214.997 74.9537 214.492 75.1888C213.987 75.4239 213.422 75.5415 212.803 75.5415C212.037 75.5415 211.384 75.3693 210.85 75.0251C210.315 74.6809 209.923 74.2023 209.679 73.5852C209.452 73.0562 209.338 72.3216 209.338 71.3812C209.338 70.8145 209.397 70.3527 209.515 70.0001C209.713 69.3158 210.083 68.7742 210.626 68.3754C211.17 67.9766 211.826 67.7793 212.593 67.7793C214.538 67.7877 215.629 68.7952 215.877 70.8145ZM212.605 69.257C212.243 69.257 211.94 69.3494 211.7 69.5299C211.46 69.7104 211.292 69.9623 211.191 70.2855C211.132 70.4534 211.094 70.6675 211.073 70.932C211.052 70.9824 211.073 71.0076 211.132 71.0076H214.121C214.172 71.0076 214.193 70.9824 214.193 70.932C214.172 70.6885 214.142 70.4996 214.105 70.3737C214.016 70.0211 213.843 69.7482 213.582 69.5509C213.321 69.3536 212.997 69.257 212.605 69.257Z" fill="white"/>
<path d="M220.181 75.4991C219.562 75.4991 219.019 75.4067 218.551 75.2262C218.084 75.0457 217.722 74.7938 217.469 74.479C217.212 74.1599 217.086 73.8073 217.086 73.4127V73.2783C217.086 73.228 217.103 73.186 217.136 73.1524C217.17 73.1188 217.212 73.102 217.263 73.102H218.56C218.61 73.102 218.652 73.1188 218.686 73.1524C218.72 73.186 218.737 73.228 218.737 73.2783V73.3077C218.737 73.5512 218.871 73.7653 219.141 73.9458C219.41 74.1263 219.751 74.2187 220.164 74.2187C220.556 74.2187 220.876 74.1389 221.124 73.9752C221.368 73.8157 221.495 73.61 221.495 73.3665C221.495 73.1398 221.394 72.9719 221.191 72.8585C220.989 72.7452 220.665 72.6276 220.21 72.4975L219.65 72.3212C219.149 72.1743 218.728 72.0189 218.383 71.851C218.038 71.6831 217.747 71.4564 217.511 71.1667C217.275 70.8771 217.158 70.5076 217.158 70.0585C217.158 69.3742 217.427 68.8284 217.966 68.4212C218.505 68.014 219.217 67.8125 220.105 67.8125C220.703 67.8125 221.229 67.9091 221.68 68.098C222.13 68.2911 222.48 68.5514 222.728 68.8914C222.973 69.2272 223.099 69.6135 223.099 70.0459C223.099 70.0962 223.082 70.1382 223.048 70.1718C223.015 70.2054 222.973 70.2222 222.922 70.2222H221.667C221.617 70.2222 221.575 70.2054 221.541 70.1718C221.507 70.1382 221.49 70.0962 221.49 70.0459C221.49 69.7898 221.364 69.5799 221.116 69.4078C220.867 69.2356 220.522 69.1517 220.092 69.1517C219.709 69.1517 219.398 69.223 219.158 69.3658C218.918 69.5085 218.796 69.7058 218.796 69.9619C218.796 70.197 218.909 70.3775 219.141 70.4992C219.372 70.621 219.756 70.7553 220.299 70.9023L220.623 70.9904C221.145 71.1457 221.583 71.3053 221.933 71.469C222.286 71.6327 222.585 71.8552 222.834 72.1449C223.078 72.4345 223.2 72.8082 223.2 73.2699C223.2 73.9668 222.926 74.5126 222.375 74.9072C221.823 75.3018 221.095 75.4991 220.181 75.4991Z" fill="white"/>
<path d="M225.617 66.8774C225.314 66.8774 225.061 66.7809 224.863 66.5836C224.665 66.3863 224.568 66.1386 224.568 65.8363C224.568 65.5341 224.665 65.2822 224.863 65.0849C225.061 64.8876 225.309 64.791 225.617 64.791C225.92 64.791 226.173 64.8876 226.366 65.0849C226.564 65.2822 226.661 65.5299 226.661 65.8363C226.661 66.1386 226.564 66.3905 226.366 66.5836C226.173 66.7767 225.92 66.8774 225.617 66.8774ZM224.909 75.412C224.859 75.412 224.817 75.3952 224.783 75.3617C224.749 75.3281 224.733 75.2861 224.733 75.2357V68.0655C224.733 68.0151 224.749 67.9731 224.783 67.9395C224.817 67.906 224.859 67.8892 224.909 67.8892H226.265C226.316 67.8892 226.358 67.906 226.392 67.9395C226.425 67.9731 226.442 68.0151 226.442 68.0655V75.2357C226.442 75.2861 226.425 75.3281 226.392 75.3617C226.358 75.3952 226.316 75.412 226.265 75.412H224.909Z" fill="white"/>
<path d="M233.015 68.0816C233.015 68.0312 233.031 67.9892 233.065 67.9556C233.099 67.922 233.141 67.9052 233.191 67.9052H234.547C234.598 67.9052 234.64 67.922 234.674 67.9556C234.707 67.9892 234.724 68.0312 234.724 68.0816V74.916C234.724 76.1418 234.375 77.015 233.671 77.5397C232.968 78.0645 232.046 78.3248 230.909 78.3248C230.606 78.3248 230.307 78.308 230.008 78.2786C229.899 78.2702 229.844 78.203 229.844 78.0855L229.89 76.8806C229.89 76.7715 229.958 76.7169 230.097 76.7169C230.383 76.7463 230.636 76.7589 230.863 76.7589C231.6 76.7589 232.143 76.6162 232.492 76.3265C232.842 76.0368 233.015 75.5499 233.015 74.8656V74.748C233.015 74.7187 233.006 74.7019 232.985 74.6977C232.964 74.6935 232.947 74.7019 232.926 74.7186C232.522 75.151 231.953 75.3651 231.217 75.3651C230.577 75.3651 229.995 75.2056 229.465 74.8824C228.934 74.5591 228.564 74.0638 228.362 73.3963C228.235 72.9345 228.168 72.3426 228.168 71.6163C228.168 70.8019 228.248 70.1806 228.404 69.7482C228.602 69.1521 228.939 68.6735 229.419 68.3166C229.899 67.9598 230.467 67.7793 231.111 67.7793C231.886 67.7793 232.492 68.006 232.926 68.4552C232.947 68.4846 232.964 68.493 232.985 68.4846C233.006 68.4762 233.015 68.4552 233.015 68.4258V68.0816ZM232.914 72.9135C232.951 72.7666 232.981 72.607 232.994 72.4349C233.01 72.2628 233.015 71.9857 233.015 71.6037C233.015 71.2301 233.006 70.9656 232.994 70.8019C232.977 70.6382 232.947 70.4828 232.897 70.3233C232.817 70.0001 232.657 69.7398 232.417 69.5425C232.177 69.3452 231.869 69.2486 231.495 69.2486C231.141 69.2486 230.842 69.3452 230.598 69.5425C230.353 69.7398 230.177 70.0001 230.067 70.3233C229.949 70.5962 229.89 71.0286 229.89 71.6163C229.89 72.225 229.941 72.649 230.038 72.8967C230.134 73.2116 230.315 73.4676 230.577 73.6691C230.838 73.8706 231.149 73.9714 231.511 73.9714C231.895 73.9714 232.206 73.8748 232.438 73.6775C232.678 73.4844 232.834 73.2284 232.914 72.9135Z" fill="white"/>
<path d="M240.106 67.7891C240.902 67.7891 241.538 68.0241 242.014 68.4943C242.489 68.9645 242.729 69.6068 242.729 70.417V75.2364C242.729 75.2868 242.712 75.3287 242.679 75.3623C242.645 75.3959 242.603 75.4127 242.552 75.4127H241.197C241.146 75.4127 241.104 75.3959 241.07 75.3623C241.037 75.3287 241.02 75.2868 241.02 75.2364V70.7697C241.02 70.3205 240.893 69.9553 240.637 69.674C240.38 69.3927 240.043 69.2542 239.618 69.2542C239.196 69.2542 238.855 69.3927 238.594 69.6656C238.333 69.9385 238.203 70.3037 238.203 70.7529V75.2364C238.203 75.2868 238.186 75.3287 238.152 75.3623C238.119 75.3959 238.076 75.4127 238.026 75.4127H236.67C236.619 75.4127 236.577 75.3959 236.544 75.3623C236.51 75.3287 236.493 75.2868 236.493 75.2364V68.0787C236.493 68.0284 236.51 67.9864 236.544 67.9528C236.577 67.9192 236.619 67.9024 236.67 67.9024H238.026C238.076 67.9024 238.119 67.9192 238.152 67.9528C238.186 67.9864 238.203 68.0284 238.203 68.0787V68.5489C238.203 68.5783 238.211 68.5993 238.232 68.6077C238.253 68.6161 238.266 68.6077 238.274 68.5783C238.679 68.0535 239.289 67.7891 240.106 67.7891Z" fill="white"/>
</svg>
