<svg width="269" height="45" fill="none" xmlns="http://www.w3.org/2000/svg"><path d="M178 0c-.08 1.46-.17 2.92-.26 4.66h11.59v5.12h-11.58v16.14c0 8.71 3 12.44 11.63 14.18v4.58c-8.6.84-16.61-7.17-16.68-16.73-.07-8.4 0-16.81 0-25.22 0-.91-.12-1.81-.18-2.72L178 0ZM134.5 0v44.5h-5V0h5ZM199.97 28.42a16.166 16.166 0 0 1 10.052-14.744 16.17 16.17 0 1 1 6.478 31.135 16.313 16.313 0 0 1-15.291-10.073 16.3 16.3 0 0 1-1.239-6.317Zm16-11.1a11.117 11.117 0 0 0-10.326 7.013 11.131 11.131 0 0 0-.784 4.318 11.25 11.25 0 1 0 11.11-11.33ZM110.36 12.35a16.237 16.237 0 0 1 14.989 10.243 16.233 16.233 0 0 1-3.87 17.737 16.239 16.239 0 0 1-27.45-12.37c.2-8.46 7.781-15.72 16.331-15.61Zm-.16 5a11.264 11.264 0 0 0-10.387 7.01 11.261 11.261 0 0 0-.833 4.32 11.302 11.302 0 0 0 15.716 10.302 11.302 11.302 0 0 0 6.884-10.501 11.17 11.17 0 0 0-3.343-7.977 11.154 11.154 0 0 0-8.037-3.193v.04ZM137.72 12.5h4.78v11.72a36.48 36.48 0 0 0 .42 7.18 11.002 11.002 0 0 0 11.15 8.53c5.22-.19 9.93-4 10.48-9.31.51-5 .27-10 .35-15v-3.1h4.4c0 6.5.73 13.06-.18 19.38-1.23 8.55-9 13.48-17.88 12.54-7.34-.78-13.32-7.61-13.5-15.59-.11-5.35-.02-10.73-.02-16.35ZM34.4 44.13c2.87-2.76 5.49-5.27 8.11-7.8 2.62-2.53 5.12-5 8.09-7.88-3.28-3.17-6.37-6.15-9.45-9.15-.84-.81-1.65-1.64-2.48-2.47-1.14-1.15-1.6-2.43-.31-3.71 1.29-1.28 2.56-.93 3.73.23 2.71 2.7 5.44 5.4 8.13 8.13 1.1 1.13 2.11 2.35 3.54 3.94 3.38-3.5 6.72-6.51 9.51-10 2.6-3.23 5.69-3.5 9.62-2.8-.72.79-1.28 1.44-1.89 2.05-8.72 8.72-17.58 17.31-26.1 26.22-2.88 3.03-5.76 4.54-10.5 3.24ZM6.44 24.37v4.29a11.16 11.16 0 0 0 22.31.31c.18-5 .05-10 .07-15 0-.4.08-.81.14-1.38h4.4c.05.66.14 1.38.15 2.09v14a16 16 0 0 1-31.91.3v-4.62l4.84.01ZM266.68 32.62h-4.73v-3.75c-.1-6.61-4.93-11.55-11.26-11.52-6.33.03-11.08 5-11.14 11.65v15c-.031.232-.085.46-.16.68h-4.22c0-6.6-.65-13.15.16-19.52 1-7.85 8.78-13.17 16.76-12.56a15.938 15.938 0 0 1 14.62 15.12c.03 1.55-.03 3.12-.03 4.9ZM77.12 38.32l10.82-20.479c.27-.52.4-1.29.83-1.5 1-.51 2.26-1.23 3.16-1 1.44.41 1.84 1.82 1.08 3.28-4.33 8.25-8.63 16.51-13 24.73-1 1.81-2.62 1.8-4 .53-2.85-2.69-5.55-5.52-8.28-8.33-1.1-1.12-.73-2.551 0-3.42a3.78 3.78 0 0 1 3.45.17 73.484 73.484 0 0 1 5.94 6.02ZM192.5 24.11h4.71v20.5h-4.71v-20.5ZM55.37 33.65l3.45-3.3c3.55 3.5 7.15 6.89 10.52 10.5.47.49.14 2.72-.32 2.9-1 .4-2.73.46-3.43-.16-3.46-3.09-6.69-6.45-10.22-9.94ZM194.59 19.5a3.497 3.497 0 0 1-3.55-3.62 3.55 3.55 0 0 1 3.71-3.49 3.597 3.597 0 0 1 3.57 3.65 3.518 3.518 0 0 1-1.129 2.524 3.528 3.528 0 0 1-2.601.936ZM264.3 37.32a3.588 3.588 0 0 1 3.488 5.002 3.593 3.593 0 0 1-3.488 2.167 3.586 3.586 0 0 1-3.779-3.584 3.597 3.597 0 0 1 1.119-2.605 3.597 3.597 0 0 1 2.66-.98ZM3.552 20.114a3.5 3.5 0 0 1-3.55-3.62 3.55 3.55 0 0 1 3.71-3.49 3.6 3.6 0 0 1 3.57 3.65 3.53 3.53 0 0 1-3.73 3.46Z" fill="#000"/></svg>