<svg width="266" height="47" fill="none" xmlns="http://www.w3.org/2000/svg"><path d="M166.265 30.73c0 2.25-.43 4.36-1.292 6.325-.857 1.97-2.014 3.68-3.475 5.14-1.461 1.46-3.176 2.62-5.152 3.472-.139.06-.279.115-.422.17-1.825.738-3.763 1.108-5.824 1.108-2.06 0-3.999-.374-5.823-1.108-.139-.055-.283-.11-.422-.17-1.972-.853-3.691-2.008-5.152-3.472-1.461-1.46-2.618-3.17-3.475-5.14-.862-1.965-1.288-4.075-1.288-6.324V14.796h4.839v15.91c0 .203.021.402.03.606.008.187.008.378.029.56l.025.187c.123 1.07.397 2.101.824 3.082a11.276 11.276 0 0 0 2.462 3.6 12.012 12.012 0 0 0 3.593 2.431c1.36.607 2.817.909 4.367.909 1.55 0 3.006-.302 4.366-.909a12.068 12.068 0 0 0 3.594-2.432 11.422 11.422 0 0 0 2.462-3.6 10.97 10.97 0 0 0 .823-3.08c.009-.065.021-.124.03-.188.017-.182.017-.373.025-.56.008-.204.03-.403.03-.607V14.797h4.843V30.73h-.017Zm96.07 16.24c1.047 0 1.917-.352 2.618-1.06.696-.705 1.047-1.588 1.047-2.645s-.351-1.931-1.047-2.632c-.701-.704-1.575-1.057-2.618-1.057s-1.926.353-2.631 1.057c-.705.705-1.06 1.583-1.06 2.632 0 1.048.355 1.94 1.06 2.644.705.705 1.579 1.061 2.631 1.061Zm-2.429-12.275h4.84V30.31c0-2.25-.431-4.359-1.288-6.324-.862-1.97-2.019-3.684-3.476-5.14-1.461-1.46-3.179-2.615-5.156-3.468-.139-.06-.278-.115-.422-.17-1.824-.738-3.762-1.108-5.823-1.108-2.061 0-3.999.374-5.823 1.108-.14.055-.283.11-.423.17-1.976.853-3.695 2.008-5.156 3.468-1.461 1.46-2.618 3.17-3.475 5.14-.857 1.965-1.288 4.075-1.288 6.324V47h4.839V30.336c0-.204.017-.403.03-.607.008-.187.008-.374.029-.56.005-.064.017-.123.03-.191.122-1.07.393-2.102.823-3.082a11.327 11.327 0 0 1 2.458-3.6 12.02 12.02 0 0 1 3.594-2.431c1.359-.607 2.812-.909 4.366-.909 1.554 0 3.011.302 4.371.909a12.238 12.238 0 0 1 3.593 2.432 11.393 11.393 0 0 1 2.458 3.6c.431.984.697 2.011.823 3.08.009.064.022.124.03.192.017.182.021.373.03.56.008.204.025.403.025.607v4.359h-.009ZM6.356 14.758c-.71-.713-1.593-1.07-2.653-1.07s-1.934.357-2.643 1.07c-.705.713-1.06 1.6-1.06 2.666 0 1.065.355 1.944 1.06 2.653.705.709 1.583 1.065 2.643 1.065 1.06 0 1.943-.356 2.652-1.065.71-.71 1.064-1.596 1.064-2.653s-.354-1.957-1.064-2.666Zm26.422-.08h-4.882V30.5c0 .208-.017.408-.025.612-.009.186-.009.377-.03.564-.008.064-.021.128-.03.191a10.94 10.94 0 0 1-.827 3.107 11.406 11.406 0 0 1-2.479 3.63 12.216 12.216 0 0 1-3.623 2.453c-1.373.61-2.838.916-4.409.916a10.68 10.68 0 0 1-4.404-.916 12.27 12.27 0 0 1-3.623-2.454 11.405 11.405 0 0 1-2.48-3.629 10.704 10.704 0 0 1-.827-3.107c-.008-.063-.02-.127-.03-.19-.02-.183-.02-.374-.029-.565-.008-.204-.03-.404-.03-.612v-4.698H.17v4.724c0 2.267.435 4.393 1.296 6.38.87 1.986 2.036 3.713 3.505 5.182 1.474 1.473 3.205 2.64 5.199 3.502.139.06.282.114.426.17 1.837.742 3.796 1.12 5.874 1.12s4.037-.378 5.874-1.12c.143-.056.283-.11.427-.17 1.993-.862 3.724-2.03 5.198-3.502 1.474-1.473 2.639-3.2 3.505-5.183.865-1.982 1.296-4.108 1.296-6.38V14.679h.009Zm161.493.03c-.705-.705-1.579-1.062-2.631-1.062-1.051 0-1.921.353-2.618 1.061-.701.705-1.047 1.588-1.047 2.645s.346 1.931 1.047 2.631c.697.705 1.571 1.057 2.618 1.057 1.048 0 1.926-.352 2.631-1.057.705-.704 1.056-1.579 1.056-2.631 0-1.053-.351-1.94-1.056-2.645Zm-68.693 31.901h5.102V0h-5.102v46.61Zm63.659-21.027v21.104h5.102V25.582h-5.102Zm-14.72-19.686V.348h-5.101l-.026 29.385c0 2.369.439 4.593 1.322 6.664a17.201 17.201 0 0 0 3.64 5.433 17.008 17.008 0 0 0 5.405 3.655c2.061.887 4.27 1.333 6.63 1.333v-5.124c-1.63 0-3.176-.31-4.624-.925a11.807 11.807 0 0 1-3.805-2.564 11.88 11.88 0 0 1-2.55-3.828c-.617-1.456-.917-3.006-.917-4.648l.026-18.714h11.874V5.887h-11.874v.009ZM98.092 38.383c1.123 1.13 2.386 1.974 3.788 2.539 1.263.51 2.55.772 3.864.828l.371-.009c1.592 0 3.087-.297 4.502-.896.705-.297 1.36-.649 1.972-1.06.612-.421 1.195-.9 1.74-1.448a11.603 11.603 0 0 0 2.411-3.617 11.41 11.41 0 0 0 .891-4.49c0-1.596-.3-3.103-.891-4.525a11.48 11.48 0 0 0-2.386-3.62l-.029-.026a11.968 11.968 0 0 0-1.744-1.447 11.683 11.683 0 0 0-1.968-1.057c-1.411-.599-2.91-.9-4.502-.9-.768 0-1.516.072-2.238.216-.291.06-.583.132-.878.217-.021.008-.047.012-.072.017a11.176 11.176 0 0 0-4.84 2.907 11.544 11.544 0 0 0-2.55 3.833 11.485 11.485 0 0 0-.866 4.35c0 1.474.292 2.925.866 4.352a11.481 11.481 0 0 0 2.55 3.832l.009.005Zm23.213-14.571a16.185 16.185 0 0 1 1.292 6.418c0 2.262-.431 4.465-1.292 6.485-.862 2.017-2.04 3.77-3.543 5.255-.486.484-1.009.921-1.554 1.337-.199.153-.401.302-.604.446-.169.119-.342.233-.515.348a15.635 15.635 0 0 1-1.47.836c-.211.106-.422.208-.642.306-.16.072-.308.157-.472.225a16.4 16.4 0 0 1-6.39 1.265l-.008-.022a16.661 16.661 0 0 1-6.127-1.197c-2.01-.798-3.814-1.999-5.401-3.599a16.193 16.193 0 0 1-3.607-5.454 16.707 16.707 0 0 1-1.203-5.84 1.117 1.117 0 0 1-.064-.383 15.803 15.803 0 0 1 1.293-6.418c.266-.636.582-1.239.92-1.825.148-.263.304-.526.469-.78.101-.158.207-.31.313-.463.198-.285.4-.565.62-.836.11-.136.22-.272.33-.404.232-.276.477-.547.734-.81.051-.056.097-.115.148-.166.026-.026.06-.05.085-.076 1.613-1.61 3.424-2.823 5.434-3.63 2.032-.815 4.097-1.213 6.204-1.2 2.103.016 4.163.436 6.174 1.268 1.997.824 3.787 2.03 5.367 3.613.017.017.038.034.059.05.241.242.469.489.684.735l.241.263-.013.013c1.077 1.286 1.854 2.661 2.534 4.257l.004-.017Zm84.064 14.571c1.123 1.13 2.386 1.974 3.788 2.539 1.262.51 2.554.772 3.868.828l.371-.009a11.43 11.43 0 0 0 4.502-.896c.701-.297 1.355-.649 1.968-1.06.616-.421 1.195-.9 1.739-1.448a11.606 11.606 0 0 0 2.412-3.617c.595-1.396.891-2.894.891-4.49s-.296-3.103-.891-4.525a11.48 11.48 0 0 0-2.386-3.62l-.03-.026a11.915 11.915 0 0 0-1.744-1.447 11.751 11.751 0 0 0-1.963-1.057 11.433 11.433 0 0 0-4.502-.9c-.773 0-1.516.072-2.238.216-.291.06-.587.132-.878.217a.473.473 0 0 1-.072.017c-.351.106-.705.229-1.052.369a11.178 11.178 0 0 0-3.788 2.538 11.539 11.539 0 0 0-2.55 3.833 11.476 11.476 0 0 0-.866 4.35c0 1.474.292 2.925.866 4.352a11.54 11.54 0 0 0 2.55 3.832l.005.005Zm23.419-14.503a16.31 16.31 0 0 1 1.301 6.46c0 2.275-.431 4.495-1.301 6.528-.865 2.033-2.052 3.795-3.559 5.289-.49.488-1.022.925-1.567 1.346a16.453 16.453 0 0 1-1.123.797c-.287.183-.575.357-.874.518-.199.11-.402.217-.609.323-.215.106-.43.208-.646.306-.16.072-.312.156-.477.224-2.023.85-4.164 1.274-6.427 1.274l-.008-.021a16.802 16.802 0 0 1-6.17-1.206c-2.023-.806-3.838-2.012-5.439-3.62-1.6-1.61-2.812-3.439-3.623-5.493a16.922 16.922 0 0 1-1.216-5.879 1.13 1.13 0 0 1-.064-.382 15.952 15.952 0 0 1 1.301-6.46c.274-.64.591-1.248.929-1.838.152-.267.308-.526.473-.785a15.44 15.44 0 0 1 1.271-1.715c.232-.28.481-.552.739-.815.051-.055.101-.114.152-.17.03-.025.059-.05.085-.076 1.621-1.621 3.45-2.84 5.472-3.654a16.271 16.271 0 0 1 6.242-1.21c2.119.017 4.193.441 6.216 1.277 2.01.832 3.809 2.042 5.401 3.634.017.017.033.034.055.05.244.243.472.489.688.74l.245.262-.009.013c1.086 1.295 1.863 2.678 2.547 4.283h-.005ZM63.304 46.953 51.793 30.798l11.423-16.1h-6.047l-8.4 11.856-8.34-11.855h-6.047l11.364 16.1-11.512 16.154h6.047L48.77 35.04l8.488 11.914h6.047Zm7.394-.467 22.52-31.796H87.32L70.66 38.24l-8.648-12.161-2.952 4.142 10.63 14.95 1 1.311.008.004Z" fill="#000"/></svg>