<svg width="282" height="282" viewBox="0 0 282 282" fill="none" xmlns="http://www.w3.org/2000/svg">
<g clip-path="url(#clip0_810_2629)">
<path d="M246.569 65.2506C247.111 65.1534 247.583 65.0701 248.055 65.0006C251.444 64.4728 253.583 66.7506 252.875 70.1534C252.194 73.4867 250.152 75.9173 247.527 77.8895C241.208 82.6256 233.875 83.8895 226.222 83.8617C224.111 83.8478 223.236 82.7645 223.722 80.7228C225.666 72.5839 228.611 64.8617 234.138 58.4451C235.541 56.8062 237.625 55.4589 239.666 54.7228C244.25 53.0562 248.222 56.5423 247.541 61.3756C247.375 62.6534 246.916 63.8895 246.569 65.2506ZM226.791 80.8617C228.875 80.6395 230.569 80.4867 232.263 80.2645C237.638 79.5562 242.625 77.7784 246.694 74.1395C248.138 72.8339 249.208 70.9589 250 69.1534C250.625 67.7367 249.75 67.0284 248.263 67.5701C246.972 68.0284 245.819 68.8478 244.527 69.3062C243.833 69.5562 242.75 69.7089 242.291 69.3478C241.861 69.0006 241.861 67.8756 242.013 67.1673C242.18 66.3201 242.75 65.5701 243.083 64.7506C243.611 63.4728 244.277 62.2228 244.541 60.8895C245.083 58.1256 242.986 56.3478 240.458 57.5284C238.861 58.2784 237.291 59.4451 236.166 60.7923C231.388 66.5839 229.25 73.6395 226.791 80.8617Z" fill="#E30613"/>
<path d="M219.416 37.6409C220.375 36.9187 221.638 35.8493 223.027 34.9604C226.013 33.0437 229.097 34.1826 230.083 37.5576C230.958 40.5854 230.569 43.5576 229.333 46.4465C226.847 52.2937 223.222 57.4326 219.444 62.4743C218.319 63.9604 216.305 64.0437 215.194 62.502C213.555 60.2243 212.013 57.8493 210.75 55.3632C208.194 50.3215 206.055 45.0854 206.208 39.2937C206.25 37.7104 206.777 36.002 207.569 34.627C209.152 31.8909 212.68 31.0993 215.166 33.0437C216.972 34.4465 218.333 36.4326 219.416 37.6409ZM216.888 60.3354C218.013 58.752 219.125 57.4326 219.986 55.9604C222.208 52.2243 224.555 48.5298 226.375 44.5854C227.208 42.7659 227.763 40.7104 227.041 38.3076C226.666 37.0576 225.972 36.627 224.736 37.1965C222.944 38.0159 222.083 39.5993 221.305 41.2798C220.819 42.3215 220.888 43.9743 219.291 43.9604C217.666 43.9465 217.652 42.2937 217.097 41.1965C216.305 39.627 215.611 37.9604 214.513 36.627C213.888 35.8632 212.319 35.1132 211.569 35.3909C210.597 35.752 209.722 37.0576 209.347 38.1409C208.972 39.2243 209.111 40.5576 209.291 41.7382C210.305 48.5159 213.43 54.3909 216.888 60.3354Z" fill="#E30613"/>
<path d="M251.707 31.501C252.957 31.3482 253.944 31.1399 254.916 31.126C258.124 31.0704 259.944 33.001 259.791 36.2093C259.624 39.4871 258.013 41.9871 255.374 43.7926C251.221 46.6399 246.596 48.4037 241.652 49.3204C240.444 49.5426 239.735 49.3482 239.249 47.7232C237.416 41.7093 237.763 35.7371 239.124 29.7926C239.569 27.876 240.666 26.0287 241.819 24.3899C243.138 22.5149 245.152 21.6815 247.513 22.3621C250.027 23.0982 251.346 24.9176 251.68 27.4037C251.86 28.7093 251.707 30.0426 251.707 31.501ZM241.402 46.2093C246.36 45.0287 251.027 43.4315 254.888 40.1537C255.763 39.4037 256.416 38.2371 256.805 37.126C257.707 34.5426 256.652 33.3065 253.93 33.5982C253.277 33.6676 252.624 33.8343 251.999 34.0149C249.416 34.7649 248.749 34.2787 248.652 31.5565C248.596 30.0704 248.666 28.5426 248.319 27.126C247.708 24.626 245.263 24.0149 243.763 26.0565C242.694 27.5149 241.902 29.3204 241.471 31.0982C240.291 36.0565 241.055 41.0565 241.402 46.2093Z" fill="#E30613"/>
<path d="M63.1251 153.223C57.3057 156.612 51.4863 159.987 45.6946 163.431C45.2918 163.667 45.014 164.389 44.9724 164.903C44.0557 177.167 37.9862 186.098 27.2085 191.778C25.4168 192.723 23.3057 193.112 20.9585 192.917C17.8612 192.667 15.9029 190.209 16.2224 187.112C16.5001 184.403 17.8612 182.209 19.4724 180.139C23.0557 175.57 27.5696 171.987 32.1946 168.57C35.1251 166.403 38.1807 164.417 41.264 162.278C40.5001 160.778 38.639 159.709 37.0279 159.848C33.9724 160.098 32.514 160.792 30.2085 161.709C22.9724 164.584 16.7224 169.084 11.1807 174.459C7.05569 178.459 3.22236 182.75 -0.735977 186.917C-1.0832 187.278 -1.40264 187.681 -1.74987 188C-2.29153 188.5 -2.8332 188.695 -3.34709 188.348C-3.90264 188.098 -3.69431 187.195 -3.54153 186.723C-3.29153 185.945 -2.87487 185.195 -2.37487 184.556C5.4168 174.403 14.389 165.57 26.0279 159.862C28.5835 158.612 31.3612 157.737 34.1251 157.042C38.0974 156.056 41.6112 156.875 43.9724 160.695C49.6251 157.667 55.1946 154.681 60.8613 151.639C58.7779 151.639 56.8057 151.639 54.8196 151.639C54.4862 151.639 54.1529 151.681 53.8196 151.653C52.9168 151.584 51.7224 151.764 51.639 150.459C51.5557 149.181 52.764 149.167 53.5557 149.153C57.5696 149.056 61.5974 149 65.6113 149.098C67.2501 149.139 68.0418 150.223 67.3751 151.695C65.4863 155.973 63.389 160.181 61.2779 164.362C61.0835 164.75 60.3751 165.348 59.5835 164.959C59.0001 164.598 59.014 163.653 59.1946 163.195C60.2918 160.431 61.514 157.709 62.7085 154.973C62.9168 154.487 63.1529 154 63.3751 153.514C63.8751 152.764 63.5835 152.959 63.1251 153.223ZM42.4168 165.778C42.4585 165.278 41.7085 165.931 41.5835 166.014C35.0418 170.375 28.6529 174.931 23.3612 180.806C21.9446 182.375 20.7501 184.25 19.8751 186.181C18.7224 188.75 20.1807 190.542 22.9724 190.028C24.7779 189.695 26.6529 189.098 28.2224 188.153C34.9029 184.167 40.2224 176.403 41.5835 170.889C42.0835 168.778 42.0835 168.195 42.4168 165.778Z" fill="#E30613"/>
</g>
<defs>
<clipPath id="clip0_810_2629">
<rect width="282" height="282" rx="12" fill="white"/>
</clipPath>
</defs>
</svg>
