<svg width="282" height="282" viewBox="0 0 282 282" fill="none" xmlns="http://www.w3.org/2000/svg">
<g clip-path="url(#clip0_810_2633)">
<path d="M32.4985 22.5032C35.9419 23.2702 39.0752 23.9883 42.2575 24.69C41.311 22.748 37.378 21.981 37.7533 20.4306C38.6509 18.7497 40.3318 19.631 41.2457 20.2021C42.8613 21.2303 44.4933 22.389 45.7172 23.8251C49.9929 28.8515 52.245 34.9712 54.4318 41.091C55.8516 45.1056 56.896 49.1855 56.6513 53.4612C55.819 68.3119 49.1606 79.6702 35.4849 85.9206C19.9325 93.0195 1.09987 84.8108 -5.0852 68.8504C-5.73798 67.1695 -6.60291 65.5702 -7.48416 63.9872C-9.83416 59.8094 -11.2703 55.4848 -10.4706 50.6053C-9.83416 46.656 -8.00639 43.4084 -5.1668 40.6667C-4.53034 40.0466 -3.86125 39.3612 -3.45326 38.5778C0.169657 31.74 5.79987 27.3011 13.0457 24.8532C17.0276 23.4987 21.0259 22.1605 25.0731 21.0018C26.5256 20.5938 28.1575 20.6754 29.7079 20.6754C31.0134 20.7407 32.1558 21.1976 32.4985 22.5032ZM35.2238 45.7258C32.0252 59.3035 22.9679 65.7334 10.3693 68.165C11.1526 70.5313 12.295 71.8369 14.4818 72.5549C15.7058 72.9629 17.0113 73.2403 18.2842 73.3056C31.6172 73.991 41.3273 60.3153 36.3662 47.8962C36.0888 47.2271 35.6808 46.5907 35.2238 45.7258ZM21.8256 84.4192C33.494 85.0067 42.0127 79.6539 47.9367 70.0417C54.4318 59.4831 54.3176 48.4837 49.1769 37.3539C47.9367 37.9577 46.7943 38.5289 45.603 39.1164C45.9947 39.7528 46.2884 40.2424 46.5985 40.7483C48.5405 44.0285 49.8134 47.5372 50.1561 51.356C50.7599 58.1612 48.6547 64.1667 44.4933 69.4869C39.7443 75.5577 33.3144 79.4417 26.6072 82.9341C25.6443 83.44 24.5346 83.6358 23.4738 83.9785C22.919 84.1091 22.3641 84.256 21.8256 84.4192ZM33.1349 30.924C36.4151 31.8542 39.5158 33.2577 42.1759 35.5261C42.486 35.7872 43.0408 35.9667 43.4162 35.8688C44.9829 35.5261 48.312 34.7101 47.6266 33.7636C46.2721 29.7653 38.6019 25.9466 33.1513 26.4851C33.1349 27.8723 33.1349 29.2758 33.1349 30.924ZM29.7079 45.889C24.9589 44.0612 13.47 52.0414 12.4419 57.7206C17.3377 56.9535 26.2808 51.3886 28.9572 47.3903C29.2672 46.9334 29.4631 46.3949 29.7079 45.889ZM30.2301 41.7765C28.1085 40.4546 25.579 39.6876 23.2127 40.3567C20.4547 41.14 17.6641 42.3803 15.3304 44.0285C11.6585 46.607 9.08007 50.2462 7.7582 54.6035C7.46445 55.5827 7.1707 56.7251 8.19882 57.8511C8.68841 56.9535 9.08008 56.1539 9.5207 55.3869C14.1717 47.4719 20.6342 42.3476 30.2301 41.7765ZM25.2526 26.2893C17.6641 25.9629 11.9523 29.439 6.74639 34.7265C8.77 34.4817 10.4999 34.2858 12.2297 34.0574C12.9967 33.9594 13.8454 34.0084 14.4818 33.6657C17.5335 32.0337 20.7648 30.924 24.0776 30.4018C24.4856 28.982 24.861 27.6928 25.2526 26.2893ZM42.2575 65.1133C48.1815 57.6226 47.3165 47.1945 41.6863 40.4056C41.4579 40.1282 41.0825 39.8018 40.7561 39.7692C39.2221 39.6223 37.6881 39.5733 36.1703 39.4917C36.3825 39.9324 36.5947 40.0792 36.8068 40.2261C45.0318 45.5136 47.2839 52.8737 43.4325 61.8494C42.9756 62.9265 42.6492 64.0362 42.2575 65.1133ZM6.90959 61.9147C4.39639 60.756 3.23771 58.8303 3.31931 56.2681C3.35195 55.1747 3.61306 54.0813 3.92313 53.0369C4.80438 49.9851 6.56688 47.423 8.50889 44.9587C8.75369 44.6487 8.8516 44.2407 9.0148 43.8817C5.11445 45.7584 0.381809 55.599 1.9648 62.5021C3.31931 63.0407 4.85334 63.6445 6.40368 64.2483C6.59952 63.7914 6.71375 63.6282 6.73007 63.4487C6.81167 62.9754 6.84431 62.5348 6.90959 61.9147ZM9.96132 64.1504C16.5217 63.1712 21.8582 60.4622 26.1502 55.7459C23.6533 57.0351 21.287 58.6344 18.7412 59.7931C16.1138 60.9844 13.2905 61.7515 10.2714 62.8122C10.2551 62.8938 10.1408 63.3671 9.96132 64.1504ZM15.8853 77.3855C21.3523 78.2504 26.6235 77.4997 31.552 75.0192C32.9228 74.3337 34.0488 73.1424 35.2891 72.1796C35.1912 71.9837 35.0769 71.8042 34.979 71.6084C29.2183 75.5577 22.7068 76.8959 15.8853 77.3855ZM9.08007 73.3219C8.23146 71.5594 7.41549 69.8785 6.55056 68.0671C5.47348 67.8386 4.24952 67.5775 2.92764 67.3001C3.97209 71.0209 4.98389 72.0164 9.08007 73.3219ZM0.789795 42.9188C3.61306 41.2216 6.46896 39.4917 9.48806 37.664C5.06549 37.256 2.20959 39.0511 0.789795 42.9188ZM-7.43521 56.8393C-7.20673 53.8202 -6.99458 51.0785 -6.74979 47.9615C-7.99007 50.9806 -8.31646 53.706 -7.43521 56.8393ZM30.1811 27.807C28.0269 27.9539 27.9617 28.0355 27.7006 30.157C28.3044 30.2223 28.9082 30.2876 29.7568 30.3855C29.9037 29.4879 30.0342 28.7535 30.1811 27.807Z" fill="#E30613"/>
<path d="M237.704 215.619C234.836 215.011 232.186 214.452 229.549 213.893C228.881 213.747 228.225 213.589 227.568 213.456C225.83 213.079 224.299 212.386 223.801 210.49C223.315 208.631 224.117 207.003 225.502 205.982C227.896 204.22 235.881 199.93 237.315 199.346C239.223 198.568 239.514 197.062 238.166 195.372C236.877 193.756 235.601 192.091 234.52 190.329C233.924 189.369 233.62 188.19 233.402 187.06C233.122 185.65 233.9 184.338 235.042 184.009C236.428 183.621 237.57 184.192 238.032 185.419C239.66 189.685 243.172 192.237 246.49 194.947C246.988 195.348 247.304 195.628 247.948 195.822C251.327 196.818 253.356 193.659 254.839 191.204C256.079 189.15 257.707 187.315 259.178 185.395C260.223 184.022 261.426 183.657 262.544 184.35C263.686 185.055 263.881 186.391 263.042 187.947C262.131 189.648 261.207 191.325 260.174 193.233C260.818 193.27 261.256 193.294 261.705 193.318C263.541 193.416 265.388 193.44 267.211 193.647C268.001 193.732 268.912 194.011 269.447 194.534C269.981 195.068 270.48 196.101 270.31 196.733C270.152 197.353 269.179 198.07 268.475 198.192C264.792 198.775 261.086 199.188 257.391 199.662C256.516 199.772 254.754 201.509 254.815 202.275C254.839 202.652 255.228 202.992 255.459 203.345C256.638 205.167 258.096 206.857 258.947 208.825C260.758 213.03 258.692 216.822 254.134 217.357C251.303 217.685 248.362 217.272 245.494 216.968C244.388 216.858 243.829 217.053 243.306 218.001C240.231 223.542 237.12 229.06 234.009 234.577C233.584 235.331 233.219 236.133 232.745 236.862C232.101 237.846 231.166 238.32 229.999 237.956C228.844 237.591 228.212 236.655 228.358 235.501C228.541 234.079 234.167 222.036 236.598 217.417C236.889 216.883 237.254 216.36 237.704 215.619ZM230.922 208.898C230.971 209.068 236.513 210.49 239.344 211.049C239.344 208.935 239.344 206.99 239.344 204.718C236.403 206.188 233.669 207.537 230.922 208.898ZM241.738 209.555C243.258 207.343 246.065 202.579 245.943 202.421C244.534 202.931 243.1 203.417 241.714 203.976C241.508 204.062 241.362 204.523 241.362 204.815C241.325 206.358 241.605 209.518 241.738 209.555ZM251.011 207.61C249.844 209.178 248.836 210.527 247.572 212.228C249.771 212.119 251.534 212.022 253.745 211.912C252.676 210.235 251.898 209.02 251.011 207.61Z" fill="#E30613"/>
</g>
<defs>
<clipPath id="clip0_810_2633">
<rect width="282" height="282" rx="12" fill="white"/>
</clipPath>
</defs>
</svg>
