<svg width="282" height="282" viewBox="0 0 282 282" fill="none" xmlns="http://www.w3.org/2000/svg">
<path d="M225.111 175.182C217.164 172.722 209.846 167.956 203.984 160.836C203.325 160.038 202.774 159.054 202.464 158.05C202.275 157.457 202.19 156.561 202.785 156.042C203.476 155.448 204.134 155.786 204.722 156.022C205.366 156.289 205.876 156.917 206.412 157.436C212.533 163.47 219.264 168.462 227.561 170.7C233.378 172.273 239.106 171.714 244.796 169.991C245.898 169.654 247.036 169.293 248.153 169.223C249.351 169.142 249.721 169.634 249.887 170.122C250.143 170.897 249.614 171.665 249.137 171.952C247.858 172.77 246.442 173.371 245.041 173.976C238.759 176.664 232.314 177.068 225.111 175.182Z" fill="#E30613"/>
<path d="M222.893 130.88C223.081 130.353 223.303 129.752 223.639 129.395C224.438 128.55 225.059 128.515 225.651 128.67C226.479 128.887 226.823 129.685 226.864 130.305C226.942 131.43 226.628 132.682 226.351 133.779C225.091 138.803 223.797 143.834 222.404 148.823C222.013 150.203 221.676 152.01 219.661 151.762C218.363 151.603 217.938 150.157 218.47 147.727C219.098 144.827 221.658 134.28 222.893 130.88Z" fill="#E30613"/>
<path d="M241.814 142.871C242.328 140.715 242.797 138.548 243.373 136.393C243.687 135.207 244.135 133.924 245.647 134.171C247.111 134.423 247.389 135.764 247.141 137.001C246.044 142.397 244.873 147.773 243.617 153.111C243.236 154.708 242.268 154.949 241.439 154.798C240.115 154.55 239.838 153.407 240.015 152.201C240.492 149.081 241.737 142.867 241.814 142.871Z" fill="#E30613"/>
<path d="M23.8572 46.0789C22.7476 45.2414 21.9376 44.6249 21.1276 44.02C17.8654 41.5657 14.581 39.123 11.341 36.6338C10.5643 36.0405 9.83193 35.3077 9.28823 34.4935C8.97755 34.0049 8.87769 33.1325 9.08851 32.6207C9.21056 32.3183 10.2092 32.1555 10.6863 32.3299C11.8514 32.737 12.9832 33.2954 14.0484 33.9351C17.3661 35.9475 20.6504 38.0296 24.0791 40.1699C24.3898 38.0296 24.6561 35.9009 25.0333 33.7956C25.3218 32.1671 25.7213 30.5386 26.154 28.945C26.4314 27.9098 27.0195 27.0141 28.2068 27.1886C29.4384 27.3631 29.8379 28.3867 29.8157 29.5383C29.7713 32.9697 29.6603 36.3895 29.5937 39.8209C29.5716 40.6351 29.5937 41.4494 29.5937 42.2636C29.7158 42.3799 30.7588 41.4028 31.247 40.9027C35.4191 36.6221 39.5912 32.3648 43.8076 28.1308C44.3957 27.5376 45.1391 27.0374 45.8936 26.7117C46.2931 26.5372 47.0476 26.6652 47.3139 26.9676C47.5802 27.27 47.6357 28.061 47.4471 28.4681C47.092 29.2475 46.5594 29.957 45.9935 30.5968C42.2764 34.8773 38.537 39.1346 34.8088 43.4035C34.3983 43.8688 33.9877 44.3574 33.3775 45.0669C36.1736 44.8575 38.6924 44.6249 41.2112 44.4853C46.282 44.2178 51.3639 43.9968 56.4347 43.7641C56.7454 43.7525 57.0783 43.7525 57.3446 43.8107C59.0867 44.1945 58.9313 46.0207 57.622 46.2534C56.0242 46.5442 54.4153 46.9048 52.7953 47.0792C46.9921 47.6841 41.189 48.2192 35.3858 48.7891C35.2638 48.8008 35.1528 48.8473 34.7866 48.952C36.3844 50.2664 37.8602 51.4761 39.336 52.6742C42.121 54.9541 44.9394 57.199 47.6801 59.5254C48.4124 60.1535 49.056 60.9794 49.522 61.8402C50.0213 62.7475 49.4998 63.5268 48.5456 63.2825C47.3805 62.9685 46.1821 62.4683 45.1946 61.7588C40.379 58.3157 35.6299 54.768 30.8587 51.2551C30.3261 50.8596 29.7935 50.4641 29.0168 49.8709C28.8503 52.5114 28.7172 54.8843 28.5396 57.2572C28.007 64.3178 27.4744 71.3784 26.9196 78.439C26.8531 79.2183 26.7088 80.0093 26.4869 80.7537C26.1873 81.7773 25.5215 82.452 24.4452 82.3706C23.4355 82.2891 22.8474 81.5796 22.6699 80.5792C22.5035 79.6254 22.4147 78.6483 22.4258 77.6829C22.4924 71.3784 22.5922 65.0855 22.681 58.781C22.6921 58.3157 22.681 57.862 22.681 57.0594C22.1706 57.5713 21.8155 57.9086 21.4715 58.2692C17.6324 62.2938 13.7932 66.3301 9.94289 70.3548C9.51015 70.8084 9.02193 71.2621 8.46714 71.518C8.08988 71.6924 7.42412 71.6808 7.13563 71.4365C6.84713 71.1923 6.78056 70.506 6.78056 70.0989C6.79166 68.8193 7.44631 68.2494 8.0233 67.5166C11.4186 63.2011 14.8695 58.9206 18.3425 54.6633C19.5963 53.1278 20.9611 51.6971 22.57 49.9058C19.563 50.2664 16.9555 50.6153 14.348 50.8713C11.8403 51.1155 9.33262 51.2667 6.81385 51.4528C6.54755 51.4761 6.27015 51.4296 6.02604 51.3947C4.75001 51.2318 5.47124 49.8127 5.83741 49.7197C8.35618 49.0683 10.8971 48.4402 13.4492 47.9516C16.4784 47.4049 23.1692 46.3232 23.8572 46.0789Z" fill="#E30613"/>
</svg>
