<svg width="1440" height="544" viewBox="0 0 1440 544" fill="none" xmlns="http://www.w3.org/2000/svg">
<path d="M1440 482.071C1424.32 482.674 1418.72 482.584 1408.17 493.13C1397.62 503.676 1171.47 524.011 1169.21 516.932C1166.95 509.853 1194.39 357.474 1194.39 348.135C1194.39 338.795 1419.63 323.88 1433.2 328.4C1446.76 332.92 1410.58 471.063 1406.51 482.662C1399.54 502.532 1173.59 514.228 1172.73 513.661C1169.11 511.25 1170.34 483.748 1168.45 483.413C1164.6 482.731 1148.95 483 1144.33 485.975C1141.15 488.027 1143.65 487.825 1147.32 489.406C1154.42 492.469 1164.76 495.118 1166.16 494.524C1168.27 493.622 1169.12 469.49 1168.48 466.751C1167.97 464.59 1095.81 473.172 1093.83 477.689C1091.63 482.71 1164.11 514.548 1165.29 510.755C1168.01 502.025 1176.25 448.959 1171.82 447.906C1169.33 447.315 1138.3 449.228 1104.39 450.39C1077.13 451.322 1051.49 449.75 1045.24 449.753C1031.22 449.756 1032.85 389.411 1036.77 370.73C1038.41 362.872 1026.03 298.333 1036.24 303.49C1037.42 304.085 1035.29 312.304 1035.56 323.729C1036.21 350.657 1055.91 332.615 1046.41 329.716C1038.24 327.22 1044.23 351.653 1040.99 364.251C1038.42 374.194 1055.16 371.632 1050.18 367.866C1045.21 364.1 1040.08 371.481 1043.1 391.216C1046.12 410.95 1055.31 394.378 1047.92 395.133C1040.54 395.887 1044.46 418.331 1043.7 431.138C1042.95 443.944 1056.29 442.891 1055.31 437.39C1054.33 431.889 1043.89 434.798 1044.38 444.318C1044.59 448.398 1062.15 446.953 1083.13 446.219C1111.1 445.242 1145.04 444.007 1150.9 444.092C1161.15 444.243 1168.38 442.888 1170.8 436.258C1172.61 431.286 1167.33 428.724 1163.88 418.763C1162.73 415.45 1163.26 410.377 1162.35 405.377C1158.74 385.344 1185.57 403.041 1178.49 403.871C1171.4 404.701 1134.46 373.292 1113.05 358.829C1097.95 348.623 1085.09 342.262 1074.68 336.424C1070.34 333.988 1068.42 326.176 1064.2 325.687C1052.73 324.359 1041.96 318.524 1039.93 304.73C1038 291.598 1052.44 258.052 1049.54 274.356C1048.94 277.745 1046.72 282.301 1045.96 292.546C1045.21 302.79 1043.7 307.911 1039.03 302.639C1034.36 297.368 1035.71 277.18 1036.01 272.962C1036.32 268.743 1026.67 264.978 1022.45 268.291C1020.02 270.195 1024.41 275.69 1028.14 282.73C1030.9 287.935 1032.73 295.114 1034.21 296.459C1037.67 299.625 1036.69 279.987 1039.33 271.453C1042.27 261.963 1071.07 254.655 1078.91 263.242C1086.74 271.83 1074.16 275.672 1066.16 278.985C1058.18 282.298 1062.1 294.501 1061.19 303.539C1060.28 312.579 1056.67 311.975 1052.6 307.757C1048.53 303.538 1048.83 283.052 1051.39 276.272C1053.96 269.492 1073.1 264.974 1080.94 266.48C1091.32 268.472 1092.54 301.68 1082.26 294.833C1080.8 293.861 1079.58 291.565 1077.99 290.859C1074.96 289.507 1072.39 290.023 1074.26 294.187C1076.71 299.628 1074.72 303.152 1068.43 301.278C1061.34 299.169 1064.36 288.626 1065.71 284.256C1067.07 279.887 1080.19 273.11 1089.53 276.121C1098.88 279.136 1096.54 291.489 1098.65 306.553C1100.76 321.616 1145.62 330.657 1158.88 336.381C1172.15 342.106 1159.18 322.22 1161.6 303.24C1164.01 284.256 1200.19 278.233 1209.24 279.136C1213.82 279.591 1215.92 293.197 1219.71 305.578C1223.4 317.655 1228.83 328.457 1228.23 333.367C1227.03 343.309 1174.41 340.295 1164.16 335.174C1160.49 333.343 1162.5 322.102 1157.08 313.629C1142.1 290.198 1147.49 240.729 1146.82 240.946C1143.35 242.074 1141.24 255.859 1151.94 253.9C1162.65 251.942 1170.64 231.305 1156.17 244.712C1146.47 253.698 1149.08 275.503 1152.68 287.639C1154.45 293.611 1156.46 301.468 1157.35 296.052C1160.07 279.634 1198.83 276.951 1208.48 273.034C1218.13 269.118 1206.98 261.284 1202.15 242.904C1197.32 224.525 1183.91 200.119 1169.43 186.863C1154.96 173.607 1124.66 211.869 1127.97 222.113C1131.29 232.358 1148.47 204.639 1157.22 190.176C1168.67 171.241 1112.27 177.379 1100.38 181.063C1084.33 186.039 1090.9 215.095 1074.15 231.83C1067.59 238.384 1066.23 249.682 1060.81 249.983C1055.38 250.285 1063.67 230.098 1073.92 218.649C1084.17 207.201 1086.59 176.467 1086.89 163.211C1087.19 149.955 1093.14 156.657 1105.81 171.12C1118.47 185.58 1117.57 218.873 1115.08 223.468C1112.59 228.064 1107.76 210.439 1100.38 207.726C1092.99 205.016 1093.54 206.887 1096.85 215.925C1100.17 224.962 1073.77 243.807 1067.29 250.735C1060.8 257.663 1060.8 257.364 1058.09 250.735C1055.37 244.105 1048.59 229.494 1040 222.563C1031.4 215.635 1027.03 222.563 1024.32 197.406C1020.05 157.864 1009.9 147.134 1000.48 147.698C982.653 148.769 969.712 189.663 1003.36 154.171C1015.58 141.292 1000.65 136.395 1001.4 140.764C1002.16 145.133 1031.03 167.732 1050.78 168.184C1070.53 168.637 1091.33 144.533 1091.63 138.054C1091.94 131.576 1058.01 134.213 1028.77 134.062C999.519 133.911 982.782 133.462 975.245 121.108C967.707 108.754 972.34 78.5244 983.009 73.3523C993.678 68.1773 1056.58 66.8737 1066.53 72.2962C1076.48 77.7187 1083.95 105.543 1068.73 117.595C1053.5 129.644 993.56 123.516 984.664 118.694C975.767 113.872 972.3 90.0694 980.291 73.3493C988.282 56.6292 1089.18 60.0179 1103.95 66.9461C1118.73 73.8774 1119.62 106.437 1111.16 118.093C1102.69 129.75 995.819 135.118 978.633 118.697C961.444 102.278 972.678 61.2641 987.527 59.5321C994.237 58.7505 1001.68 57.2991 1005.71 53.6298C1011.49 48.3551 1012.35 39.2543 1017.53 32.4528C1025.22 22.3591 1020.75 11.3904 1019.87 18.5932C1018.36 30.8987 1029.73 28.3399 1035.11 33.4998C1044.31 42.3382 1053.22 53.7625 1058.84 51.8102C1067.74 48.7203 1100.9 55.5791 1107.53 58.4397C1118.63 63.2285 1100.64 -9.9224 1036.98 2.40119C1012.85 7.07232 1091.65 52.7306 1093.81 46.2398C1094.77 43.3853 1057.57 -9.59047 1022.39 7.60341C1009.75 13.7833 1008.55 23.3609 999.89 37.9537C976.737 76.9704 1028.22 17.0664 1013.61 12.3439C1008.48 10.6873 993.859 32.9808 989.713 43.3008C985.567 53.6207 989.94 60.4765 1002 57.6129C1014.06 54.7523 1105.05 53.2465 1114.47 66.3517C1123.9 79.4568 1124.37 112.297 1112.76 124.65C1101.15 137.001 1007.73 128.83 1005.21 132.822C1002.68 136.814 1009.05 140.242 1010.71 144.159C1012.37 148.075 1015.23 154.252 998.045 170.523C980.856 186.793 977.238 200.952 976.033 221.441C974.828 241.927 998.948 202.457 1001.36 208.785C1003.77 215.113 987.189 223.248 1000.45 225.357C1013.72 227.467 1029.4 257.895 1034.23 254.582C1039.05 251.269 1031.81 236.507 1022.16 224.153C1012.51 211.8 1018.54 178.658 1013.42 162.689C1008.29 146.724 1002.41 171.805 966.532 183.254C930.65 194.702 904.721 222.651 904.268 239.522C903.815 256.393 899.745 268.445 897.785 286.372C895.825 304.299 937.436 313.038 945.728 308.668C954.021 304.299 926.954 250.831 911.123 247.216C895.293 243.601 890.099 286.523 888.589 302.793C887.079 319.064 945.638 319.803 949.633 323.756C953.628 327.712 951.394 335.714 954.245 350.024C956.971 363.726 959.218 366.596 955.298 374.128C951.379 381.659 974.973 393.56 970.676 387.233C966.378 380.905 953.351 375.612 956.515 390.6C959.683 405.588 978.515 405.157 968.716 400.187C953.674 392.556 958.367 406.252 960.188 414.9C962.598 426.349 993.893 437.396 1000.53 447.037C1007.16 456.678 1051.03 452.082 1063.4 455.097C1075.76 458.111 1088.27 526.277 1087.67 535.918C1087.06 545.559 938.713 545.258 930.27 535.617C921.826 525.976 918.51 493.133 923.937 488.012C929.364 482.891 932.38 486.355 947.154 488.163C951.324 488.673 957.186 480.17 959.372 479.847C964.932 479.023 967.559 482.713 972.104 483.794C978.437 485.299 989.668 469.783 993.286 474.002C996.904 478.217 1004.59 479.273 1010.02 471.138C1015.45 463.003 1066.86 466.618 1077.71 471.138C1086.47 474.783 1097.47 512.774 1097.61 521.754C1097.78 532.406 918.776 526.111 917.299 521.452C914.433 512.412 907.95 465.713 900.563 461.796C893.173 457.879 885.035 447.785 882.169 431.515C879.306 415.244 888.199 339.622 890.612 325.612C893.022 311.604 946.544 325.615 949.259 330.283C950.539 332.489 948.422 351.662 946.562 372.486C945.031 389.632 945.357 406.171 944.131 412.836C941.416 427.601 899.654 411.482 899.956 409.372C900.841 403.189 954.06 420.395 963.096 425.742C969.516 429.538 973.324 434.828 980.312 438.295C987.382 441.805 1013.78 461.913 1005.64 470.987C1001.72 475.357 992.975 465.414 983.326 459.539C973.675 453.664 978.953 438.597 980.46 457.128C981.967 475.658 974.665 484.605 969.465 477.224C964.265 469.844 962.893 436.491 965.835 440.106C968.776 443.721 965.083 449.747 960.257 456.376C955.434 463.006 956.038 474.756 949.102 482.137C942.168 489.521 937.27 479.654 942.168 475.058C947.069 470.465 941.416 451.256 944.656 450.127C947.897 448.998 944.955 456.983 939.755 469.711C934.555 482.442 926.413 481.838 926.187 476.416C925.96 470.993 932.072 448.138 934.026 451.446C936.623 455.845 904.407 495.49 914.352 464.665C918.8 450.881 934.703 444.629 929.578 451.334C924.45 458.036 882.537 459.168 881.181 452.613C879.822 446.062 866.027 447.719 856.53 443.651C847.032 439.584 832.712 418.796 843.566 404.937C854.419 391.077 830.598 373.602 837.384 375.259C857.481 380.169 862.256 389.022 853.111 408.98C841.524 434.27 855.775 436.841 847.712 441.017C842.246 443.851 814.375 443.845 818.011 449.228C822.082 455.254 873.568 455.706 879.599 449.831C885.63 443.956 848.995 438.534 828.641 440.945C808.29 443.353 814.448 448.875 813.49 463.615C811.669 491.672 846.102 497.602 867.012 489.744C876.522 486.168 879.913 479.328 881.07 477.098C883.95 471.545 938.327 490.191 865.659 497.161C851.034 498.564 837.625 498.567 833.189 498.175C822.937 497.273 808.477 494.648 819.331 500.825C830.187 507.001 878.548 504.18 881.335 494.992C882.761 490.296 866.296 495.082 846.525 495.206C827.599 495.324 805.602 490.746 794.985 488.094C773.275 482.671 812.738 459.49 819.144 476.53C824.495 490.776 846.978 489.451 858.454 489.147C875.489 488.694 883.214 461.681 879.409 457.36C877.355 455.027 868.763 459.834 847.932 459.539C814.858 459.071 734.761 467.692 641.791 462.034C548.822 456.376 455.509 425.894 335.391 431.515C271.131 434.522 236.049 446.63 171.944 452C104.975 457.611 3.36785e-05 458.993 3.36785e-05 458.993" stroke="black" stroke-width="2" stroke-miterlimit="22.9256" stroke-linecap="round"/>
</svg>
