<svg width="1440" height="396" viewBox="0 0 1440 396" fill="none" xmlns="http://www.w3.org/2000/svg">
<path d="M0 386.644C0 386.644 30.6262 386.675 50.25 386.695C69.8738 386.716 100.5 386.747 100.5 386.747C139.197 385.912 178.408 387.427 186.383 386.644C202.77 385.034 196.335 391.555 194.665 391.771C193.691 391.897 193.488 386.834 193.215 381.101C192.926 375.004 178.845 381.823 179.135 373.26C179.425 364.697 196.266 285.72 205.556 287.753C214.846 289.787 221.09 288.337 217.46 310.838C213.83 333.339 208.75 365.424 200.619 363.68C192.493 361.94 185.669 360.777 186.539 356.713C188.404 348.02 204.111 282.401 202.51 280.497C197.863 274.98 175.072 285.577 168.828 268.593C162.589 251.61 170.282 167.7 179.282 149.842C188.283 131.984 217.027 117.03 225.448 124.581C233.868 132.131 223.124 131.837 220.8 136.484C218.477 141.127 221.527 155.644 227.914 160.582C230.965 162.94 229.736 193.558 228.351 198.474C226.754 204.133 218.187 202.974 218.334 211.394C218.477 219.814 219.857 223.804 215.357 225.838C210.857 227.871 202.22 234.475 198.88 203.116C195.539 171.758 199.602 176.691 202.194 196.903C204.786 217.11 210.493 226.924 200.186 232.294C189.879 237.664 183.635 240.277 186.976 235.487C190.312 230.697 209.914 228.083 210.783 232.294C211.653 236.504 213.016 260.432 220.42 267.983C227.823 275.529 202.51 279.471 203.67 277.732C204.829 275.992 232.583 270.48 232.414 264.958C231.544 236.651 220.87 254.202 221.09 255.089C221.813 257.992 231.397 242.891 239.091 237.521C246.784 232.147 256.369 231.277 252.738 228.083C249.108 224.89 235.318 227.214 235.608 229.827C235.897 232.441 268.705 223.151 267.255 218.793C265.802 214.436 237.057 214.873 237.057 218.646C237.057 222.419 267.398 215.306 264.205 210.806C261.012 206.305 232.41 206.305 231.54 210.226C230.666 214.146 259.848 203.402 249.541 201.226C239.234 199.045 232.7 201.805 232.7 199.482C232.7 197.158 232.263 156.8 235.456 155.93C238.649 155.06 295.849 151.72 297.008 156.367C298.172 161.01 300.492 225.47 295.122 226.63C289.747 227.789 261.003 224.596 259.843 227.789C258.684 230.987 258.151 357.362 243.634 370.72C229.117 384.073 302.387 381.866 297.45 370.253C292.512 358.639 291.781 335.217 288.298 296.602C284.815 257.983 284.525 230.983 289.895 230.983C295.269 230.983 316.32 236.647 317.479 245.937C318.643 255.227 318.933 261.908 328.513 265.391C338.098 268.874 341.291 270.761 344.485 287.892C347.678 305.023 361.325 361.642 355.518 362.512C349.712 363.386 331.421 373.546 326.484 359.028C321.547 344.511 310.66 295.442 320.387 292.539C330.114 289.636 338.972 288.039 340.421 290.795C341.871 293.552 363.359 371.659 359.149 374.125C354.939 376.592 324.745 392.563 308.773 378.046C292.807 363.524 286.273 248.403 291.5 238.676C306.454 210.845 338.28 259.762 340.088 241.657C341.248 230.044 337.375 225.323 340.279 221.113C343.182 216.902 368.586 222.567 366.12 225.033C363.649 227.499 341.001 219.806 341.728 200.062C342.451 180.317 346.83 208.586 345.791 213.999C344.484 220.823 322.417 220.97 321.11 214.436C319.803 207.906 322.564 194.112 318.643 193.242C314.723 192.372 310.076 199.919 314.286 206.163C318.496 212.402 313.996 196.578 308.479 192.515C302.962 188.452 300.349 191.061 302.382 198.322C304.412 205.579 305.121 201.156 301.655 188.158C298.189 175.159 318.929 137.635 318.059 133.572C317.19 129.509 298.895 120.219 297.735 125.589C296.576 130.959 290.332 147.8 293.525 149.106C296.718 150.413 296.718 133.715 292.945 134.442C289.172 135.169 267.541 148.237 251.57 139.379C235.599 130.522 242.28 147.942 243.729 147.942C245.179 147.942 240.826 128.202 241.116 116.441C241.406 104.685 245.664 108.103 246.68 101.717C248.662 89.2547 240.579 80.9468 239.372 72.1672C236.759 53.1499 225.132 49.8137 233.418 68.8268C240.484 85.0445 229.1 18.0662 259.588 23.5832C290.349 29.1478 285.654 27.0102 297.584 47.0488C301.214 53.1456 311.668 48.9353 308.618 38.4812C294.261 -10.7562 242.314 -6.52433 234.145 22.6572C230.082 37.1744 226.741 42.8342 231.242 47.0444C236.032 51.5229 237.243 2.84373 267.969 18.5898C279.583 24.5438 285.823 23.527 290.76 26.1405C295.697 28.754 304.113 47.6242 298.453 66.7887C292.794 85.9532 313.118 68.6753 307.164 60.1121C301.21 51.5489 293.226 90.3105 289.306 95.1006C285.386 99.8906 276.675 107.584 267.385 103.811C258.091 100.033 256.061 99.0208 253.011 95.9703C249.965 92.924 245.897 109.038 250.834 110.635C255.767 112.231 289.306 114.698 290.756 106.424C292.205 98.1511 315.29 114.265 316.45 118.185C317.614 122.106 350.858 122.106 358.552 134.879C366.245 147.652 387.296 203.839 385.99 215.306C384.683 226.777 377.859 268.732 363.342 266.698C348.825 264.664 322.983 258.857 322.983 248.84C322.983 238.823 338.591 254.626 336.415 259.995C334.238 265.365 371.68 275.296 376.18 267.022C380.68 258.745 414.587 290.938 416.911 276.131C419.234 261.324 421.558 253.773 416.911 252.613C412.263 251.45 421.411 282.518 412.7 288.035C403.99 293.552 402.973 286.728 427.655 277.438C452.336 268.148 452.626 246.517 463.95 245.5C475.274 244.483 481.228 249.853 479.484 251.597C477.744 253.34 468.398 257.183 466.71 253.193C465.114 249.416 470.921 254.647 469.761 262.773C468.597 270.9 459.597 259.727 460.614 258.71C461.63 257.693 469.181 267.563 465.551 270.904C461.92 274.24 453.643 271.194 453.79 266.257C453.933 261.324 466.853 277.728 461.193 279.324C455.529 280.921 450.16 277.148 449.87 274.824C449.58 272.501 456.546 277.001 452.483 283.245C444.837 294.988 422.869 324.763 410.818 329.41C407.659 330.626 403.125 387.046 405.881 386.899C408.637 386.756 413.864 332.313 408.637 330.427C403.414 328.536 393.25 332.603 390.347 319.972C387.443 307.342 388.603 277.433 384.83 275.257C368.872 266.053 401.381 197.232 413.427 188.733C429.688 177.267 441.159 174.796 443.626 177.847C478.463 220.879 512.439 188.88 507.069 181.477C500.859 172.918 489.505 171.75 492.262 165.216C495.018 158.682 497.731 152.036 497.342 142.131C496.364 117.324 508.397 135.221 500.682 142.421C496.329 146.484 498.506 120.063 489.505 115.126C480.505 110.193 449.874 110.336 445.227 119.773C440.579 129.206 430.272 107.285 440.727 103.802C451.176 100.315 446.823 96.1044 451.903 93.3481C456.988 90.5874 457.42 91.4615 462.647 94.9448C467.874 98.428 480.942 90.5874 485.732 96.3943C490.522 102.201 496.182 107.428 501.119 110.622C506.052 113.815 507.796 124.412 504.892 126.009C501.989 127.61 499.665 125.576 498.216 120.349C493.919 104.888 454.841 105.399 450.597 111.059C448.42 113.962 442.583 124.139 443.31 133.287C444.037 142.43 438.256 143.866 436.949 135.303C435.642 126.74 441.203 125.347 442.319 128.337C443.435 131.327 445.798 156.947 452.764 162.607C459.735 168.271 444.21 177.262 447.693 172.762C451.176 168.262 451.176 164.485 458.87 171.018C473.534 183.467 484.356 165.977 496.762 173.195C516.649 184.77 528.496 175.151 544.234 192.649C561.07 211.377 571.524 269.156 568.331 272.059C565.138 274.963 540.746 284.69 539.586 279.9C538.427 275.11 537.12 260.298 540.023 260.445C542.927 260.593 537.99 279.463 540.893 286.286C543.797 293.11 553.087 291.366 548.007 288.9C542.923 286.434 525.502 285.56 521.439 278.593C517.371 271.626 522.309 261.899 521.292 258.706C520.279 255.508 508.086 259.139 509.825 266.979C511.565 274.82 514.468 273.946 514.615 271.769C514.762 269.593 503.291 267.996 499.518 267.559C495.741 267.122 487.177 268.429 493.564 273.219C499.955 278.009 506.195 282.656 506.632 279.753C507.069 276.849 475.131 266.975 478.904 273.799C482.682 280.622 494.875 288.316 498.358 286.719C501.842 285.123 479.488 276.702 476.148 277.282C472.812 277.866 471.938 273.946 472.375 266.105C472.812 258.265 471.133 256.317 475.568 255.941C479.999 255.564 499.955 252.458 501.262 255.941C502.569 259.424 502.711 263.924 501.552 264.071C500.392 264.214 487.904 265.378 488.341 267.555C488.778 269.736 478.614 267.555 478.324 269.299C478.034 271.042 467.437 275.832 478.034 285.849C488.631 295.867 490.375 297.753 495.745 298.333C501.115 298.913 511.275 296.593 515.632 303.27C519.989 309.947 532.183 322.287 539.007 325.191C542.243 326.567 542.918 341.612 543.507 356.839C544.16 373.784 544.459 390.984 542.78 390.373C541.097 389.763 540.192 372.139 539.729 355.242C539.31 340.011 539.046 325.321 542.486 325.044C575.523 322.4 555.449 278.879 564.986 278.879C567.89 278.879 572.827 282.072 573.697 271.038C574.571 260.008 576.167 236.487 582.844 232.424C589.52 228.36 595.764 222.843 593.878 216.31C591.991 209.78 589.668 203.536 589.378 196.712C589.088 189.893 591.411 182.195 598.815 179.729C606.219 177.262 611.151 174.069 608.395 172.325C605.639 170.586 595.912 179.002 594.605 177.552C593.298 176.103 598.235 165.359 601.429 166.665C611.502 170.785 584.367 178.66 593.735 185.973C596.167 187.868 603.263 175.151 609.269 179.729C615.366 184.376 596.059 188.586 603.172 197.587C610.286 206.587 615.08 214.717 610.433 214.717C605.79 214.717 597.08 217.474 598.24 213.99C599.403 210.507 612.904 214.717 611.597 221.684C610.13 229.507 607.949 230.671 605.353 230.541C602.164 230.381 598.664 227.768 598.966 227.058C599.403 226.041 609.131 224.734 610.29 240.995C611.45 257.256 604.626 306.615 598.529 311.405C576.496 328.717 561.763 288.221 571.239 283.82C575.302 281.929 570.066 304.724 583.869 311.111C605.089 320.929 575.306 388.491 572.983 386.168C563.978 377.167 680.41 381.667 697.251 387.184C714.092 392.701 700.154 325.775 705.381 303.127C710.608 280.48 724.979 244.621 719.899 238.815C714.814 233.008 706.251 225.024 689.41 234.314C672.569 243.605 629.45 236.054 628.871 226.184C628.291 216.31 638.451 207.456 633.661 202.229C628.866 197.002 620.593 193.519 620.303 184.519C618.161 118.138 673.331 135.879 661.241 209.633C659.792 218.49 659.207 222.991 669.372 221.974C679.532 220.961 691.236 211.485 692.889 204.99C694.923 197.007 667.234 86.2388 647.161 120.21C643.384 126.597 637.867 134.291 640.917 136.614C643.968 138.938 651.371 117.307 645.564 115.563C623.799 109.034 596.786 157.652 607.093 167.098C621.826 180.607 606.457 187.556 610.286 197.297C613.769 206.154 615.219 218.638 619.576 217.478C623.929 216.318 630.16 208.058 631.48 204.704C632.8 201.351 642.514 207.318 650.354 204.415C658.195 201.511 657.624 191.697 660.661 192.801C661.994 193.285 654.275 214.955 659.502 221.545C666.226 230.018 676.607 223.942 692.893 225.029C703.78 225.751 720.881 230.9 722.915 239.901C724.944 248.901 728.457 396.189 722.798 388.348C717.134 380.508 729.621 386.462 736.588 386.752C743.554 387.042 735.571 371.508 739.344 354.957C743.117 338.406 748.466 295.166 742.369 287.905C736.272 280.644 729.764 283.383 727.441 270.9C725.121 258.416 720.327 147.644 733.685 137.774C751.447 124.646 776.193 109.163 787.69 136.757C789.867 141.984 803.367 127.173 799.884 124.706C796.401 122.24 789.577 113.092 792.19 110.189C794.804 107.285 798.871 102.058 795.821 101.042C792.77 100.025 777.093 114.105 778.69 116.429C780.287 118.752 795.241 103.075 796.838 95.5246C798.434 87.9739 799.218 63.6603 795.297 57.7063C783.272 39.4418 789.854 87.3725 794.951 70.696C796.548 65.469 792.77 36.2917 799.014 34.258C805.258 32.2286 814.985 40.3548 828.196 40.7919C841.411 41.2289 844.894 31.6445 848.377 36.5816C851.865 41.5188 849.372 49.3464 854.309 50.9431C863.807 54.0153 850.787 12.6445 834.007 10.1607C822.553 8.46454 808.793 10.866 800.035 16.5475C791.052 22.3803 786.396 34.6518 790.165 41.0818C792.632 45.292 795.392 26.5645 801.779 29.468C808.166 32.3714 818.473 36.4345 825.586 36.1446C832.7 35.8547 836.737 31.1642 841.848 33.2412C846.958 35.3182 853.608 54.2922 852.882 70.1162C852.155 85.9402 864.205 65.7632 858.688 59.8092C853.171 53.8595 853.029 62.2756 853.029 63.7295C853.029 65.1834 849.982 90.8773 846.932 96.1044C827.603 129.241 815.587 101.643 803.38 103.798C800.909 104.235 791.619 112.945 804.25 122.962C816.881 132.979 820.654 167.384 817.17 167.531C813.687 167.674 812.233 132.832 816.88 130.656C821.528 128.479 844.175 127.9 846.642 129.349C849.113 130.803 850.709 167.241 848.676 167.241C846.646 167.241 843.596 127.9 849.403 126.156C855.209 124.412 856.084 119.189 861.453 124.849C866.823 130.513 867.987 135.303 864.647 134.576C861.311 133.849 846.066 125.286 846.646 117.445C848.001 99.1506 863.755 124.351 888.891 127.61C914.031 130.868 908.925 160.711 907.766 175.229C906.606 189.746 906.896 269.299 899.345 270.752C891.799 272.206 867.407 273.509 866.828 269.156C866.248 264.803 860.004 261.025 855.941 261.172C851.873 261.315 845.776 253.622 838.373 257.252C830.969 260.882 823.566 267.122 821.822 270.173C820.078 273.219 758.236 270.605 753.589 267.122C748.942 263.639 745.748 172.758 759.686 170.144C773.623 167.531 908.925 167.821 912.409 174.065C915.892 180.304 929.539 260.008 918.795 272.782C908.056 285.555 904.425 288.606 900.795 293.686C897.164 298.766 882.357 303.846 886.278 292.669C890.198 281.492 901.522 279.606 900.505 275.975C899.488 272.345 885.551 275.832 881.34 278.589C877.13 281.345 865.374 273.362 864.647 274.668C863.924 275.975 860.731 278.156 864.794 281.929C868.861 285.707 862.47 288.32 863.924 292.673C865.378 297.026 857.537 295.14 857.247 299.06C856.958 302.98 854.634 387.18 860.878 390.521C867.122 393.857 861.168 374.697 853.474 372.663C845.781 370.633 805.712 365.986 804.843 370.196C803.973 374.407 800.922 387.037 806.439 386.6C811.956 386.163 815.003 300.947 812.536 300.367C810.065 299.787 756.06 292.673 760.417 296.736C764.774 300.799 776.388 303.56 776.968 288.606C777.548 273.652 788.872 273.072 794.826 275.248C800.78 277.429 810.07 283.959 818.49 278.879C826.906 273.799 839.394 257.685 842.877 258.555C846.361 259.429 848.541 263.349 839.394 273.509C830.251 283.669 830.394 290.492 826.621 289.186C822.843 287.879 842.877 268.282 851.735 267.555C860.592 266.828 860.592 271.765 853.768 277.282C846.945 282.799 836.928 298.476 836.638 293.976C836.348 289.476 854.439 274.928 859.865 281.055C865.291 287.182 838.672 300.362 831.558 300.799C824.444 301.236 818.347 301.089 821.251 298.913C824.154 296.736 844.188 300.22 855.365 296.299C866.542 292.379 865.382 306.606 875.689 304.283C885.996 301.959 886.719 298.186 890.059 307.186C893.396 316.186 906.463 375.419 907.77 379.482C909.077 383.545 944.065 394.869 944.645 382.966C945.225 371.062 956.986 328.523 949.582 329.25C942.179 329.977 928.942 327.328 924.901 312.409C920.691 296.879 930.634 226.154 936.804 213.402C943.338 199.901 975.856 189.447 980.646 192.788C985.436 196.128 985.583 209.339 1000.97 215.873C1025.96 226.482 1069.52 213.718 1043.07 192.935C1036.98 188.141 1035.38 177.981 1038.28 169.56C1043.81 153.537 1047.95 111.569 1022.9 110.475C992.987 109.168 999.724 144.039 996.907 165.64C996.47 168.976 996.176 178.565 992.26 180.594C988.339 182.624 982.385 186.401 980.209 166.947C970.897 83.7594 1026.52 76.3601 1021.87 103.798C1020.9 109.54 1017.37 91.4615 1024.2 89.7177C1053.36 82.2709 1070.74 164.688 1051.93 180.309C1045.7 185.471 1015.19 192.939 1006.63 181.468C998.062 169.997 998.062 178.565 997.483 181.031C996.903 183.498 990.949 187.128 988.045 189.742C979.045 197.842 1006.34 213.696 1015.77 214.423C1054.22 217.383 1040.03 192.706 1059.9 203.826C1068.47 208.616 1095.62 212.684 1099.97 251.298C1104.33 289.913 1104.91 328.674 1098.81 334.628C1082.88 350.18 1049.21 334.529 1043.79 315.174C1042.77 311.543 1019.4 299.64 1013.59 294.992C1007.79 290.35 1007.93 285.702 1014.17 288.316C1020.41 290.929 1033.33 297.031 1028.25 297.173C1023.17 297.32 1012.86 283.526 1004.88 286.576C996.894 289.627 993.843 294.707 994.57 296.304C995.297 297.9 959.876 323.162 962.343 325.338C964.809 327.519 996.167 300.804 991.667 294.127C987.167 287.45 981.213 276.996 974.536 280.917C967.86 284.833 957.843 292.236 956.246 276.559C954.649 260.882 955.666 254.928 958.132 255.365C960.599 255.803 963.212 284.11 953.485 289.627C943.758 295.144 940.712 294.417 948.405 289.19C956.103 283.963 977.297 280.185 986.007 271.912C994.718 263.639 994.575 261.895 1000.96 262.042C1007.35 262.189 1014.6 269.446 1010.54 273.366C1006.47 277.286 1000.23 274.383 1000.09 271.042C999.945 267.706 1008.22 276.996 1006.04 279.61C1003.86 282.219 992.251 276.996 995.445 275.253C998.642 273.509 997.478 284.396 1004.3 283.236C1011.13 282.072 1030 287.879 1030 291.219C1030 294.56 1007.2 279.026 1014.46 277.282C1021.72 275.542 1036.38 291.799 1038.13 287.446C1039.87 283.093 1034.35 266.105 1039.72 267.849C1045.1 269.593 1051.19 278.156 1051.48 286.724C1051.77 295.291 1065.13 286.291 1064.84 279.757C1064.55 273.223 1073.69 256.24 1067.02 253.626C1060.34 251.012 1016.06 251.597 1015.48 258.563C1014.9 265.534 1012.87 273.517 1015.77 274.097C1018.68 274.677 1027.82 276.564 1030.87 280.774C1033.92 284.984 1034.35 271.337 1034.5 267.273C1034.64 263.206 1040.6 260.74 1045.39 265.53C1050.18 270.32 1050.9 280.047 1055.4 280.047C1059.9 280.047 1063.1 279.9 1062.23 273.223C1061.35 266.542 1071.96 267.559 1071.52 272.786C1071.08 278.013 1073.55 288.9 1069.19 291.951C1064.84 295.001 1066.58 299.211 1064.69 302.405C1062.81 305.598 1051.05 318.372 1050.76 314.745C1050.47 311.119 1063.53 299.069 1070.94 303.569C1078.34 308.069 1084 313.876 1086.62 310.682C1089.23 307.489 1080.96 307.636 1083.42 318.813C1085.89 329.99 1091.84 392.853 1084.44 389.512C1077.04 386.172 1108.39 378.336 1126.83 383.995C1145.27 389.655 1126.69 408.673 1133.36 376.155C1140.04 343.633 1144.54 301.098 1138.44 297.905C1132.35 294.711 1134.67 303.854 1119.14 294.564C1103.6 285.274 1103.75 236.348 1106.65 209.637C1109.56 182.922 1106.95 165.069 1126.84 151.421C1146.72 137.774 1166.47 124.126 1170.1 121.95C1173.73 119.773 1177.35 134.87 1174.6 139.081C1171.84 143.291 1164.43 155.489 1161.97 152.438C1159.5 149.388 1171.26 118.614 1176.19 115.273C1181.13 111.933 1176.92 73.8981 1173.29 72.3014C1169.66 70.7047 1163.85 78.978 1168.06 87.3984C1178.24 107.744 1172.59 64.6382 1181.42 57.637C1185.63 54.2966 1190.85 57.3471 1193.9 64.4608C1196.95 71.5744 1215.54 67.0743 1216.4 61.7044C1217.28 56.3302 1229.33 55.6076 1229.76 62.5742C1230.2 69.5407 1237.17 64.6036 1234.12 56.0404C1220.92 18.9706 1179.96 32.1637 1178.66 41.813C1177.94 47.1872 1170.82 48.6368 1169.08 53.8638C1167.34 59.0909 1168.79 69.2508 1172.56 66.7844C1176.34 64.318 1176.92 51.6873 1184.32 52.9941C1191.73 54.3009 1194.49 56.9144 1196.95 61.7044C1199.43 66.4945 1211.91 64.0281 1213.22 58.5111C1214.52 52.9941 1226.28 52.4143 1229.19 56.1875C1231.48 59.1731 1230.35 84.0623 1232.24 87.9826C1234.12 91.9029 1240.81 87.9826 1239.64 78.9823C1238.48 69.9821 1234.12 70.8518 1232.38 75.3519C1226.03 91.7644 1233.11 138.648 1206.98 140.392C1196.54 141.088 1183.89 131.102 1183.31 122.244C1182.73 113.387 1176.78 120.357 1177.21 123.551C1177.65 126.744 1179.1 140.245 1182.44 142.278C1185.78 144.308 1198.7 157.228 1199.43 163.182C1200.15 169.132 1201.89 210.654 1199.28 210.217C1196.66 209.784 1196.81 162.018 1203.2 157.665C1209.59 153.312 1222.94 138.501 1226.43 139.955C1229.91 141.404 1237.17 153.308 1238.33 149.535C1239.49 145.757 1243.41 122.967 1240.36 120.643C1237.31 118.319 1233.4 110.626 1231.65 113.529C1229.91 116.433 1253.45 134.684 1270.56 137.194C1314.12 143.581 1304.27 192.926 1315.57 231.268C1326.6 268.723 1313.93 288.666 1297.42 295.724C1277.39 304.287 1270.42 314.594 1264.9 316.338C1259.39 318.077 1243.41 314.884 1241.24 311.401C1239.06 307.913 1216.12 314.447 1207.99 305.157C1199.86 295.867 1186.94 294.27 1184.48 295.577C1182.01 296.883 1169.52 296.883 1171.56 288.753C1173.58 280.622 1164.58 259.866 1152.39 253.185C1140.2 246.504 1139.91 239.247 1141.07 225.6C1142.23 211.952 1145.71 249.844 1141.36 250.424C1137 251.004 1122.05 249.117 1125.82 247.084C1129.6 245.05 1143.68 248.248 1137.58 253.907C1131.49 259.567 1127.86 271.618 1132.5 282.505C1137.15 293.396 1146.01 303.266 1152.97 302.976C1159.95 302.686 1143.68 281.925 1140.78 282.652C1137.88 283.379 1156.32 295.572 1155.3 287.879C1154.28 280.185 1149.05 271.618 1145.57 271.765C1142.09 271.912 1153.41 282.652 1159.22 283.089C1165.03 283.522 1160.82 262.907 1157.18 263.634C1153.55 264.357 1170.98 294.408 1173.3 280.618C1175.62 266.828 1171.7 227.192 1176.2 226.032C1180.7 224.873 1298.15 213.259 1303.52 219.646C1308.89 226.037 1301.34 287.442 1297.28 287.589C1293.21 287.732 1243.71 292.232 1242.84 289.476C1241.96 286.715 1233.54 268.135 1225.56 265.231C1210.16 259.632 1192.13 279.956 1200.45 292.669C1202.92 296.446 1212.5 298.766 1209.3 300.509C1206.11 302.253 1197.69 284.253 1202.92 283.526C1208.14 282.799 1222.8 294.703 1221.35 298.623C1219.91 302.543 1202.19 274.526 1208.87 274.089C1215.55 273.652 1232.68 294.555 1229.92 294.992C1227.17 295.425 1214.74 269.281 1221.65 268.135C1228.56 266.988 1234.13 291.509 1240.38 293.976C1256.74 300.445 1268.96 284.841 1276.67 318.8C1282.48 344.347 1292.45 389.175 1287.52 387.868C1283.76 386.877 1282.13 378.604 1340.5 379.348H1440.5" stroke="black" stroke-width="2" stroke-miterlimit="22.9256" stroke-linecap="round"/>
</svg>
