<svg width="1440" height="642" viewBox="0 0 1440 642" fill="none" xmlns="http://www.w3.org/2000/svg">
<path d="M0 639.495C49.4709 639.444 85.0743 639.387 139.367 639.522C210.475 639.699 268.599 641.33 269.621 639.522C272.27 634.837 259.228 582.597 262.591 575.875C265.953 569.153 335.353 568.849 331.482 580.865C329.112 588.222 297.793 587.246 274.223 577.227C256.448 569.674 240.915 557.307 231.101 544.61C208.275 515.077 138.364 469.454 133.064 448.273C131.091 440.389 133.985 432.266 135.12 423.406C136.188 415.06 135.333 405.902 138.984 400.755C141.511 397.192 149.961 395.686 159.601 393.529C175.478 389.973 192.034 385.585 195.758 389.125C199.202 392.399 180.388 399.972 175.459 395.116C170.529 390.258 199.101 381.777 198.593 394.504C198.085 407.234 170.952 422.361 159.994 421.156C140.669 419.031 165.842 407.051 166.287 431.368C166.461 440.942 161.6 449.697 158.339 445.015C155.078 440.33 167.92 436.869 171.791 439.924C196.407 459.343 193.362 419.228 183.204 418.946C175.865 418.743 151.816 412.326 153.039 392.978C154.261 373.628 175.206 356.537 180.146 354.791C186.065 352.699 197.783 354.33 213.956 354.968C230.02 355.6 246.982 356.14 247.795 360.708C249.424 369.872 218.951 368.74 219.374 361.009C219.8 353.279 250.155 354.739 249.135 363.396C248.637 367.623 242.944 375.517 234.238 378.471C219.383 383.506 197.19 383.27 191.149 381.473C181.568 378.621 179.939 369.863 183.201 370.475C189.235 371.604 184.682 382.206 179.543 383.958C178.245 384.4 176.003 386.374 174.947 385.039C173.42 383.103 169.955 359.172 177.697 349.396C185.443 339.619 217.849 301.124 220.295 305.606C222.74 310.089 215.47 328.09 207.452 325.975C199.438 323.86 217.237 301.432 224.779 302.044C232.321 302.656 234.766 310.498 230.485 322.514C226.204 334.531 216.624 350.417 213.975 351.638C210.389 353.292 213.992 405.057 231.708 415.184C247.061 423.962 255.471 434.024 265.164 437.923C277.691 442.962 286.711 442.818 286.941 448.79C287.347 459.382 282.132 479.191 289.183 484.535C295.05 488.981 316.473 490.183 332.111 501.279C349.877 513.885 357.412 534.692 358.277 534.64C359.906 534.538 349.936 509.864 338.506 501.338C334.933 498.673 328.725 494.924 321.531 492.121C308.194 486.928 292.457 482.633 290.812 477.914C282.912 455.286 304.273 423.383 325.461 426.69C331.983 427.708 361.742 439.623 362.555 438.807C362.994 438.369 352.709 433.742 342.705 429.155C334.091 425.206 325.569 421.457 325.661 418.442C325.864 411.923 332.387 386.872 341.558 386.872C350.729 386.872 349.431 393.725 342.983 391.557C328.614 386.725 340.781 332.183 333.609 318.641C329.941 311.716 301.202 316.605 301.405 313.347C301.609 310.089 300.661 259.971 300.284 254.588C299.458 242.729 260.601 246.448 271.342 230.758C277.845 221.26 290.704 237.922 281.637 243.037C278.366 244.883 273.06 244.471 268.926 245.296C264.783 246.124 261.814 248.19 261.306 248.174C259.827 248.125 259.726 228.519 260.339 223.732C260.952 218.945 269.261 218.323 269.611 215.687C269.962 213.051 270.834 184.016 269.815 180.86C268.795 177.703 236.49 130.552 230.58 147.456C224.67 164.361 269.103 185.339 273.587 179.229C278.071 173.119 265.232 91.2415 249.535 96.5392C233.842 101.834 267.268 179.638 280.923 179.638C294.578 179.638 328.414 98.1697 311.088 93.6873C293.762 89.2049 276.049 168.277 290.927 177.238C305.804 186.2 345.737 147.05 340.03 139.716C334.324 132.385 289.481 167.01 288.258 189.006C287.036 211.002 287.98 217.393 291.546 219.479C295.112 221.568 298.347 224.036 298.043 228.365C297.738 232.693 297.587 253.203 297.125 254.077C296.518 255.226 287.052 247.385 277.93 248.377C267.097 249.555 256.405 252.525 255.648 258.455C254.324 268.841 257.074 309.883 255.035 312.427C252.997 314.974 221.609 313.343 218.043 311.611C214.477 309.879 209.075 296.642 208.056 278.922C203.362 197.293 139.571 184.268 158.526 98.4676C190.077 -44.3496 404.303 -26.3546 400.993 127.146C400.209 163.431 379.478 192.172 355.622 234.727C344.681 254.244 354.629 302.774 339.929 312.224C334.035 316.012 280.703 319.705 271.601 316.297C269.064 315.347 268.451 276.581 268.894 261.942C269.208 251.556 286.777 251.599 286.997 260.593C287.154 267 287.724 316.821 284.873 319.325C280.687 322.999 237.958 319.545 237.667 320.229C236.487 322.996 226.604 338.394 227.217 345.116C227.601 349.343 228.168 362.758 225.677 374.902C222.084 392.409 227.004 411.681 239.243 411.923C249.637 412.126 244.34 419.866 254.121 423.33C263.905 426.791 263.577 433.523 267.471 434.839C271.365 436.152 284.797 435.654 288.262 435.451C291.726 435.248 296.312 425.776 292.746 424.859C289.179 423.943 262.581 425.979 264.619 422.924C266.658 419.869 290.71 421.805 299.065 421.294C307.423 420.783 318.063 414.241 315.008 412.817C311.95 411.393 256.569 417.119 256.264 412.945C255.96 408.77 311.907 411.111 321.793 405.715C331.679 400.319 328.214 389.524 320.774 390.339C313.333 391.155 236.696 404.802 238.735 397.877C240.774 390.952 319.754 390.749 326.991 385.451C334.229 380.157 337.182 371.906 323.324 373.435C309.465 374.964 244.547 389.524 244.445 382.295C244.343 375.065 322.357 372.57 329.233 367.833C336.113 363.098 333.55 357.031 326.061 358.151C318.571 359.271 255.448 369.054 256.979 363.556C257.638 361.183 270.005 362.27 283.778 360.659C301.91 358.537 322.894 353.947 326.89 352.559C333.921 350.116 334.635 341.966 317.516 341.966C300.396 341.966 239.453 352.048 240.164 345.837C240.879 339.625 322.35 340.853 328.624 336.469C337.057 330.572 346.553 293.259 363.981 309.578C368.989 314.267 364.751 345.228 359.248 343.495C353.744 341.763 356.802 315.082 363.528 313.861C366.58 313.307 365.157 323.52 364.295 337.694C363.256 354.775 362.07 375.311 364.036 388.709C369.73 427.495 420.069 522.548 390.534 569.775C377.796 590.144 356.393 587.698 357.006 580.672C357.619 573.645 380.953 567.127 383.401 587.901C385.846 608.676 333.075 635.459 338.372 639.025C342.167 641.575 560.241 644.453 640.201 628.082C720.161 611.71 736.55 648.422 868.161 628.082C999.772 607.741 980.899 644.453 1073.77 628.082C1126.43 618.799 1143.8 604.765 1241.14 628.082C1266.65 634.193 1368 637 1393.5 632C1419 627 1430 625 1439.5 628.082" stroke="black" stroke-width="2" stroke-miterlimit="22.93" stroke-linecap="round"/>
</svg>
